<svg width="206" height="171" xmlns="http://www.w3.org/2000/svg" xmlns:xlink="http://www.w3.org/1999/xlink"><svg width="142" height="59" viewBox="0 0 37.571 15.61" xmlns="http://www.w3.org/2000/svg"><defs><filter id="a" x="-.014" width="1.027" y="-.095" height="1.19" color-interpolation-filters="sRGB"><feGaussianBlur stdDeviation=".196"/></filter><filter id="b" x="-.013" width="1.025" y="-.079" height="1.158" color-interpolation-filters="sRGB"><feGaussianBlur stdDeviation=".225"/></filter></defs><g font-family="Calibri" letter-spacing="0" word-spacing="0" stroke="#000" stroke-opacity=".984"><text style="line-height:1.25;-inkscape-font-specification:'Calibri, Normal';font-variant-ligatures:normal;font-variant-caps:normal;font-variant-numeric:normal;font-feature-settings:normal;text-align:start" x="2.041" y="286.3" font-weight="400" font-size="5.644" stroke-width=".05" filter="url(#a)" transform="translate(0 -281.39)"><tspan x="2.041" y="286.3" style="-inkscape-font-specification:'Calibri Bold'" font-weight="700">&lt;customized/&gt;</tspan></text><text style="line-height:1.25;-inkscape-font-specification:'Calibri Bold';font-variant-ligatures:normal;font-variant-caps:normal;font-variant-numeric:normal;font-feature-settings:normal;text-align:start" x="-2.394" y="262.924" transform="matrix(.863 0 0 1.15875 2.551 -290.272)" font-weight="700" font-size="9.845" stroke-width=".049" filter="url(#b)"><tspan x="-2.394" y="262.924" style="-inkscape-font-specification:'Calibri Bold'">JLsoftware</tspan></text></g><g font-family="Calibri" letter-spacing="0" word-spacing="0" fill="#d59541" stroke="#000" stroke-opacity=".984"><text style="line-height:1.25;-inkscape-font-specification:'Calibri, Normal';font-variant-ligatures:normal;font-variant-caps:normal;font-variant-numeric:normal;font-feature-settings:normal;text-align:start" x="1.89" y="4.72" font-weight="400" font-size="5.644" stroke-width=".05"><tspan x="1.89" y="4.72" style="-inkscape-font-specification:'Calibri Bold'" font-weight="700">&lt;customized/&gt;</tspan></text><text style="line-height:1.25;-inkscape-font-specification:'Calibri Bold';font-variant-ligatures:normal;font-variant-caps:normal;font-variant-numeric:normal;font-feature-settings:normal;text-align:start" x=".316" y="255.022" transform="matrix(.863 0 0 1.15875 0 -281.39)" font-weight="700" font-size="9.845" stroke-width=".049"><tspan x=".316" y="255.022" style="-inkscape-font-specification:'Calibri Bold'">JLsoftware</tspan></text></g></svg><svg width="64" height="64" x="142" xmlns="http://www.w3.org/2000/svg"><path d="M14.933 63.728c-1.564-.262-5.564-1.155-8.889-1.984L0 60.237v-5.903c0-5.236.281-5.824 2.489-5.202C10.327 51.34 16.666 51.943 32 51.943s21.673-.603 29.511-2.811C63.718 48.51 64 49.097 64 54.308v5.878l-6.044 1.73c-4.368 1.25-10.778 1.808-23.112 2.009-9.386.153-18.346.064-19.91-.197zm0-14.7c-1.564-.261-5.564-1.153-8.889-1.982L0 45.538v-5.903c0-5.236.281-5.824 2.489-5.202C10.327 36.64 16.666 37.245 32 37.245s21.673-.604 29.511-2.812C63.718 33.81 64 34.398 64 39.61v5.878l-6.044 1.73c-4.368 1.25-10.778 1.807-23.112 2.008-9.386.153-18.346.065-19.91-.197zm0-14.698c-1.564-.262-5.564-1.154-8.889-1.983L0 30.84v-5.904c0-5.236.281-5.824 2.489-5.202 7.838 2.208 14.177 2.812 29.511 2.812s21.673-.604 29.511-2.812c2.207-.622 2.489-.035 2.489 5.177v5.878l-6.044 1.73c-4.368 1.25-10.778 1.807-23.112 2.008-9.386.154-18.346.065-19.91-.197zm0-14.699c-1.564-.262-5.564-1.154-8.889-1.983L0 16.141V3.726L6.756 1.93c9.68-2.573 40.808-2.573 50.488 0L64 3.726V16.09l-6.044 1.73c-4.368 1.25-10.778 1.807-23.112 2.009-9.386.153-18.346.064-19.91-.198zm28.92-14.966c1.513-.66 1.417-.955-.472-1.455-3.071-.812-19.69-.812-22.762 0C16.143 4.394 21.625 5.494 32 5.494c5.476 0 10.81-.373 11.853-.829z" fill="#d59541"/></svg><svg width="72" height="48" y="59" xmlns="http://www.w3.org/2000/svg"><path d="M10.246 37.265l10.735-10.734 7.51 7.46L36 41.45l7.51-7.46 7.51-7.46 10.734 10.735L72.488 48H-.488zM0 24V5.514l9.243 9.243L18.486 24l-9.243 9.243L0 42.486zm62.493 8.993l-8.965-9.007 9.236-9.236L72 5.514v18.243C72 33.79 71.878 42 71.73 42c-.15 0-4.306-4.053-9.237-9.007zM17.5 18L-.48 0h72.96L54.5 18C44.611 27.9 36.286 36 36 36c-.286 0-8.611-8.1-18.5-18z" fill="#d59541"/></svg><svg width="64" height="64" y="107" xmlns="http://www.w3.org/2000/svg"><path d="M.652 63.083C-.75 61.608.28 56.867 3.896 48.148l3.85-9.28h48.776l3.888 9.37c2.422 5.835 3.79 10.428 3.626 12.179l-.261 2.81-31.259.246c-17.192.136-31.53-.04-31.864-.39zm40.989-8.446c-.292-1.89-1.047-3.781-1.677-4.202-1.49-.993-14.171-.993-15.66 0-.63.42-1.385 2.311-1.677 4.202l-.53 3.437H42.17zM8.272 17.554L8.514-.481h47.24l.241 18.035.242 18.035H8.03zm42.58-.234V4.672H13.415v25.296H50.85z" fill="#d59541"/></svg><svg width="40" height="64" x="64" y="107" xmlns="http://www.w3.org/2000/svg"><path d="M2.068 61.945C.035 59.925 0 59.416 0 31.914V3.937l2.202-1.93C4.279.186 5.292.077 20.11.077c21.834 0 19.843-3.22 19.843 32.086v27.976l-2.202 1.93C35.674 63.892 34.66 64 19.843 64c-15.188 0-15.775-.068-17.775-2.055zm20.55-1.103c2.862-1.87 2.735-5.3-.264-7.134-2.203-1.347-2.553-1.347-4.756 0-2.998 1.834-3.125 5.264-.264 7.134 1.163.76 2.352 1.382 2.642 1.382.29 0 1.48-.622 2.642-1.382zm11.627-30.135V10.73H5.708v39.952h28.538z" fill="#d59541"/></svg><svg width="64" height="64" x="104" y="107" xmlns="http://www.w3.org/2000/svg"><path d="M5.663 62.609c0-.928-.895-1.392-2.685-1.392H.292v-5.565c0-4.328.299-5.565 1.343-5.565.995 0 1.343 1.082 1.343 4.174 0 3.092.348 4.174 1.342 4.174.995 0 1.343-1.082 1.343-4.174 0-3.092.348-4.174 1.343-4.174 1.074 0 1.342 1.391 1.342 6.956C8.348 62.61 8.08 64 7.006 64c-.739 0-1.343-.626-1.343-1.391zm11.1-2.69c-.27-.73-.362-2.51-.202-3.957l.29-2.629h47.441v7.42l-23.519.248c-19.74.208-23.597.034-24.01-1.081zM.293 45.914c0-.927.894-1.391 2.685-1.391 1.79 0 2.685-.464 2.685-1.392 0-.927-.895-1.39-2.685-1.39S.292 41.274.292 40.347c0-.928.895-1.391 2.686-1.391 1.79 0 2.685-.464 2.685-1.392 0-.927-.895-1.391-2.685-1.391S.292 35.71.292 34.783c0-1.031 1.045-1.392 4.028-1.392h4.028v13.913H4.32c-2.983 0-4.028-.36-4.028-1.391zm16.47-2.689c-.27-.73-.362-2.511-.202-3.957l.29-2.63h47.441v7.421l-23.519.247c-19.74.208-23.597.034-24.01-1.08zM.293 26.434c0-4.019.099-4.173 2.685-4.173 1.79 0 2.685-.464 2.685-1.391 0-.928-.895-1.392-2.685-1.392S.292 19.014.292 18.087c0-1.03 1.045-1.391 4.028-1.391h4.028v4.174c0 4.019-.1 4.173-2.685 4.173-1.79 0-2.685.464-2.685 1.392 0 .927.895 1.391 2.685 1.391s2.685.464 2.685 1.391c0 1.031-1.044 1.392-4.028 1.392H.292zm16.47.095c-.27-.731-.362-2.512-.202-3.958l.29-2.629h47.441v7.42l-23.519.248c-19.74.207-23.597.034-24.01-1.081zM2.978 8.348c0-4.329-.299-5.565-1.343-5.565-.738 0-1.343-.626-1.343-1.392C.292.464 1.187 0 2.978 0h2.685v6.957c0 5.565-.269 6.956-1.343 6.956-1.044 0-1.342-1.237-1.342-5.565zm13.785 1.485c-.27-.73-.362-2.512-.202-3.958l.29-2.629h47.441v7.42l-23.519.248c-19.74.208-23.597.034-24.01-1.081z" fill="#d59541"/></svg><svg width="64" height="48" x="72" y="59" xmlns="http://www.w3.org/2000/svg"><path d="M3.322 47.039c-3.594-2.155-3.526-3.553 1.136-23.451C8.281 7.275 9.251 4.218 11.271 2.14c2.89-2.974 3.965-2.995 11.864-.23 7.894 2.763 12.133 2.763 19.266 0 6.996-2.71 9.01-2.742 11.895-.187 1.949 1.725 2.85 4.464 6.424 19.525 4.84 20.4 5.094 23.452 2.115 25.461-1.926 1.3-2.355 1.276-5.85-.315-2.876-1.31-4.758-3.169-7.927-7.832-4.111-6.05-4.193-6.111-7.579-5.76-2.35.243-4.223-.162-5.975-1.292-2.502-1.614-2.607-1.613-5.367.063-2.005 1.217-3.762 1.58-6.1 1.256-3.25-.448-3.329-.388-7.267 5.545-2.876 4.332-4.988 6.499-7.604 7.802-4.152 2.07-3.895 2.031-5.844.863zm25.075-19.816c2.918-2.718.924-8.201-2.982-8.201-2.282 0-4.838 2.47-4.838 4.674 0 4.206 4.778 6.36 7.82 3.527zm15.347 0c2.918-2.718.924-8.201-2.982-8.201-2.282 0-4.837 2.47-4.837 4.674 0 4.206 4.777 6.36 7.82 3.527zm6.515-11.066c.34-1.813-2.122-3.035-3.421-1.698-1.299 1.337-.112 3.87 1.65 3.52.817-.161 1.614-.981 1.771-1.822zm-31.387-2.839c0-.724.576-1.316 1.28-1.316.703 0 1.278-.593 1.278-1.317s-.575-1.316-1.279-1.316c-.703 0-1.279-.592-1.279-1.316 0-.724-.575-1.316-1.279-1.316-.703 0-1.279.592-1.279 1.316 0 .724-.575 1.316-1.279 1.316-.703 0-1.278.592-1.278 1.316 0 .724.575 1.317 1.278 1.317.704 0 1.28.592 1.28 1.316 0 .724.575 1.316 1.278 1.316.704 0 1.28-.592 1.28-1.316zm26.271-2.426c.34-1.813-2.122-3.035-3.42-1.698-1.3 1.337-.112 3.87 1.65 3.52.816-.161 1.613-.981 1.77-1.822zm10.232 0c.34-1.813-2.122-3.035-3.421-1.698-1.3 1.337-.112 3.87 1.65 3.52.817-.161 1.614-.981 1.77-1.822zm-5.116-5.265c.34-1.814-2.122-3.036-3.421-1.699s-.112 3.87 1.65 3.521c.817-.161 1.614-.982 1.771-1.822z" fill="#d59541"/></svg><svg width="64" height="43" x="142" y="64" xmlns="http://www.w3.org/2000/svg"><path d="M4.24 40.495c-1.822-1.67-3.23-3.934-3.547-5.706-.71-3.956 1.484-9.185 4.654-11.085 1.994-1.195 2.636-2.335 3.037-5.396C9.634 8.786 16.003 1.954 25.037.445 31.47-.629 39.59 3.192 42.961 8.882c1.456 2.456 2.11 2.835 4.21 2.44 6.732-1.266 14.973 4.651 16.902 12.136 1.799 6.978-1.536 14.691-7.793 18.026-3.079 1.64-5.128 1.78-26.18 1.78H7.258z" fill="#d59541"/></svg></svg>