<svg width="209" height="177" xmlns="http://www.w3.org/2000/svg" xmlns:xlink="http://www.w3.org/1999/xlink"><svg width="145" height="65" viewBox="0 0 38.365 17.198" xmlns="http://www.w3.org/2000/svg"><defs><filter id="a" x="-.007" width="1.015" y="-.034" height="1.068" color-interpolation-filters="sRGB"><feGaussianBlur stdDeviation=".115"/></filter><filter id="b" x="-.007" width="1.013" y="-.111" height="1.222" color-interpolation-filters="sRGB"><feGaussianBlur stdDeviation=".106"/></filter></defs><g font-weight="400" font-family="Calibri" letter-spacing="0" word-spacing="0"><g style="line-height:1.25;-inkscape-font-specification:'Calibri, Normal';font-variant-ligatures:normal;font-variant-caps:normal;font-variant-numeric:normal;font-feature-settings:normal;text-align:start"><path d="M3.234 289.054q.02.065.028.11.007.04 0 .063-.01.02-.031.024-.02.003-.053-.004l-2.397-.418q-.03-.005-.062-.05-.03-.045-.06-.14l-.021-.08q-.006-.039-.005-.065.003-.027.009-.046.007-.022.022-.033l1.752-1.673q.051-.048.082-.023.034.025.071.149.024.076.032.123.01.045.01.077 0 .03-.014.05-.012.019-.039.044l-1.445 1.347 1.936.304q.04.008.063.018.025.007.045.033.018.023.035.07.02.043.042.12zm2.981-.968q.013.042.02.075.007.032.007.058.002.026-.003.047-.005.022-.024.056-.018.035-.086.116-.068.078-.178.17-.11.087-.262.171-.15.086-.342.145-.332.1-.635.072-.3-.03-.556-.188-.253-.16-.452-.445-.197-.288-.323-.702-.13-.425-.122-.79.01-.366.137-.655.128-.292.365-.497.24-.206.575-.308.147-.045.296-.058.148-.016.28-.01.13.006.24.033.109.028.154.054.048.023.064.038.016.016.03.04.015.022.028.055.015.033.03.08.016.053.022.092.006.038.003.068-.003.027-.015.045-.01.014-.031.02-.037.012-.118-.018-.082-.033-.206-.061-.122-.032-.288-.037-.163-.008-.372.056-.226.069-.385.218-.158.146-.236.363-.078.216-.074.495.006.274.105.601.099.325.244.554.146.226.327.356.182.126.399.155.215.027.455-.046.203-.062.338-.158.138-.096.225-.19.089-.095.142-.166.053-.071.093-.083.018-.006.034-.002.016.004.03.025.015.019.03.057.017.038.035.099zm2.93-1.741q.095.31.077.584-.015.27-.133.49-.117.22-.333.381-.216.16-.525.255-.282.085-.539.074-.257-.01-.471-.118-.215-.11-.378-.323-.162-.213-.258-.527l-.644-2.117q-.007-.021 0-.04.005-.02.029-.035.023-.019.064-.037.04-.02.108-.042.063-.019.11-.025.047-.008.074-.005.029 0 .044.013.015.013.022.034l.627 2.062q.072.237.184.396.112.159.256.245.146.082.317.096.174.01.366-.048.198-.06.333-.165.138-.105.208-.253.073-.149.076-.337.006-.19-.064-.419l-.634-2.085q-.007-.021 0-.04.005-.02.029-.035.023-.019.064-.037.042-.021.108-.042.063-.019.108-.024.046-.008.073-.005.029 0 .044.013.018.012.025.033zm2.83-.53q.073.24.04.455-.03.213-.148.393-.116.177-.31.308-.19.13-.436.204-.171.052-.328.068-.154.016-.283.008-.126-.008-.219-.028-.09-.022-.13-.044-.04-.022-.07-.065-.028-.046-.053-.128-.018-.058-.024-.096-.007-.042-.003-.069.003-.026.017-.04.012-.015.033-.021.037-.011.117.013.082.024.204.045.121.02.283.023.164 0 .36-.06.147-.045.256-.121.112-.078.177-.175.068-.101.083-.221t-.026-.255q-.044-.145-.141-.228-.097-.082-.229-.126-.132-.046-.29-.067-.158-.024-.323-.046-.166-.024-.328-.064t-.304-.118q-.141-.078-.255-.205-.112-.13-.175-.338-.065-.214-.039-.403.028-.193.13-.348.106-.156.278-.272.174-.12.395-.187.114-.034.234-.047.121-.017.232-.014.112 0 .204.019.091.015.123.035.034.015.046.029.012.01.025.033.011.019.024.05.012.03.027.08.015.048.02.087.01.037.01.066-.001.026-.013.044-.01.015-.029.02-.029.01-.103-.008-.072-.019-.175-.036-.104-.02-.24-.02-.133-.003-.286.044-.142.043-.236.115-.094.069-.143.153-.05.084-.057.182-.008.097.022.195.043.142.14.225.097.083.23.129.134.045.294.069l.326.047q.165.022.33.061.163.037.305.115.144.074.255.205.114.126.176.33zm2.065-3.097q.015.05.021.089.006.038 0 .066-.004.024-.02.04-.012.016-.033.022l-.96.292.9 2.959q.007.02.001.04-.006.019-.029.037-.024.016-.067.035-.04.02-.106.041-.063.02-.11.025-.047.008-.075.008-.03-.003-.045-.015-.016-.013-.022-.034l-.9-2.958-.96.292q-.021.006-.043 0-.019-.005-.036-.023-.018-.02-.037-.055-.016-.035-.031-.085-.016-.05-.022-.089-.004-.042 0-.069.003-.027.015-.042.016-.016.037-.023l2.373-.722q.02-.006.04 0 .022.005.04.025.02.02.037.058.017.035.032.085zm3.759.544q.106.42.093.781-.014.362-.15.65-.136.284-.4.488-.265.2-.66.3-.39.1-.705.057-.313-.045-.557-.22-.24-.175-.414-.48-.175-.306-.283-.733-.104-.409-.09-.768.015-.359.153-.642.138-.285.403-.486.264-.203.66-.303.381-.097.694-.054.312.043.555.217.246.171.42.474.175.3.281.719zm-.475.155q-.075-.294-.192-.532-.115-.24-.285-.394-.168-.156-.397-.21-.23-.052-.529.024-.299.076-.473.24-.175.163-.256.383-.078.219-.07.484.01.262.08.537.076.305.192.548.116.244.284.4.167.154.393.208.23.05.534-.027.302-.077.479-.241.177-.165.255-.386.076-.225.066-.49-.01-.264-.081-.544zm5.387 2.717q-.005.021-.02.034-.015.013-.045.016-.029.001-.073-.006-.042-.003-.108-.02-.061-.017-.104-.038-.041-.017-.066-.032-.02-.017-.027-.036-.007-.019 0-.04l.816-2.997h-.005l-2.046 2.675q-.014.017-.033.026-.017.01-.05.012-.028 0-.069-.007-.038-.005-.091-.02-.056-.014-.095-.03-.038-.017-.063-.032-.023-.018-.036-.036-.01-.016-.01-.034l-.352-3.33h-.003l-.817 2.997q-.006.02-.02.034-.016.013-.045.016-.029.001-.073-.006-.045-.004-.111-.021-.064-.018-.104-.037-.041-.017-.066-.032-.02-.018-.027-.036-.004-.019.002-.04l.863-3.164q.03-.112.102-.144.071-.032.143-.012l.276.075q.086.023.145.057.06.033.098.08.038.048.056.11.017.062.022.14l.318 2.764.013.004 1.714-2.201q.05-.072.1-.118.05-.047.099-.068.052-.023.106-.022.055-.002.121.016l.29.079q.04.01.071.033.034.021.051.054.02.031.025.075.006.042-.01.098zm1.375.374q-.006.022-.02.035-.016.013-.045.016-.029 0-.076-.006-.044-.004-.11-.021-.065-.018-.108-.038-.043-.018-.068-.033-.023-.018-.03-.037-.006-.019 0-.04l.9-3.302q.006-.022.02-.035.018-.012.047-.013.032-.003.076.004.048.004.109.021.066.018.107.038.043.017.067.035.025.016.03.034.007.02.001.04zm2.927.667q-.014.05-.03.086-.014.033-.034.053-.017.021-.039.027-.019.006-.043 0l-2.031-.554q-.07-.019-.1-.073-.031-.054-.006-.147l.027-.099.02-.063q.013-.028.035-.056.023-.03.058-.064.035-.036.085-.083l2.264-2.05-1.568-.428q-.027-.007-.043-.023-.015-.016-.023-.04-.004-.027 0-.063.005-.04.018-.087.014-.053.03-.089.015-.036.033-.057.02-.02.04-.026.022-.006.049.002l1.914.522q.072.02.1.073.032.052.01.137l-.03.104q-.01.042-.026.075-.014.03-.036.062-.023.03-.058.064-.032.034-.084.077l-2.253 2.042 1.68.458q.046.013.057.064.012.052-.017.156zm2.487.681q-.012.048-.028.083-.015.033-.034.054-.02.02-.042.026-.019.006-.04 0l-1.651-.45q-.061-.017-.106-.072-.042-.057-.014-.16l.837-3.07q.028-.103.092-.128.068-.028.129-.01l1.632.444q.022.006.035.02.015.017.02.043.004.027-.001.066-.002.037-.016.09-.013.048-.031.083-.015.033-.032.054-.017.018-.038.024-.019.006-.04 0l-1.346-.367-.294 1.08 1.154.315q.021.006.034.023.015.016.02.04.008.025.003.064-.005.038-.019.089-.013.048-.028.08-.014.034-.033.052-.017.018-.038.023-.018.004-.04-.002l-1.154-.314-.335 1.231 1.364.372q.021.006.034.02.016.016.023.044.007.025.002.064-.004.036-.018.089zm3.822-.658q-.122.446-.327.75-.205.301-.486.462-.277.159-.626.18-.35.023-.79-.098l-.73-.198q-.06-.017-.105-.072-.042-.057-.014-.16l.837-3.07q.028-.103.092-.128.068-.028.129-.011l.779.212q.447.122.723.323.277.199.425.473.152.273.174.61.025.338-.08.727zm-.486-.113q.076-.28.072-.537-.003-.261-.104-.477-.099-.216-.298-.376-.199-.16-.555-.257l-.466-.126-.73 2.677.471.128q.33.09.578.07.249-.021.447-.15.198-.13.342-.364.147-.237.243-.588zm.523 2.714q-.02.031-.044.045-.022.017-.051.02-.03.003-.07-.002-.04-.005-.095-.02-.067-.018-.11-.041-.04-.02-.058-.045-.02-.022-.018-.05.001-.026.026-.056l2.812-3.973q.02-.032.04-.046.025-.016.052-.02.03-.006.07.002.042.006.098.02.066.019.106.041.04.02.06.042.02.023.018.05-.002.029-.025.06zm4.984-.695q-.02.042-.042.074-.021.03-.041.051-.02.021-.04.03-.018.006-.036.006l-2.423.015q-.034 0-.055-.008-.02-.01-.023-.033-.002-.022.01-.059.014-.04.042-.096.035-.07.058-.11.023-.04.043-.062.023-.022.048-.028.024-.006.058-.005l1.98.008-1.203-1.549q-.025-.03-.039-.053-.01-.023-.006-.055t.022-.075q.02-.046.055-.118.032-.064.054-.096.023-.034.04-.044.022-.012.04 0 .019.013.038.041l1.46 1.946q.018.024.008.081-.006.056-.047.14z" style="-inkscape-font-specification:'Calibri, Normal';font-variant-ligatures:normal;font-variant-caps:normal;font-variant-numeric:normal;font-feature-settings:normal;text-align:start" aria-label="&lt;CUSTOMIZED/&gt;" transform="matrix(.99167 0 0 1.00062 -.228 -280.515)" font-size="5.644" opacity=".95" filter="url(#a)"/></g><path d="M1.09 291.761q0 .133-.024.243-.024.11-.082.188-.059.077-.155.12-.095.042-.236.042-.049 0-.097-.01-.046-.006-.086-.02-.04-.012-.069-.026-.03-.015-.04-.026l-.015-.02-.01-.024q-.004-.016-.006-.037l-.001-.053.001-.062q.004-.026.01-.04.008-.015.016-.02.01-.007.024-.007t.035.014l.052.027q.03.016.07.03.04.011.093.011.059 0 .1-.013.041-.016.069-.055.028-.04.041-.109.014-.07.014-.183v-1.595q0-.012.007-.022.007-.01.024-.017.017-.007.045-.01.03-.004.072-.004.042 0 .07.003.03.003.046.01.017.008.024.018.008.01.008.022zm1.742.433q0 .034-.004.058-.003.023-.012.04-.007.015-.019.024-.01.007-.025.007h-.986q-.04 0-.076-.026-.034-.028-.034-.095v-2.063q0-.014.007-.024t.024-.016q.017-.007.047-.01.029-.005.07-.005.043 0 .07.005.03.003.047.01.018.005.024.016.007.01.007.024v1.927h.8q.015 0 .025.01.012.006.02.022.008.013.011.038.004.024.004.058zm1.779-.186l-.001.048q-.002.02-.007.036-.004.015-.01.028-.008.012-.025.029t-.072.053q-.055.035-.138.07-.08.032-.188.054-.105.024-.23.024-.218 0-.393-.072-.174-.072-.298-.214-.123-.14-.19-.347-.065-.209-.065-.48 0-.277.07-.494.073-.217.202-.367.13-.151.308-.23.181-.08.4-.08.096 0 .188.02.091.016.168.044.078.028.138.064.06.036.083.06.024.022.031.035.007.012.01.029.005.015.007.038.004.022.004.053 0 .035-.004.059-.003.024-.01.041-.007.016-.017.024-.009.007-.023.007-.024 0-.067-.033-.043-.034-.112-.074-.067-.041-.165-.074-.097-.034-.233-.034-.148 0-.27.06-.12.059-.207.174-.086.116-.134.283-.047.165-.047.379 0 .211.045.375.046.162.13.272.087.109.211.166.124.055.28.055.133 0 .232-.033.1-.033.168-.072.071-.042.116-.074.045-.033.07-.033.013 0 .021.005.009.005.014.02.005.014.007.04.003.026.003.066zm2.069-.508q0 .203-.06.363-.059.158-.17.269-.11.11-.268.167-.158.056-.36.056-.184 0-.336-.053-.151-.053-.26-.157-.108-.105-.167-.262-.058-.156-.058-.361v-1.383q0-.014.006-.025.007-.01.025-.015.017-.007.044-.01.028-.005.073-.005.041 0 .07.005.03.003.045.01.017.005.024.015.007.01.007.025v1.347q0 .155.038.27.038.115.109.193.072.076.172.115.101.038.227.038.13 0 .23-.038t.17-.113q.07-.076.107-.188.037-.112.037-.262v-1.362q0-.014.007-.025.007-.01.024-.015.018-.007.045-.01.03-.005.073-.005.041 0 .069.005.029.003.044.01.018.005.024.015.009.01.009.025zm1.788.197q0 .157-.059.28-.056.122-.16.208-.101.084-.24.127-.139.044-.299.044-.112 0-.208-.02-.095-.018-.17-.046-.075-.027-.127-.057-.05-.029-.07-.05-.02-.02-.03-.051-.008-.033-.008-.086 0-.038.003-.062.004-.026.01-.042.008-.015.018-.02.01-.007.024-.007.024 0 .067.029.045.03.114.064t.165.065q.098.03.226.03.096 0 .176-.026.08-.026.137-.073.059-.048.09-.117t.031-.157q0-.094-.043-.161-.043-.068-.114-.118-.07-.051-.162-.093l-.184-.086q-.095-.044-.184-.098-.09-.053-.16-.126-.071-.072-.116-.168-.043-.099-.043-.235 0-.14.05-.248.052-.11.141-.184.092-.074.216-.112.125-.04.27-.04.074 0 .148.014.076.012.141.035.068.02.12.048.05.026.066.043.018.015.023.026.005.009.008.024.004.014.006.034l.001.054q0 .03-.003.055-.002.024-.007.041-.005.015-.016.024-.008.007-.02.007-.02 0-.06-.024-.04-.024-.099-.053-.058-.031-.14-.056-.078-.025-.178-.025-.093 0-.162.025-.07.025-.114.066-.045.041-.067.098-.023.057-.023.12 0 .094.044.161.043.067.113.119.073.052.164.095l.186.087q.095.044.186.097.091.052.162.124.072.07.115.169.045.096.045.229zm1.798-1.476q0 .033-.003.057t-.012.04q-.007.013-.019.02-.01.007-.024.007H9.58v1.933q0 .014-.007.024t-.024.017q-.017.005-.047.01-.027.004-.07.004-.042 0-.071-.005-.03-.003-.046-.009-.018-.007-.025-.017-.006-.01-.006-.024v-1.933h-.627q-.014 0-.026-.007-.01-.007-.018-.02-.006-.016-.012-.04-.003-.024-.003-.057 0-.032.003-.057.006-.025.012-.04.007-.016.018-.023.012-.007.026-.007h1.55q.014 0 .024.007.012.007.019.022.008.016.012.041.003.025.003.057zm2.097.961q0 .27-.064.488-.064.217-.191.37-.126.152-.317.235-.191.08-.446.08-.252 0-.436-.074-.183-.075-.303-.218-.12-.143-.178-.355-.058-.212-.058-.488 0-.263.063-.478.064-.216.192-.366.127-.151.318-.232.192-.083.446-.083.247 0 .43.074.182.074.303.217.122.141.18.352.06.208.06.478zm-.312.021q0-.19-.035-.351-.032-.164-.111-.283-.078-.12-.209-.188-.13-.067-.324-.067-.193 0-.324.073-.13.072-.213.193-.081.12-.117.282-.035.16-.035.338 0 .196.033.361.033.166.11.286.078.12.207.186.13.066.327.066.195 0 .327-.072.133-.073.214-.195.081-.124.115-.286.035-.162.035-.343zm3.204 1.075q0 .014-.007.024t-.024.017q-.017.005-.045.01-.026.004-.069.004-.04 0-.069-.005-.027-.003-.045-.009-.015-.007-.022-.017-.007-.01-.007-.024v-1.941h-.003l-.794 1.95q-.006.012-.016.02-.008.01-.027.016-.018.005-.043.007-.025.003-.059.003-.036 0-.062-.003-.026-.003-.043-.01-.017-.006-.028-.015-.008-.009-.012-.019l-.76-1.95h-.001v1.942q0 .013-.007.024-.007.01-.024.017-.017.005-.045.009-.027.005-.07.005-.042 0-.07-.005-.027-.003-.044-.009-.016-.007-.023-.017-.005-.01-.005-.024v-2.05q0-.072.038-.103t.085-.031h.179q.055 0 .096.01.042.01.073.033.03.022.051.056.02.035.036.081l.646 1.614h.009l.672-1.609q.019-.051.041-.087.022-.037.048-.057.028-.023.06-.031.033-.01.076-.01h.188q.026 0 .048.008.024.007.04.025.017.015.028.04.01.025.01.061zm1.791-.581q0 .157-.058.28-.057.122-.16.208-.102.084-.242.127-.137.044-.298.044-.112 0-.208-.02-.095-.018-.17-.046-.075-.027-.126-.057-.05-.029-.07-.05-.02-.02-.03-.051-.009-.033-.009-.086 0-.038.004-.062.003-.026.01-.042.007-.015.017-.02.01-.007.024-.007.024 0 .067.029.045.03.114.064.07.034.166.065.098.03.225.03.097 0 .176-.026.08-.026.138-.073.058-.048.09-.117.03-.069.03-.157 0-.094-.043-.161-.043-.068-.113-.118-.071-.051-.162-.093-.09-.043-.185-.086-.094-.044-.184-.098-.09-.053-.16-.126-.07-.072-.116-.168-.043-.099-.043-.235 0-.14.05-.248.052-.11.142-.184t.215-.112q.126-.04.27-.04.074 0 .148.014.076.012.142.035.067.02.119.048.051.026.067.043.017.015.022.026.005.009.009.024l.005.034q.002.02.002.054 0 .03-.004.055-.002.024-.007.041-.005.015-.015.024-.009.007-.02.007-.02 0-.061-.024-.04-.024-.098-.053-.059-.031-.14-.056-.08-.025-.179-.025-.093 0-.162.025t-.114.066q-.044.041-.067.098-.022.057-.022.12 0 .094.043.161t.114.119q.072.052.163.095l.186.087q.095.044.186.097.092.052.162.124.073.07.116.169.044.096.044.229zm2.29-.515q0 .27-.064.488-.064.217-.191.37-.126.152-.317.235-.191.08-.446.08-.252 0-.436-.074-.183-.075-.303-.218-.12-.143-.178-.355-.058-.212-.058-.488 0-.263.063-.478.064-.216.192-.366.127-.151.318-.232.191-.083.446-.083.247 0 .43.074.182.074.302.217.123.141.181.352.06.208.06.478zm-.312.021q0-.19-.035-.351-.032-.164-.112-.283-.077-.12-.208-.188-.13-.067-.324-.067-.193 0-.324.073-.13.072-.213.193-.081.12-.117.282-.035.16-.035.338 0 .196.033.361.033.166.11.286.078.12.207.186.13.066.327.066.195 0 .327-.072.133-.073.214-.195.08-.124.115-.286.035-.162.035-.343zm1.951-.982q0 .033-.003.057t-.012.04q-.009.013-.02.02-.011.007-.023.007H20.1v.758h.772q.012 0 .023.007.012.005.02.02.009.013.012.037.004.022.004.059 0 .032-.004.056-.003.023-.012.038-.008.014-.02.023-.01.007-.023.007H20.1v.928q0 .012-.006.024-.007.01-.025.018-.017.005-.044.009-.028.005-.073.005-.041 0-.07-.005-.03-.003-.047-.01-.017-.006-.024-.017-.007-.012-.007-.024v-2.063q0-.068.035-.093.036-.028.075-.028h1.003q.012 0 .022.007.012.007.02.022.01.016.013.042.003.024.003.057zm1.845 0q0 .033-.003.057t-.012.04q-.007.013-.02.02-.01.007-.023.007h-.627v1.933q0 .014-.007.024t-.024.017q-.018.005-.047.01-.027.004-.07.004-.042 0-.071-.005-.03-.003-.047-.009-.017-.007-.024-.017-.007-.01-.007-.024v-1.933h-.627q-.013 0-.025-.007-.01-.007-.018-.02-.007-.016-.012-.04-.003-.024-.003-.057 0-.032.003-.057.006-.025.012-.04.007-.016.018-.023.012-.007.025-.007h1.55q.015 0 .025.007.012.007.019.022.008.016.012.041.003.025.003.057zm2.46 2.036q-.007.024-.02.04-.014.014-.038.022-.025.007-.06.01-.035.004-.087.004-.053 0-.091-.003-.036-.003-.06-.01-.025-.01-.037-.023-.012-.016-.019-.04l-.466-1.683h-.004l-.43 1.683q-.006.024-.018.04-.012.014-.034.022-.022.007-.059.01-.034.004-.09.004-.056 0-.094-.003t-.062-.01q-.024-.01-.038-.023-.012-.016-.017-.04l-.59-2.058q-.01-.04-.011-.062 0-.023.013-.035.016-.012.049-.015.032-.003.088-.003.053 0 .084.003.031.002.046.009.018.007.023.019.007.012.01.031l.501 1.867h.002l.476-1.864q.005-.019.012-.03.008-.014.026-.021.017-.007.048-.01.032-.004.084-.004.048 0 .076.003.03.003.046.01.018.008.025.021.008.013.013.031l.512 1.864h.003l.491-1.865.01-.03q.006-.013.021-.02.017-.007.047-.01.03-.004.08-.004.052 0 .082.005.03.003.044.016.014.012.013.034 0 .023-.009.062zm2.518-.039q.014.038.014.062.002.022-.012.034-.014.012-.046.016-.031.003-.085.003-.053 0-.086-.003-.03-.002-.048-.007-.016-.007-.024-.018-.007-.01-.014-.025l-.191-.543h-.927l-.183.536q-.005.015-.013.027-.009.01-.026.02-.016.006-.047.01-.029.003-.077.003-.05 0-.083-.005-.03-.003-.045-.016-.012-.012-.012-.034.002-.024.016-.062l.747-2.07q.007-.02.018-.032.012-.012.032-.019.023-.007.055-.009.035-.003.087-.003.055 0 .09.003.037.002.06.01.022.006.034.02.012.012.019.03zm-.959-1.828h-.002l-.384 1.111h.775zm2.816 1.888q0 .014-.005.024t-.022.017q-.017.007-.048.01-.031.004-.083.004-.045 0-.074-.003-.028-.003-.045-.01-.017-.01-.028-.023-.008-.014-.015-.035l-.205-.525q-.036-.09-.076-.164-.038-.075-.091-.129-.054-.055-.126-.084-.072-.031-.174-.031h-.198v.949q0 .014-.009.024-.006.01-.024.017-.015.005-.044.01-.028.004-.071.004t-.072-.005q-.028-.003-.045-.009-.017-.007-.024-.017-.007-.01-.007-.024v-2.064q0-.067.034-.093.036-.027.076-.027h.474q.084 0 .14.005.056.003.1.009.13.022.228.07.1.049.167.123.068.074.1.17.035.095.035.21 0 .112-.031.202-.03.088-.086.157-.057.067-.137.117-.079.05-.177.084.055.024.1.062.045.036.083.088.04.052.074.119.034.067.069.152l.2.49q.024.062.03.088.007.024.007.038zm-.446-1.566q0-.13-.058-.22-.059-.092-.197-.131-.043-.012-.098-.017-.053-.005-.141-.005h-.25v.75h.29q.117 0 .201-.027.086-.03.143-.08.057-.05.083-.12.027-.069.027-.15zm2.116 1.488q0 .031-.004.056-.003.022-.012.037-.009.016-.02.023-.01.007-.025.007h-1.07q-.039 0-.075-.026-.035-.028-.035-.095v-1.987q0-.068.035-.093.036-.028.076-.028h1.057q.014 0 .024.007.012.007.02.022.006.016.01.04.005.022.005.057 0 .03-.005.055-.004.022-.01.038-.008.014-.02.02-.01.007-.024.007h-.871v.7h.747q.014 0 .024.009.012.007.02.02.008.014.011.038.004.025.004.057 0 .031-.004.054-.003.022-.012.036-.007.014-.019.02-.01.006-.024.006h-.747v.797h.883q.014 0 .024.007.012.007.021.022.009.014.012.038.004.023.004.057zm.816-.065q0 .122-.041.164-.04.04-.147.04-.103 0-.143-.04-.04-.04-.04-.159 0-.122.04-.162.042-.041.148-.041.104 0 .143.04.04.04.04.158zm2.239.065q0 .035-.012.06-.01.023-.029.039-.017.015-.04.022-.022.007-.044.007h-.095q-.045 0-.08-.009-.032-.01-.063-.034-.03-.026-.06-.07-.03-.042-.066-.11l-.703-1.267q-.055-.098-.112-.205-.055-.109-.103-.21h-.003l.005.253.002.256v1.346q0 .012-.007.024-.007.01-.025.017-.015.005-.043.01-.025.004-.067.004-.041 0-.069-.005-.025-.003-.041-.009-.015-.007-.022-.017-.007-.012-.007-.024v-2.057q0-.069.038-.098.038-.03.082-.03h.142q.05 0 .082.01.035.009.06.029.028.019.052.055.026.034.055.088l.541.978.097.176.09.167.084.164q.043.079.084.16h.002q-.004-.136-.005-.283v-1.493q0-.012.006-.022.007-.01.023-.018.017-.009.043-.012.027-.003.07-.003.038 0 .066.003.028.003.043.012.016.007.022.018.007.01.007.022zm1.837 0q0 .031-.004.056-.003.022-.012.037-.008.016-.02.023-.01.007-.025.007h-1.07q-.039 0-.075-.026-.035-.028-.035-.095v-1.987q0-.068.035-.093.036-.028.076-.028h1.057q.014 0 .024.007.012.007.02.022.006.016.01.04.005.022.005.057 0 .03-.005.055-.004.022-.01.038-.008.014-.02.02-.01.007-.024.007h-.871v.7h.747q.014 0 .024.009.012.007.02.02.008.014.011.038.004.025.004.057 0 .031-.004.054-.003.022-.012.036-.007.014-.019.02-.01.006-.024.006h-.747v.797h.883q.014 0 .024.007.012.007.021.022.009.014.012.038.004.023.004.057zm1.879-1.979q0 .033-.004.057-.003.024-.012.04-.006.013-.019.02-.01.007-.024.007h-.627v1.933q0 .014-.007.024t-.024.017q-.017.005-.046.01-.028.004-.07.004-.042 0-.071-.005-.03-.003-.047-.009-.017-.007-.024-.017-.007-.01-.007-.024v-1.933h-.627q-.014 0-.026-.007-.01-.007-.017-.02-.007-.016-.012-.04-.004-.024-.004-.057 0-.032.004-.057.005-.025.012-.04.007-.016.017-.023.012-.007.026-.007h1.55q.014 0 .024.007.012.007.02.022.008.016.011.041.004.025.004.057z" aria-label="JLCUSTOMSOFTWARE.NET" transform="matrix(.9841 0 0 .86896 .305 -241.49)" font-size="3.528" opacity=".95" filter="url(#b)"/><g style="line-height:1.25;-inkscape-font-specification:'Calibri, Normal';font-variant-ligatures:normal;font-variant-caps:normal;font-variant-numeric:normal;font-feature-settings:normal;text-align:start"><path d="M3.234 289.054q.02.065.028.11.007.04 0 .063-.01.02-.031.024-.02.003-.053-.004l-2.397-.418q-.03-.005-.062-.05-.03-.045-.06-.14l-.021-.08q-.006-.039-.005-.065.003-.027.009-.046.007-.022.022-.033l1.752-1.673q.051-.048.082-.023.034.025.071.149.024.076.032.123.01.045.01.077 0 .03-.014.05-.012.019-.039.044l-1.445 1.347 1.936.304q.04.008.063.018.025.007.045.033.018.023.035.07.02.043.042.12zm2.981-.968q.013.042.02.075.007.032.007.058.002.026-.003.047-.005.022-.024.056-.018.035-.086.116-.068.078-.178.17-.11.087-.262.171-.15.086-.342.145-.332.1-.635.072-.3-.03-.556-.188-.253-.16-.452-.445-.197-.288-.323-.702-.13-.425-.122-.79.01-.366.137-.655.128-.292.365-.497.24-.206.575-.308.147-.045.296-.058.148-.016.28-.01.13.006.24.033.109.028.154.054.048.023.064.038.016.016.03.04.015.022.028.055.015.033.03.08.016.053.022.092.006.038.003.068-.003.027-.015.045-.01.014-.031.02-.037.012-.118-.018-.082-.033-.206-.061-.122-.032-.288-.037-.163-.008-.372.056-.226.069-.385.218-.158.146-.236.363-.078.216-.074.495.006.274.105.601.099.325.244.554.146.226.327.356.182.126.399.155.215.027.455-.046.203-.062.338-.158.138-.096.225-.19.089-.095.142-.166.053-.071.093-.083.018-.006.034-.002.016.004.03.025.015.019.03.057.017.038.035.099zm2.93-1.741q.095.31.077.584-.015.27-.133.49-.117.22-.333.381-.216.16-.525.255-.282.085-.539.074-.257-.01-.471-.118-.215-.11-.378-.323-.162-.213-.258-.527l-.644-2.117q-.007-.021 0-.04.005-.02.029-.035.023-.019.064-.037.04-.02.108-.042.063-.019.11-.025.047-.008.074-.005.029 0 .044.013.015.013.022.034l.627 2.062q.072.237.184.396.112.159.256.245.146.082.317.096.174.01.366-.048.198-.06.333-.165.138-.105.208-.253.073-.149.076-.337.006-.19-.064-.419l-.634-2.085q-.007-.021 0-.04.005-.02.029-.035.023-.019.064-.037.042-.021.108-.042.063-.019.108-.024.046-.008.073-.005.029 0 .044.013.018.012.025.033zm2.83-.53q.073.24.04.455-.03.213-.148.393-.116.177-.31.308-.19.13-.436.204-.171.052-.328.068-.154.016-.283.008-.126-.008-.219-.028-.09-.022-.13-.044-.04-.022-.07-.065-.028-.046-.053-.128-.018-.058-.024-.096-.007-.042-.003-.069.003-.026.017-.04.012-.015.033-.021.037-.011.117.013.082.024.204.045.121.02.283.023.164 0 .36-.06.147-.045.256-.121.112-.078.177-.175.068-.101.083-.221t-.026-.255q-.044-.145-.141-.228-.097-.082-.229-.126-.132-.046-.29-.067-.158-.024-.323-.046-.166-.024-.328-.064t-.304-.118q-.141-.078-.255-.205-.112-.13-.175-.338-.065-.214-.039-.403.028-.193.13-.348.106-.156.278-.272.174-.12.395-.187.114-.034.234-.047.121-.017.232-.014.112 0 .204.019.091.015.123.035.034.015.046.029.012.01.025.033.011.019.024.05.012.03.027.08.015.048.02.087.01.037.01.066-.001.026-.013.044-.01.015-.029.02-.029.01-.103-.008-.072-.019-.175-.036-.104-.02-.24-.02-.133-.003-.286.044-.142.043-.236.115-.094.069-.143.153-.05.084-.057.182-.008.097.022.195.043.142.14.225.097.083.23.129.134.045.294.069l.326.047q.165.022.33.061.163.037.305.115.144.074.255.205.114.126.176.33zm2.065-3.097q.015.05.021.089.006.038 0 .066-.004.024-.02.04-.012.016-.033.022l-.96.292.9 2.959q.007.02.001.04-.006.019-.029.037-.024.016-.067.035-.04.02-.106.041-.063.02-.11.025-.047.008-.075.008-.03-.003-.045-.015-.016-.013-.022-.034l-.9-2.958-.96.292q-.021.006-.043 0-.019-.005-.036-.023-.018-.02-.037-.055-.016-.035-.031-.085-.016-.05-.022-.089-.004-.042 0-.069.003-.027.015-.042.016-.016.037-.023l2.373-.722q.02-.006.04 0 .022.005.04.025.02.02.037.058.017.035.032.085zm3.759.544q.106.42.093.781-.014.362-.15.65-.136.284-.4.488-.265.2-.66.3-.39.1-.705.057-.313-.045-.557-.22-.24-.175-.414-.48-.175-.306-.283-.733-.104-.409-.09-.768.015-.359.153-.642.138-.285.403-.486.264-.203.66-.303.381-.097.694-.054.312.043.555.217.246.171.42.474.175.3.281.719zm-.475.155q-.075-.294-.192-.532-.115-.24-.285-.394-.168-.156-.397-.21-.23-.052-.529.024-.299.076-.473.24-.175.163-.256.383-.078.219-.07.484.01.262.08.537.076.305.192.548.116.244.284.4.167.154.393.208.23.05.534-.027.302-.077.479-.241.177-.165.255-.386.076-.225.066-.49-.01-.264-.081-.544zm5.387 2.717q-.005.021-.02.034-.015.013-.045.016-.029.001-.073-.006-.042-.003-.108-.02-.061-.017-.104-.038-.041-.017-.066-.032-.02-.017-.027-.036-.007-.019 0-.04l.816-2.997h-.005l-2.046 2.675q-.014.017-.033.026-.017.01-.05.012-.028 0-.069-.007-.038-.005-.091-.02-.056-.014-.095-.03-.038-.017-.063-.032-.023-.018-.036-.036-.01-.016-.01-.034l-.352-3.33h-.003l-.817 2.997q-.006.02-.02.034-.016.013-.045.016-.029.001-.073-.006-.045-.004-.111-.021-.064-.018-.104-.037-.041-.017-.066-.032-.02-.018-.027-.036-.004-.019.002-.04l.863-3.164q.03-.112.102-.144.071-.032.143-.012l.276.075q.086.023.145.057.06.033.098.08.038.048.056.11.017.062.022.14l.318 2.764.013.004 1.714-2.201q.05-.072.1-.118.05-.047.099-.068.052-.023.106-.022.055-.002.121.016l.29.079q.04.01.071.033.034.021.051.054.02.031.025.075.006.042-.01.098zm1.375.374q-.006.022-.02.035-.016.013-.045.016-.029 0-.076-.006-.044-.004-.11-.021-.065-.018-.108-.038-.043-.018-.068-.033-.023-.018-.03-.037-.006-.019 0-.04l.9-3.302q.006-.022.02-.035.018-.012.047-.013.032-.003.076.004.048.004.109.021.066.018.107.038.043.017.067.035.025.016.03.034.007.02.001.04zm2.927.667q-.014.05-.03.086-.014.033-.034.053-.017.021-.039.027-.019.006-.043 0l-2.031-.554q-.07-.019-.1-.073-.031-.054-.006-.147l.027-.099.02-.063q.013-.028.035-.056.023-.03.058-.064.035-.036.085-.083l2.264-2.05-1.568-.428q-.027-.007-.043-.023-.015-.016-.023-.04-.004-.027 0-.063.005-.04.018-.087.014-.053.03-.089.015-.036.033-.057.02-.02.04-.026.022-.006.049.002l1.914.522q.072.02.1.073.032.052.01.137l-.03.104q-.01.042-.026.075-.014.03-.036.062-.023.03-.058.064-.032.034-.084.077l-2.253 2.042 1.68.458q.046.013.057.064.012.052-.017.156zm2.487.681q-.012.048-.028.083-.015.033-.034.054-.02.02-.042.026-.019.006-.04 0l-1.651-.45q-.061-.017-.106-.072-.042-.057-.014-.16l.837-3.07q.028-.103.092-.128.068-.028.129-.01l1.632.444q.022.006.035.02.015.017.02.043.004.027-.001.066-.002.037-.016.09-.013.048-.031.083-.015.033-.032.054-.017.018-.038.024-.019.006-.04 0l-1.346-.367-.294 1.08 1.154.315q.021.006.034.023.015.016.02.04.008.025.003.064-.005.038-.019.089-.013.048-.028.08-.014.034-.033.052-.017.018-.038.023-.018.004-.04-.002l-1.154-.314-.335 1.231 1.364.372q.021.006.034.02.016.016.023.044.007.025.002.064-.004.036-.018.089zm3.822-.658q-.122.446-.327.75-.205.301-.486.462-.277.159-.626.18-.35.023-.79-.098l-.73-.198q-.06-.017-.105-.072-.042-.057-.014-.16l.837-3.07q.028-.103.092-.128.068-.028.129-.011l.779.212q.447.122.723.323.277.199.425.473.152.273.174.61.025.338-.08.727zm-.486-.113q.076-.28.072-.537-.003-.261-.104-.477-.099-.216-.298-.376-.199-.16-.555-.257l-.466-.126-.73 2.677.471.128q.33.09.578.07.249-.021.447-.15.198-.13.342-.364.147-.237.243-.588zm.523 2.714q-.02.031-.044.045-.022.017-.051.02-.03.003-.07-.002-.04-.005-.095-.02-.067-.018-.11-.041-.04-.02-.058-.045-.02-.022-.018-.05.001-.026.026-.056l2.812-3.973q.02-.032.04-.046.025-.016.052-.02.03-.006.07.002.042.006.098.02.066.019.106.041.04.02.06.042.02.023.018.05-.002.029-.025.06zm4.984-.695q-.02.042-.042.074-.021.03-.041.051-.02.021-.04.03-.018.006-.036.006l-2.423.015q-.034 0-.055-.008-.02-.01-.023-.033-.002-.022.01-.059.014-.04.042-.096.035-.07.058-.11.023-.04.043-.062.023-.022.048-.028.024-.006.058-.005l1.98.008-1.203-1.549q-.025-.03-.039-.053-.01-.023-.006-.055t.022-.075q.02-.046.055-.118.032-.064.054-.096.023-.034.04-.044.022-.012.04 0 .019.013.038.041l1.46 1.946q.018.024.008.081-.006.056-.047.14z" style="-inkscape-font-specification:'Calibri, Normal';font-variant-ligatures:normal;font-variant-caps:normal;font-variant-numeric:normal;font-feature-settings:normal;text-align:start" transform="matrix(1.00345 0 0 1.00005 -.399 -280.679)" aria-label="&lt;CUSTOMIZED/&gt;" font-size="5.644" fill="#f60" stroke="#000" stroke-width=".107"/></g><path d="M1.09 291.761q0 .133-.024.243-.024.11-.082.188-.059.077-.155.12-.095.042-.236.042-.049 0-.097-.01-.046-.006-.086-.02-.04-.012-.069-.026-.03-.015-.04-.026l-.015-.02-.01-.024q-.004-.016-.006-.037l-.001-.053.001-.062q.004-.026.01-.04.008-.015.016-.02.01-.007.024-.007t.035.014l.052.027q.03.016.07.03.04.011.093.011.059 0 .1-.013.041-.016.069-.055.028-.04.041-.109.014-.07.014-.183v-1.595q0-.012.007-.022.007-.01.024-.017.017-.007.045-.01.03-.004.072-.004.042 0 .07.003.03.003.046.01.017.008.024.018.008.01.008.022zm1.742.433q0 .034-.004.058-.003.023-.012.04-.007.015-.019.024-.01.007-.025.007h-.986q-.04 0-.076-.026-.034-.028-.034-.095v-2.063q0-.014.007-.024t.024-.016q.017-.007.047-.01.029-.005.07-.005.043 0 .07.005.03.003.047.01.018.005.024.016.007.01.007.024v1.927h.8q.015 0 .025.01.012.006.02.022.008.013.011.038.004.024.004.058zm1.779-.186l-.001.048q-.002.02-.007.036-.004.015-.01.028-.008.012-.025.029t-.072.053q-.055.035-.138.07-.08.032-.188.054-.105.024-.23.024-.218 0-.393-.072-.174-.072-.298-.214-.123-.14-.19-.347-.065-.209-.065-.48 0-.277.07-.494.073-.217.202-.367.13-.151.308-.23.181-.08.4-.08.096 0 .188.02.091.016.168.044.078.028.138.064.06.036.083.06.024.022.031.035.007.012.01.029.005.015.007.038.004.022.004.053 0 .035-.004.059-.003.024-.01.041-.007.016-.017.024-.009.007-.023.007-.024 0-.067-.033-.043-.034-.112-.074-.067-.041-.165-.074-.097-.034-.233-.034-.148 0-.27.06-.12.059-.207.174-.086.116-.134.283-.047.165-.047.379 0 .211.045.375.046.162.13.272.087.109.211.166.124.055.28.055.133 0 .232-.033.1-.033.168-.072.071-.042.116-.074.045-.033.07-.033.013 0 .021.005.009.005.014.02.005.014.007.04.003.026.003.066zm2.069-.508q0 .203-.06.363-.059.158-.17.269-.11.11-.268.167-.158.056-.36.056-.184 0-.336-.053-.151-.053-.26-.157-.108-.105-.167-.262-.058-.156-.058-.361v-1.383q0-.014.006-.025.007-.01.025-.015.017-.007.044-.01.028-.005.073-.005.041 0 .07.005.03.003.045.01.017.005.024.015.007.01.007.025v1.347q0 .155.038.27.038.115.109.193.072.076.172.115.101.038.227.038.13 0 .23-.038t.17-.113q.07-.076.107-.188.037-.112.037-.262v-1.362q0-.014.007-.025.007-.01.024-.015.018-.007.045-.01.03-.005.073-.005.041 0 .069.005.029.003.044.01.018.005.024.015.009.01.009.025zm1.788.197q0 .157-.059.28-.056.122-.16.208-.101.084-.24.127-.139.044-.299.044-.112 0-.208-.02-.095-.018-.17-.046-.075-.027-.127-.057-.05-.029-.07-.05-.02-.02-.03-.051-.008-.033-.008-.086 0-.038.003-.062.004-.026.01-.042.008-.015.018-.02.01-.007.024-.007.024 0 .067.029.045.03.114.064t.165.065q.098.03.226.03.096 0 .176-.026.08-.026.137-.073.059-.048.09-.117t.031-.157q0-.094-.043-.161-.043-.068-.114-.118-.07-.051-.162-.093l-.184-.086q-.095-.044-.184-.098-.09-.053-.16-.126-.071-.072-.116-.168-.043-.099-.043-.235 0-.14.05-.248.052-.11.141-.184.092-.074.216-.112.125-.04.27-.04.074 0 .148.014.076.012.141.035.068.02.12.048.05.026.066.043.018.015.023.026.005.009.008.024.004.014.006.034l.001.054q0 .03-.003.055-.002.024-.007.041-.005.015-.016.024-.008.007-.02.007-.02 0-.06-.024-.04-.024-.099-.053-.058-.031-.14-.056-.078-.025-.178-.025-.093 0-.162.025-.07.025-.114.066-.045.041-.067.098-.023.057-.023.12 0 .094.044.161.043.067.113.119.073.052.164.095l.186.087q.095.044.186.097.091.052.162.124.072.07.115.169.045.096.045.229zm1.798-1.476q0 .033-.003.057t-.012.04q-.007.013-.019.02-.01.007-.024.007H9.58v1.933q0 .014-.007.024t-.024.017q-.017.005-.047.01-.027.004-.07.004-.042 0-.071-.005-.03-.003-.046-.009-.018-.007-.025-.017-.006-.01-.006-.024v-1.933h-.627q-.014 0-.026-.007-.01-.007-.018-.02-.006-.016-.012-.04-.003-.024-.003-.057 0-.032.003-.057.006-.025.012-.04.007-.016.018-.023.012-.007.026-.007h1.55q.014 0 .024.007.012.007.019.022.008.016.012.041.003.025.003.057zm2.097.961q0 .27-.064.488-.064.217-.191.37-.126.152-.317.235-.191.08-.446.08-.252 0-.436-.074-.183-.075-.303-.218-.12-.143-.178-.355-.058-.212-.058-.488 0-.263.063-.478.064-.216.192-.366.127-.151.318-.232.192-.083.446-.083.247 0 .43.074.182.074.303.217.122.141.18.352.06.208.06.478zm-.312.021q0-.19-.035-.351-.032-.164-.111-.283-.078-.12-.209-.188-.13-.067-.324-.067-.193 0-.324.073-.13.072-.213.193-.081.12-.117.282-.035.16-.035.338 0 .196.033.361.033.166.11.286.078.12.207.186.13.066.327.066.195 0 .327-.072.133-.073.214-.195.081-.124.115-.286.035-.162.035-.343zm3.204 1.075q0 .014-.007.024t-.024.017q-.017.005-.045.01-.026.004-.069.004-.04 0-.069-.005-.027-.003-.045-.009-.015-.007-.022-.017-.007-.01-.007-.024v-1.941h-.003l-.794 1.95q-.006.012-.016.02-.008.01-.027.016-.018.005-.043.007-.025.003-.059.003-.036 0-.062-.003-.026-.003-.043-.01-.017-.006-.028-.015-.008-.009-.012-.019l-.76-1.95h-.001v1.942q0 .013-.007.024-.007.01-.024.017-.017.005-.045.009-.027.005-.07.005-.042 0-.07-.005-.027-.003-.044-.009-.016-.007-.023-.017-.005-.01-.005-.024v-2.05q0-.072.038-.103t.085-.031h.179q.055 0 .096.01.042.01.073.033.03.022.051.056.02.035.036.081l.646 1.614h.009l.672-1.609q.019-.051.041-.087.022-.037.048-.057.028-.023.06-.031.033-.01.076-.01h.188q.026 0 .048.008.024.007.04.025.017.015.028.04.01.025.01.061zm1.791-.581q0 .157-.058.28-.057.122-.16.208-.102.084-.242.127-.137.044-.298.044-.112 0-.208-.02-.095-.018-.17-.046-.075-.027-.126-.057-.05-.029-.07-.05-.02-.02-.03-.051-.009-.033-.009-.086 0-.038.004-.062.003-.026.01-.042.007-.015.017-.02.01-.007.024-.007.024 0 .067.029.045.03.114.064.07.034.166.065.098.03.225.03.097 0 .176-.026.08-.026.138-.073.058-.048.09-.117.03-.069.03-.157 0-.094-.043-.161-.043-.068-.113-.118-.071-.051-.162-.093-.09-.043-.185-.086-.094-.044-.184-.098-.09-.053-.16-.126-.07-.072-.116-.168-.043-.099-.043-.235 0-.14.05-.248.052-.11.142-.184t.215-.112q.126-.04.27-.04.074 0 .148.014.076.012.142.035.067.02.119.048.051.026.067.043.017.015.022.026.005.009.009.024l.005.034q.002.02.002.054 0 .03-.004.055-.002.024-.007.041-.005.015-.015.024-.009.007-.02.007-.02 0-.061-.024-.04-.024-.098-.053-.059-.031-.14-.056-.08-.025-.179-.025-.093 0-.162.025t-.114.066q-.044.041-.067.098-.022.057-.022.12 0 .094.043.161t.114.119q.072.052.163.095l.186.087q.095.044.186.097.092.052.162.124.073.07.116.169.044.096.044.229zm2.29-.515q0 .27-.064.488-.064.217-.191.37-.126.152-.317.235-.191.08-.446.08-.252 0-.436-.074-.183-.075-.303-.218-.12-.143-.178-.355-.058-.212-.058-.488 0-.263.063-.478.064-.216.192-.366.127-.151.318-.232.191-.083.446-.083.247 0 .43.074.182.074.302.217.123.141.181.352.06.208.06.478zm-.312.021q0-.19-.035-.351-.032-.164-.112-.283-.077-.12-.208-.188-.13-.067-.324-.067-.193 0-.324.073-.13.072-.213.193-.081.12-.117.282-.035.16-.035.338 0 .196.033.361.033.166.11.286.078.12.207.186.13.066.327.066.195 0 .327-.072.133-.073.214-.195.08-.124.115-.286.035-.162.035-.343zm1.951-.982q0 .033-.003.057t-.012.04q-.009.013-.02.02-.011.007-.023.007H20.1v.758h.772q.012 0 .023.007.012.005.02.02.009.013.012.037.004.022.004.059 0 .032-.004.056-.003.023-.012.038-.008.014-.02.023-.01.007-.023.007H20.1v.928q0 .012-.006.024-.007.01-.025.018-.017.005-.044.009-.028.005-.073.005-.041 0-.07-.005-.03-.003-.047-.01-.017-.006-.024-.017-.007-.012-.007-.024v-2.063q0-.068.035-.093.036-.028.075-.028h1.003q.012 0 .022.007.012.007.02.022.01.016.013.042.003.024.003.057zm1.845 0q0 .033-.003.057t-.012.04q-.007.013-.02.02-.01.007-.023.007h-.627v1.933q0 .014-.007.024t-.024.017q-.018.005-.047.01-.027.004-.07.004-.042 0-.071-.005-.03-.003-.047-.009-.017-.007-.024-.017-.007-.01-.007-.024v-1.933h-.627q-.013 0-.025-.007-.01-.007-.018-.02-.007-.016-.012-.04-.003-.024-.003-.057 0-.032.003-.057.006-.025.012-.04.007-.016.018-.023.012-.007.025-.007h1.55q.015 0 .025.007.012.007.019.022.008.016.012.041.003.025.003.057zm2.46 2.036q-.007.024-.02.04-.014.014-.038.022-.025.007-.06.01-.035.004-.087.004-.053 0-.091-.003-.036-.003-.06-.01-.025-.01-.037-.023-.012-.016-.019-.04l-.466-1.683h-.004l-.43 1.683q-.006.024-.018.04-.012.014-.034.022-.022.007-.059.01-.034.004-.09.004-.056 0-.094-.003t-.062-.01q-.024-.01-.038-.023-.012-.016-.017-.04l-.59-2.058q-.01-.04-.011-.062 0-.023.013-.035.016-.012.049-.015.032-.003.088-.003.053 0 .084.003.031.002.046.009.018.007.023.019.007.012.01.031l.501 1.867h.002l.476-1.864q.005-.019.012-.03.008-.014.026-.021.017-.007.048-.01.032-.004.084-.004.048 0 .076.003.03.003.046.01.018.008.025.021.008.013.013.031l.512 1.864h.003l.491-1.865.01-.03q.006-.013.021-.02.017-.007.047-.01.03-.004.08-.004.052 0 .082.005.03.003.044.016.014.012.013.034 0 .023-.009.062zm2.518-.039q.014.038.014.062.002.022-.012.034-.014.012-.046.016-.031.003-.085.003-.053 0-.086-.003-.03-.002-.048-.007-.016-.007-.024-.018-.007-.01-.014-.025l-.191-.543h-.927l-.183.536q-.005.015-.013.027-.009.01-.026.02-.016.006-.047.01-.029.003-.077.003-.05 0-.083-.005-.03-.003-.045-.016-.012-.012-.012-.034.002-.024.016-.062l.747-2.07q.007-.02.018-.032.012-.012.032-.019.023-.007.055-.009.035-.003.087-.003.055 0 .09.003.037.002.06.01.022.006.034.02.012.012.019.03zm-.959-1.828h-.002l-.384 1.111h.775zm2.816 1.888q0 .014-.005.024t-.022.017q-.017.007-.048.01-.031.004-.083.004-.045 0-.074-.003-.028-.003-.045-.01-.017-.01-.028-.023-.008-.014-.015-.035l-.205-.525q-.036-.09-.076-.164-.038-.075-.091-.129-.054-.055-.126-.084-.072-.031-.174-.031h-.198v.949q0 .014-.009.024-.006.01-.024.017-.015.005-.044.01-.028.004-.071.004t-.072-.005q-.028-.003-.045-.009-.017-.007-.024-.017-.007-.01-.007-.024v-2.064q0-.067.034-.093.036-.027.076-.027h.474q.084 0 .14.005.056.003.1.009.13.022.228.07.1.049.167.123.068.074.1.17.035.095.035.21 0 .112-.031.202-.03.088-.086.157-.057.067-.137.117-.079.05-.177.084.055.024.1.062.045.036.083.088.04.052.074.119.034.067.069.152l.2.49q.024.062.03.088.007.024.007.038zm-.446-1.566q0-.13-.058-.22-.059-.092-.197-.131-.043-.012-.098-.017-.053-.005-.141-.005h-.25v.75h.29q.117 0 .201-.027.086-.03.143-.08.057-.05.083-.12.027-.069.027-.15zm2.116 1.488q0 .031-.004.056-.003.022-.012.037-.009.016-.02.023-.01.007-.025.007h-1.07q-.039 0-.075-.026-.035-.028-.035-.095v-1.987q0-.068.035-.093.036-.028.076-.028h1.057q.014 0 .024.007.012.007.02.022.006.016.01.04.005.022.005.057 0 .03-.005.055-.004.022-.01.038-.008.014-.02.02-.01.007-.024.007h-.871v.7h.747q.014 0 .024.009.012.007.02.02.008.014.011.038.004.025.004.057 0 .031-.004.054-.003.022-.012.036-.007.014-.019.02-.01.006-.024.006h-.747v.797h.883q.014 0 .024.007.012.007.021.022.009.014.012.038.004.023.004.057zm.816-.065q0 .122-.041.164-.04.04-.147.04-.103 0-.143-.04-.04-.04-.04-.159 0-.122.04-.162.042-.041.148-.041.104 0 .143.04.04.04.04.158zm2.239.065q0 .035-.012.06-.01.023-.029.039-.017.015-.04.022-.022.007-.044.007h-.095q-.045 0-.08-.009-.032-.01-.063-.034-.03-.026-.06-.07-.03-.042-.066-.11l-.703-1.267q-.055-.098-.112-.205-.055-.109-.103-.21h-.003l.005.253.002.256v1.346q0 .012-.007.024-.007.01-.025.017-.015.005-.043.01-.025.004-.067.004-.041 0-.069-.005-.025-.003-.041-.009-.015-.007-.022-.017-.007-.012-.007-.024v-2.057q0-.069.038-.098.038-.03.082-.03h.142q.05 0 .082.01.035.009.06.029.028.019.052.055.026.034.055.088l.541.978.097.176.09.167.084.164q.043.079.084.16h.002q-.004-.136-.005-.283v-1.493q0-.012.006-.022.007-.01.023-.018.017-.009.043-.012.027-.003.07-.003.038 0 .066.003.028.003.043.012.016.007.022.018.007.01.007.022zm1.837 0q0 .031-.004.056-.003.022-.012.037-.008.016-.02.023-.01.007-.025.007h-1.07q-.039 0-.075-.026-.035-.028-.035-.095v-1.987q0-.068.035-.093.036-.028.076-.028h1.057q.014 0 .024.007.012.007.02.022.006.016.01.04.005.022.005.057 0 .03-.005.055-.004.022-.01.038-.008.014-.02.02-.01.007-.024.007h-.871v.7h.747q.014 0 .024.009.012.007.02.02.008.014.011.038.004.025.004.057 0 .031-.004.054-.003.022-.012.036-.007.014-.019.02-.01.006-.024.006h-.747v.797h.883q.014 0 .024.007.012.007.021.022.009.014.012.038.004.023.004.057zm1.879-1.979q0 .033-.004.057-.003.024-.012.04-.006.013-.019.02-.01.007-.024.007h-.627v1.933q0 .014-.007.024t-.024.017q-.017.005-.046.01-.028.004-.07.004-.042 0-.071-.005-.03-.003-.047-.009-.017-.007-.024-.017-.007-.01-.007-.024v-1.933h-.627q-.014 0-.026-.007-.01-.007-.017-.02-.007-.016-.012-.04-.004-.024-.004-.057 0-.032.004-.057.005-.025.012-.04.007-.016.017-.023.012-.007.026-.007h1.55q.014 0 .024.007.012.007.02.022.008.016.011.041.004.025.004.057z" transform="matrix(.9841 0 0 .86896 .166 -241.662)" aria-label="JLCUSTOMSOFTWARE.NET" font-size="3.528" fill="#d45500" stroke="#000" stroke-width=".093"/></g></svg><svg width="64" height="64" x="145" xmlns="http://www.w3.org/2000/svg"><path d="M14.933 63.728c-1.564-.262-5.564-1.155-8.889-1.984L0 60.237v-5.903c0-5.236.281-5.824 2.489-5.202C10.327 51.34 16.666 51.943 32 51.943s21.673-.603 29.511-2.811C63.718 48.51 64 49.097 64 54.308v5.878l-6.044 1.73c-4.368 1.25-10.778 1.808-23.112 2.009-9.386.153-18.346.064-19.91-.197zm0-14.7c-1.564-.261-5.564-1.153-8.889-1.982L0 45.538v-5.903c0-5.236.281-5.824 2.489-5.202C10.327 36.64 16.666 37.245 32 37.245s21.673-.604 29.511-2.812C63.718 33.81 64 34.398 64 39.61v5.878l-6.044 1.73c-4.368 1.25-10.778 1.807-23.112 2.008-9.386.153-18.346.065-19.91-.197zm0-14.698c-1.564-.262-5.564-1.154-8.889-1.983L0 30.84v-5.904c0-5.236.281-5.824 2.489-5.202 7.838 2.208 14.177 2.812 29.511 2.812s21.673-.604 29.511-2.812c2.207-.622 2.489-.035 2.489 5.177v5.878l-6.044 1.73c-4.368 1.25-10.778 1.807-23.112 2.008-9.386.154-18.346.065-19.91-.197zm0-14.699c-1.564-.262-5.564-1.154-8.889-1.983L0 16.141V3.726L6.756 1.93c9.68-2.573 40.808-2.573 50.488 0L64 3.726V16.09l-6.044 1.73c-4.368 1.25-10.778 1.807-23.112 2.009-9.386.153-18.346.064-19.91-.198zm28.92-14.966c1.513-.66 1.417-.955-.472-1.455-3.071-.812-19.69-.812-22.762 0C16.143 4.394 21.625 5.494 32 5.494c5.476 0 10.81-.373 11.853-.829z" fill="#d59541"/></svg><svg width="72" height="48" y="65" xmlns="http://www.w3.org/2000/svg"><path d="M10.246 37.265l10.735-10.734 7.51 7.46L36 41.45l7.51-7.46 7.51-7.46 10.734 10.735L72.488 48H-.488zM0 24V5.514l9.243 9.243L18.486 24l-9.243 9.243L0 42.486zm62.493 8.993l-8.965-9.007 9.236-9.236L72 5.514v18.243C72 33.79 71.878 42 71.73 42c-.15 0-4.306-4.053-9.237-9.007zM17.5 18L-.48 0h72.96L54.5 18C44.611 27.9 36.286 36 36 36c-.286 0-8.611-8.1-18.5-18z" fill="#d59541"/></svg><svg width="64" height="64" y="113" xmlns="http://www.w3.org/2000/svg"><path d="M.652 63.083C-.75 61.608.28 56.867 3.896 48.148l3.85-9.28h48.776l3.888 9.37c2.422 5.835 3.79 10.428 3.626 12.179l-.261 2.81-31.259.246c-17.192.136-31.53-.04-31.864-.39zm40.989-8.446c-.292-1.89-1.047-3.781-1.677-4.202-1.49-.993-14.171-.993-15.66 0-.63.42-1.385 2.311-1.677 4.202l-.53 3.437H42.17zM8.272 17.554L8.514-.481h47.24l.241 18.035.242 18.035H8.03zm42.58-.234V4.672H13.415v25.296H50.85z" fill="#d59541"/></svg><svg width="40" height="64" x="64" y="113" xmlns="http://www.w3.org/2000/svg"><path d="M2.068 61.945C.035 59.925 0 59.416 0 31.914V3.937l2.202-1.93C4.279.186 5.292.077 20.11.077c21.834 0 19.843-3.22 19.843 32.086v27.976l-2.202 1.93C35.674 63.892 34.66 64 19.843 64c-15.188 0-15.775-.068-17.775-2.055zm20.55-1.103c2.862-1.87 2.735-5.3-.264-7.134-2.203-1.347-2.553-1.347-4.756 0-2.998 1.834-3.125 5.264-.264 7.134 1.163.76 2.352 1.382 2.642 1.382.29 0 1.48-.622 2.642-1.382zm11.627-30.135V10.73H5.708v39.952h28.538z" fill="#d59541"/></svg><svg width="64" height="64" x="104" y="113" xmlns="http://www.w3.org/2000/svg"><path d="M5.663 62.609c0-.928-.895-1.392-2.685-1.392H.292v-5.565c0-4.328.299-5.565 1.343-5.565.995 0 1.343 1.082 1.343 4.174 0 3.092.348 4.174 1.342 4.174.995 0 1.343-1.082 1.343-4.174 0-3.092.348-4.174 1.343-4.174 1.074 0 1.342 1.391 1.342 6.956C8.348 62.61 8.08 64 7.006 64c-.739 0-1.343-.626-1.343-1.391zm11.1-2.69c-.27-.73-.362-2.51-.202-3.957l.29-2.629h47.441v7.42l-23.519.248c-19.74.208-23.597.034-24.01-1.081zM.293 45.914c0-.927.894-1.391 2.685-1.391 1.79 0 2.685-.464 2.685-1.392 0-.927-.895-1.39-2.685-1.39S.292 41.274.292 40.347c0-.928.895-1.391 2.686-1.391 1.79 0 2.685-.464 2.685-1.392 0-.927-.895-1.391-2.685-1.391S.292 35.71.292 34.783c0-1.031 1.045-1.392 4.028-1.392h4.028v13.913H4.32c-2.983 0-4.028-.36-4.028-1.391zm16.47-2.689c-.27-.73-.362-2.511-.202-3.957l.29-2.63h47.441v7.421l-23.519.247c-19.74.208-23.597.034-24.01-1.08zM.293 26.434c0-4.019.099-4.173 2.685-4.173 1.79 0 2.685-.464 2.685-1.391 0-.928-.895-1.392-2.685-1.392S.292 19.014.292 18.087c0-1.03 1.045-1.391 4.028-1.391h4.028v4.174c0 4.019-.1 4.173-2.685 4.173-1.79 0-2.685.464-2.685 1.392 0 .927.895 1.391 2.685 1.391s2.685.464 2.685 1.391c0 1.031-1.044 1.392-4.028 1.392H.292zm16.47.095c-.27-.731-.362-2.512-.202-3.958l.29-2.629h47.441v7.42l-23.519.248c-19.74.207-23.597.034-24.01-1.081zM2.978 8.348c0-4.329-.299-5.565-1.343-5.565-.738 0-1.343-.626-1.343-1.392C.292.464 1.187 0 2.978 0h2.685v6.957c0 5.565-.269 6.956-1.343 6.956-1.044 0-1.342-1.237-1.342-5.565zm13.785 1.485c-.27-.73-.362-2.512-.202-3.958l.29-2.629h47.441v7.42l-23.519.248c-19.74.208-23.597.034-24.01-1.081z" fill="#d59541"/></svg><svg width="64" height="48" x="145" y="64" xmlns="http://www.w3.org/2000/svg"><path d="M3.322 47.039c-3.594-2.155-3.526-3.553 1.136-23.451C8.281 7.275 9.251 4.218 11.271 2.14c2.89-2.974 3.965-2.995 11.864-.23 7.894 2.763 12.133 2.763 19.266 0 6.996-2.71 9.01-2.742 11.895-.187 1.949 1.725 2.85 4.464 6.424 19.525 4.84 20.4 5.094 23.452 2.115 25.461-1.926 1.3-2.355 1.276-5.85-.315-2.876-1.31-4.758-3.169-7.927-7.832-4.111-6.05-4.193-6.111-7.579-5.76-2.35.243-4.223-.162-5.975-1.292-2.502-1.614-2.607-1.613-5.367.063-2.005 1.217-3.762 1.58-6.1 1.256-3.25-.448-3.329-.388-7.267 5.545-2.876 4.332-4.988 6.499-7.604 7.802-4.152 2.07-3.895 2.031-5.844.863zm25.075-19.816c2.918-2.718.924-8.201-2.982-8.201-2.282 0-4.838 2.47-4.838 4.674 0 4.206 4.778 6.36 7.82 3.527zm15.347 0c2.918-2.718.924-8.201-2.982-8.201-2.282 0-4.837 2.47-4.837 4.674 0 4.206 4.777 6.36 7.82 3.527zm6.515-11.066c.34-1.813-2.122-3.035-3.421-1.698-1.299 1.337-.112 3.87 1.65 3.52.817-.161 1.614-.981 1.771-1.822zm-31.387-2.839c0-.724.576-1.316 1.28-1.316.703 0 1.278-.593 1.278-1.317s-.575-1.316-1.279-1.316c-.703 0-1.279-.592-1.279-1.316 0-.724-.575-1.316-1.279-1.316-.703 0-1.279.592-1.279 1.316 0 .724-.575 1.316-1.279 1.316-.703 0-1.278.592-1.278 1.316 0 .724.575 1.317 1.278 1.317.704 0 1.28.592 1.28 1.316 0 .724.575 1.316 1.278 1.316.704 0 1.28-.592 1.28-1.316zm26.271-2.426c.34-1.813-2.122-3.035-3.42-1.698-1.3 1.337-.112 3.87 1.65 3.52.816-.161 1.613-.981 1.77-1.822zm10.232 0c.34-1.813-2.122-3.035-3.421-1.698-1.3 1.337-.112 3.87 1.65 3.52.817-.161 1.614-.981 1.77-1.822zm-5.116-5.265c.34-1.814-2.122-3.036-3.421-1.699s-.112 3.87 1.65 3.521c.817-.161 1.614-.982 1.771-1.822z" fill="#d59541"/></svg><svg width="64" height="43" x="72" y="65" xmlns="http://www.w3.org/2000/svg"><path d="M4.24 40.495c-1.822-1.67-3.23-3.934-3.547-5.706-.71-3.956 1.484-9.185 4.654-11.085 1.994-1.195 2.636-2.335 3.037-5.396C9.634 8.786 16.003 1.954 25.037.445 31.47-.629 39.59 3.192 42.961 8.882c1.456 2.456 2.11 2.835 4.21 2.44 6.732-1.266 14.973 4.651 16.902 12.136 1.799 6.978-1.536 14.691-7.793 18.026-3.079 1.64-5.128 1.78-26.18 1.78H7.258z" fill="#d59541"/></svg></svg>