<?xml version="1.0" encoding="UTF-8" standalone="no"?><svg width="249" height="187" viewBox="0 0 249 187" xmlns="http://www.w3.org/2000/svg" xmlns:xlink="http://www.w3.org/1999/xlink"><svg width="185" height="75" viewBox="0 0 48.948 19.844" id="custom-software" xmlns="http://www.w3.org/2000/svg"><defs><filter id="aa" x="-.016" width="1.033" y="-.049" height="1.098" color-interpolation-filters="sRGB"><feGaussianBlur stdDeviation="1.818"/></filter><filter id="ab" x="-.014" width="1.028" y="-.086" height="1.172" color-interpolation-filters="sRGB"><feGaussianBlur stdDeviation="1.701"/></filter></defs><g font-weight="400" font-family="Terminator Real NFI" letter-spacing="0" word-spacing="0" stroke-width=".265"><g transform="matrix(.17522 0 0 .13593 -1.345 -24.923)" style="line-height:1.25;-inkscape-font-specification:'Terminator Real NFI, Normal';font-variant-ligatures:normal;font-variant-caps:normal;font-variant-numeric:normal;font-feature-settings:normal;text-align:start" aria-label="&lt;CUSTOMIZED/>" font-size="19.756" opacity=".95" filter="url(#aa)"><path style="-inkscape-font-specification:'Terminator Real NFI, Normal';font-variant-ligatures:normal;font-variant-caps:normal;font-variant-numeric:normal;font-feature-settings:normal;text-align:start" d="M28.769 242.85a1752.994 1752.994 0 0 0-10.11 16.566c3.35 1.383 6.716 2.79 10.106 4.23 0 4.65.002 9.298.004 13.947a1025.482 1025.482 0 0 0-10.452-4.2c-1.74-2.27-3.132-4.619-3.132-11.799 0-6.851 1.447-11.585 3.135-15.796 3.463-5.734 6.95-11.438 10.458-17.1l-.01 14.153zM35.269 260.744c-.722.417-.815-1.238-.814-3.607l.003-16.183c0-1.578.002-3.159.834-3.639a431.797 431.797 0 0 1 15.207-8.38l.005-12.424a433.412 433.412 0 0 0-15.185 8.357c-2.498 1.438-4.178 8.485-4.384 16.5-.003 6.648-.004 13.293-.004 19.938 0 9.081 1.806 13.662 4.359 12.185a425.904 425.904 0 0 1 15.245-8.427l-.001-12.75a428.131 428.131 0 0 0-15.265 8.43zM68.915 239.99c0 1.775.001 3.415-.854 3.803a326.04 326.04 0 0 0-10.98 5.234c-.745.372-.84-1.287-.84-3.653 0-10.6.001-21.203.005-31.807a364.621 364.621 0 0 0-3.63 1.847c-.006 11.307-.009 22.612-.009 33.915 0 9.071 1.86 13.751 4.495 12.435a324.992 324.992 0 0 1 11.001-5.247c2.762-1.252 4.582-7.35 4.579-16.744-.004-11.297-.006-22.593-.007-33.89a298.26 298.26 0 0 0-3.743 1.65l-.017 32.458zM92.054 216.685c4.418-1.502 5.104 5.003 5.113 13.702.01 8.765-.704 15.08-5.047 16.554a222.932 222.932 0 0 0-6.384 2.276 268.822 268.822 0 0 0-10.315 4.099l-.005-12.15a269.194 269.194 0 0 1 10.311-4.097 230.59 230.59 0 0 1 6.303-2.248c1.214-.413 1.233-2.974 1.25-6.201a221.028 221.028 0 0 0-7.557 2.671c-2.1.784-4.188 1.595-6.265 2.431-4.148 1.67-4.97-4.224-4.972-13.05-.002-9.36.423-15.726 4.96-17.55a264.862 264.862 0 0 1 8.95-3.413c2.554-.92 5.126-1.793 7.715-2.617l.014 12.343a217.24 217.24 0 0 0-10.413 3.604c-2.432.907-4.848 1.85-7.25 2.828 0 2.562.001 5.908.99 5.51a264.568 264.568 0 0 1 8.96-3.418c1.21-.435 2.424-.86 3.642-1.274zM99.084 196.17c7.15-2.157 14.42-3.925 21.764-5.222l.016 12.406c-3.01.533-6.008 1.144-8.99 1.83.015 12.036.033 24.07.053 36.105-1.291.297-2.58.608-3.865.932l-.05-35.977c-2.989.752-5.961 1.577-8.913 2.467l-.015-12.54zM144.876 203.841c-.016-9.03-1.725-15.386-5.022-15.197-4.04.231-8.071.623-12.084 1.162-2.851.383-4.758 6.818-4.978 14.728.009 6.63.02 13.257.032 19.885.016 9.06 2.09 14.343 5.007 13.945a162.11 162.11 0 0 1 12.118-1.2c3.026-.184 4.99-5.527 4.966-14.905-.016-6.14-.03-12.279-.04-18.418zm-4.076 17.142c.004 1.772.008 3.406-.928 3.463-4.043.244-8.075.645-12.09 1.192-.823.113-.932-1.575-.936-3.938-.01-5.38-.02-10.761-.027-16.142-.002-1.573-.005-3.153.945-3.281 4.02-.543 8.057-.94 12.105-1.176.872-.05.896 1.985.9 4.016.008 5.288.019 10.577.031 15.866zM150.91 236.894a144.044 144.044 0 0 0-3.801.002c-.041-11.84-.071-23.68-.09-35.518-.006-3.958.638-8.08 1.654-10.584.598-1.476 1.326-2.39 2.125-2.376.175.003.347.053.515.146 1.932 1.064 3.345 7.756 4.038 12.966-.122-.91 3.461 25.64 3.34 24.73 1.085-8.124 2.17-16.188 3.269-24.278.733-5.493 2.254-12.74 4.497-12.467 2.282.278 3.782 6.78 3.795 13.436.022 11.8.066 23.604.132 35.412a165.276 165.276 0 0 0-3.79-.475c-.06-11.814-.102-23.625-.123-35.433-1.235 8.3-2.455 16.568-3.677 24.91-1.014 6.915-1.774 11.214-4.054 11.07-2.003-.128-3.306-6.065-4.135-11.665l-3.27-21.882-.521-3.499c.02 11.836.051 23.67.096 35.505zM176.63 191.078c.014 16.087.07 32.184.167 48.29-1.444-.255-2.89-.49-4.34-.708a9490.157 9490.157 0 0 1-.153-48.325c1.445.229 2.887.477 4.326.743zM198.237 196.444c4.05 1.254 4.067 7.11 4.099 14.224.027 5.977-1.248 10.094-3.141 10.805a253.278 253.278 0 0 0-15.416 6.504 196.17 196.17 0 0 1 17.945 4.872c.026 4.247.055 8.495.086 12.743a194.765 194.765 0 0 0-18.352-4.921c-4.771-1.028-4.851-6.274-4.889-14.152-.028-5.78-.034-8.588 3.798-11.419 5.23-2.42 10.402-4.59 15.524-6.557a191.39 191.39 0 0 0-18.754-4.729c-.01-4.086-.016-8.172-.02-12.257 6.446 1.29 12.828 2.94 19.12 4.887zM224.66 206.414l.082 12.33a282.447 282.447 0 0 0-13.33-5.45c-.828-.312-1.658-.62-2.49-.924-.803-.293-.894 1.622-.883 3.698l.008 1.559a228.304 228.304 0 0 1 4.823 1.794 279.47 279.47 0 0 1 11.908 4.903l.082 12.394a272.983 272.983 0 0 0-13.344-5.441 224.667 224.667 0 0 0-3.378-1.24l.007 1.105c.015 2.339.127 4.126.912 4.41a223.778 223.778 0 0 1 3.922 1.461 270.34 270.34 0 0 1 11.916 4.896l.082 12.523a264.12 264.12 0 0 0-13.342-5.428c-.829-.31-1.66-.615-2.493-.916-2.836-1.023-4.832-7.703-4.888-16.936-.036-5.805-.068-11.608-.096-17.41-.042-8.576 2.001-14.63 4.706-13.64a233.854 233.854 0 0 1 3.912 1.456c4 1.53 7.96 3.152 11.884 4.856zM226.735 255.21a311.439 311.439 0 0 1 15.543 7.48c2.56 1.318 4.254-3.796 4.401-11.501-.035-6.566-.076-13.135-.124-19.707-.065-8.981-1.988-15.564-4.612-16.892a350.09 350.09 0 0 0-15.528-7.4c.11 16.008.216 32.015.32 48.02zm3.458-33.755a347.608 347.608 0 0 1 11.888 5.77c.742.378.85 2.119.867 4.459.038 5.331.072 10.66.103 15.989.01 1.56.018 3.117-.837 2.678a327.994 327.994 0 0 0-11.865-5.79l-.156-23.106zM266.442 227.955c-4.404 13.527-8.92 27.008-13.47 40.47a384.817 384.817 0 0 0-4.875-2.67c4.577-13.511 9.12-27.025 13.55-40.554a602.03 602.03 0 0 1 4.795 2.754zM268.033 242.926a1302.524 1302.524 0 0 1 10.171 16.52c-3.355 1.38-6.71 2.76-10.096 4.166.007 4.62.008 9.237.002 13.85 3.496-1.379 6.967-2.727 10.432-4.07 1.74-2.245 3.146-4.594 3.144-11.77-.002-6.854-1.47-11.59-3.178-15.79a1412.12 1412.12 0 0 0-10.576-17.01c.04 4.705.074 9.406.1 14.104z"/></g><g style="line-height:1.25;-inkscape-font-specification:'Terminator Real NFI, Normal';font-variant-ligatures:normal;font-variant-caps:normal;font-variant-numeric:normal;font-feature-settings:normal;text-align:start" aria-label="&lt;CUSTOMIZED/>" font-size="19.756" fill="#fc0" stroke="#000"><path style="-inkscape-font-specification:'Terminator Real NFI, Normal';font-variant-ligatures:normal;font-variant-caps:normal;font-variant-numeric:normal;font-feature-settings:normal;text-align:start" d="M28.769 242.85a1752.994 1752.994 0 0 0-10.11 16.566c3.35 1.383 6.716 2.79 10.106 4.23 0 4.65.002 9.298.004 13.947a1025.482 1025.482 0 0 0-10.452-4.2c-1.74-2.27-3.132-4.619-3.132-11.799 0-6.851 1.447-11.585 3.135-15.796 3.463-5.734 6.95-11.438 10.458-17.1l-.01 14.153zM35.269 260.744c-.722.417-.815-1.238-.814-3.607l.003-16.183c0-1.578.002-3.159.834-3.639a431.797 431.797 0 0 1 15.207-8.38l.005-12.424a433.412 433.412 0 0 0-15.185 8.357c-2.498 1.438-4.178 8.485-4.384 16.5-.003 6.648-.004 13.293-.004 19.938 0 9.081 1.806 13.662 4.359 12.185a425.904 425.904 0 0 1 15.245-8.427l-.001-12.75a428.131 428.131 0 0 0-15.265 8.43zM68.915 239.99c0 1.775.001 3.415-.854 3.803a326.04 326.04 0 0 0-10.98 5.234c-.745.372-.84-1.287-.84-3.653 0-10.6.001-21.203.005-31.807a364.621 364.621 0 0 0-3.63 1.847c-.006 11.307-.009 22.612-.009 33.915 0 9.071 1.86 13.751 4.495 12.435a324.992 324.992 0 0 1 11.001-5.247c2.762-1.252 4.582-7.35 4.579-16.744-.004-11.297-.006-22.593-.007-33.89a298.26 298.26 0 0 0-3.743 1.65l-.017 32.458zM92.054 216.685c4.418-1.502 5.104 5.003 5.113 13.702.01 8.765-.704 15.08-5.047 16.554a222.932 222.932 0 0 0-6.384 2.276 268.822 268.822 0 0 0-10.315 4.099l-.005-12.15a269.194 269.194 0 0 1 10.311-4.097 230.59 230.59 0 0 1 6.303-2.248c1.214-.413 1.233-2.974 1.25-6.201a221.028 221.028 0 0 0-7.557 2.671c-2.1.784-4.188 1.595-6.265 2.431-4.148 1.67-4.97-4.224-4.972-13.05-.002-9.36.423-15.726 4.96-17.55a264.862 264.862 0 0 1 8.95-3.413c2.554-.92 5.126-1.793 7.715-2.617l.014 12.343a217.24 217.24 0 0 0-10.413 3.604c-2.432.907-4.848 1.85-7.25 2.828 0 2.562.001 5.908.99 5.51a264.568 264.568 0 0 1 8.96-3.418c1.21-.435 2.424-.86 3.642-1.274zM99.084 196.17c7.15-2.157 14.42-3.925 21.764-5.222l.016 12.406c-3.01.533-6.008 1.144-8.99 1.83.015 12.036.033 24.07.053 36.105-1.291.297-2.58.608-3.865.932l-.05-35.977c-2.989.752-5.961 1.577-8.913 2.467l-.015-12.54zM144.876 203.841c-.016-9.03-1.725-15.386-5.022-15.197-4.04.231-8.071.623-12.084 1.162-2.851.383-4.758 6.818-4.978 14.728.009 6.63.02 13.257.032 19.885.016 9.06 2.09 14.343 5.007 13.945a162.11 162.11 0 0 1 12.118-1.2c3.026-.184 4.99-5.527 4.966-14.905-.016-6.14-.03-12.279-.04-18.418zm-4.076 17.142c.004 1.772.008 3.406-.928 3.463-4.043.244-8.075.645-12.09 1.192-.823.113-.932-1.575-.936-3.938-.01-5.38-.02-10.761-.027-16.142-.002-1.573-.005-3.153.945-3.281 4.02-.543 8.057-.94 12.105-1.176.872-.05.896 1.985.9 4.016.008 5.288.019 10.577.031 15.866zM150.91 236.894a144.044 144.044 0 0 0-3.801.002c-.041-11.84-.071-23.68-.09-35.518-.006-3.958.638-8.08 1.654-10.584.598-1.476 1.326-2.39 2.125-2.376.175.003.347.053.515.146 1.932 1.064 3.345 7.756 4.038 12.966-.122-.91 3.461 25.64 3.34 24.73 1.085-8.124 2.17-16.188 3.269-24.278.733-5.493 2.254-12.74 4.497-12.467 2.282.278 3.782 6.78 3.795 13.436.022 11.8.066 23.604.132 35.412a165.276 165.276 0 0 0-3.79-.475c-.06-11.814-.102-23.625-.123-35.433-1.235 8.3-2.455 16.568-3.677 24.91-1.014 6.915-1.774 11.214-4.054 11.07-2.003-.128-3.306-6.065-4.135-11.665l-3.27-21.882-.521-3.499c.02 11.836.051 23.67.096 35.505zM176.63 191.078c.014 16.087.07 32.184.167 48.29-1.444-.255-2.89-.49-4.34-.708a9490.157 9490.157 0 0 1-.153-48.325c1.445.229 2.887.477 4.326.743zM198.237 196.444c4.05 1.254 4.067 7.11 4.099 14.224.027 5.977-1.248 10.094-3.141 10.805a253.278 253.278 0 0 0-15.416 6.504 196.17 196.17 0 0 1 17.945 4.872c.026 4.247.055 8.495.086 12.743a194.765 194.765 0 0 0-18.352-4.921c-4.771-1.028-4.851-6.274-4.889-14.152-.028-5.78-.034-8.588 3.798-11.419 5.23-2.42 10.402-4.59 15.524-6.557a191.39 191.39 0 0 0-18.754-4.729c-.01-4.086-.016-8.172-.02-12.257 6.446 1.29 12.828 2.94 19.12 4.887zM224.66 206.414l.082 12.33a282.447 282.447 0 0 0-13.33-5.45c-.828-.312-1.658-.62-2.49-.924-.803-.293-.894 1.622-.883 3.698l.008 1.559a228.304 228.304 0 0 1 4.823 1.794 279.47 279.47 0 0 1 11.908 4.903l.082 12.394a272.983 272.983 0 0 0-13.344-5.441 224.667 224.667 0 0 0-3.378-1.24l.007 1.105c.015 2.339.127 4.126.912 4.41a223.778 223.778 0 0 1 3.922 1.461 270.34 270.34 0 0 1 11.916 4.896l.082 12.523a264.12 264.12 0 0 0-13.342-5.428c-.829-.31-1.66-.615-2.493-.916-2.836-1.023-4.832-7.703-4.888-16.936-.036-5.805-.068-11.608-.096-17.41-.042-8.576 2.001-14.63 4.706-13.64a233.854 233.854 0 0 1 3.912 1.456c4 1.53 7.96 3.152 11.884 4.856zM226.735 255.21a311.439 311.439 0 0 1 15.543 7.48c2.56 1.318 4.254-3.796 4.401-11.501-.035-6.566-.076-13.135-.124-19.707-.065-8.981-1.988-15.564-4.612-16.892a350.09 350.09 0 0 0-15.528-7.4c.11 16.008.216 32.015.32 48.02zm3.458-33.755a347.608 347.608 0 0 1 11.888 5.77c.742.378.85 2.119.867 4.459.038 5.331.072 10.66.103 15.989.01 1.56.018 3.117-.837 2.678a327.994 327.994 0 0 0-11.865-5.79l-.156-23.106zM266.442 227.955c-4.404 13.527-8.92 27.008-13.47 40.47a384.817 384.817 0 0 0-4.875-2.67c4.577-13.511 9.12-27.025 13.55-40.554a602.03 602.03 0 0 1 4.795 2.754zM268.033 242.926a1302.524 1302.524 0 0 1 10.171 16.52c-3.355 1.38-6.71 2.76-10.096 4.166.007 4.62.008 9.237.002 13.85 3.496-1.379 6.967-2.727 10.432-4.07 1.74-2.245 3.146-4.594 3.144-11.77-.002-6.854-1.47-11.59-3.178-15.79a1412.12 1412.12 0 0 0-10.576-17.01c.04 4.705.074 9.406.1 14.104z" transform="matrix(.17522 0 0 .13593 -1.6 -25.283)"/></g><g style="line-height:1.25;-inkscape-font-specification:'Terminator Real NFI, Normal';font-variant-ligatures:normal;font-variant-caps:normal;font-variant-numeric:normal;font-feature-settings:normal;text-align:start" aria-label="JLCUSTOMSOFTWARE.NET" font-size="14.111" opacity=".95" filter="url(#ab)" transform="matrix(.16097 0 0 .13593 .639 -16.378)"><path style="-inkscape-font-specification:'Terminator Real NFI, Normal';font-variant-ligatures:normal;font-variant-caps:normal;font-variant-numeric:normal;font-feature-settings:normal;text-align:start" d="M11.106 222.798c-.178.337-.343.65-.895.357a379.392 379.392 0 0 1-7.112-3.864l-1.332 2.392c2.38 1.327 4.777 2.63 7.188 3.906 1.8.954 3.505.544 4.433-1.248l3.35-6.47c-.794-.41-1.588-.825-2.38-1.242zM17.137 226.73c-.495-.25-.393-.61-.164-1.063l3.08-6.101c-.791-.399-1.58-.8-2.368-1.205l-3.33 6.479c-.891 1.732-.206 3.454 1.565 4.344a353.46 353.46 0 0 0 7.336 3.581l1.173-2.475a351.704 351.704 0 0 1-7.292-3.56zM28.706 232.266c-.504-.23-.415-.594-.203-1.056l1.45-3.156c.142-.308.283-.615.856-.353a323.912 323.912 0 0 0 10.429 4.551l1.023-2.463a321.566 321.566 0 0 1-10.33-4.509c-1.7-.777-3.399-.143-4.259 1.326l-1.817 3.873c-.827 1.763-.079 3.46 1.726 4.284 3.54 1.618 7.11 3.175 10.706 4.668l1.05-2.528a328.32 328.32 0 0 1-10.63-4.637zM52.275 241.175c-.13.357-.251.69-.838.474a306.82 306.82 0 0 1-7.569-2.89c-.515-.206-.445-.573-.256-1.045l2.533-6.341c-.82-.328-1.638-.66-2.455-.994l-2.76 6.738c-.737 1.801.096 3.458 1.941 4.19a309.766 309.766 0 0 0 7.65 2.92c1.919.704 3.553.065 4.226-1.835l2.43-6.86c-.836-.296-1.67-.595-2.502-.899l-2.4 6.542zM68.852 243.496c2.924.88 2.99 2.351 2.47 4.165-.515 1.793-1.366 2.956-4.315 2.07a290.374 290.374 0 0 1-11.428-3.7l.854-2.465a287.064 287.064 0 0 0 11.271 3.65c.818.245.989-.28 1.199-.937a283.167 283.167 0 0 1-9.316-2.949c-2.825-.947-2.927-2.443-2.307-4.218.669-1.915 1.384-3.023 4.397-2.012a273.427 273.427 0 0 0 10.97 3.429l-.737 2.546a277.308 277.308 0 0 1-11.738-3.685c-.176.52-.407 1.203.258 1.427 2.794.937 5.601 1.83 8.422 2.68zM74.585 241.081a259.147 259.147 0 0 0 14.057 3.533l-.576 2.604a253.083 253.083 0 0 1-5.846-1.366l-1.855 7.536a256.575 256.575 0 0 1-2.595-.654l1.924-7.489c-1.952-.5-3.899-1.025-5.84-1.57zM103.52 250.78c.301-1.926-.588-3.441-2.692-3.799-2.588-.44-5.168-.92-7.741-1.44-1.821-.369-3.331.644-3.84 2.267l-.902 4.18c-.41 1.902.703 3.389 2.657 3.784 2.684.543 5.377 1.044 8.077 1.503 2.022.344 3.514-.586 3.826-2.577zm-3.271 3.172c-.063.376-.122.725-.74.62a259.234 259.234 0 0 1-7.978-1.486c-.544-.11-.54-.484-.438-.982l.697-3.4c.068-.333.136-.663.751-.538a254.16 254.16 0 0 0 7.838 1.458c.564.096.506.529.434.96l-.564 3.368zM106.383 258.41c-.845-.118-1.69-.242-2.534-.37l1.142-7.561c.202-1.34 1.476-2.601 2.85-2.407 1.404.198 2.23 1.898 2.559 3.165.485 1.84.985 3.68 1.501 5.52a360.32 360.32 0 0 0 2.812-5c.62-1.139 1.785-2.612 3.237-2.467 1.479.148 2.34 1.583 2.21 3.017l-.686 7.617a261.99 261.99 0 0 1-2.564-.244l.762-7.61a338.945 338.945 0 0 1-3.056 5.17c-.858 1.422-1.5 2.306-3.03 2.122-1.346-.163-2.04-1.535-2.421-2.794a340.819 340.819 0 0 1-1.714-5.73zM133.684 254.308c3.05.112 3.488 1.518 3.445 3.406-.042 1.864-.57 3.208-3.654 3.096-4.012-.147-8.02-.385-12.02-.715l.214-2.602a259.6 259.6 0 0 0 11.844.706c.855.031.887-.52.924-1.21a258.256 258.256 0 0 1-9.768-.51c-2.976-.213-3.446-1.64-3.286-3.513.172-2.023.589-3.272 3.754-3.046 3.817.272 7.64.457 11.466.554l-.068 2.652a254.25 254.25 0 0 1-12.283-.61c-.04.547-.095 1.267.606 1.317 2.939.209 5.881.368 8.826.475zM153.14 253.655c-.025-.62-.161-1.178-.403-1.646-.518-1.002-1.518-1.598-2.974-1.559-2.624.071-5.249.101-7.873.09-1.858-.009-3.143 1.277-3.327 2.969l-.075 4.274c-.034 1.946 1.347 3.189 3.34 3.198 2.74.012 5.479-.018 8.217-.092 1.427-.04 2.49-.637 2.97-1.678.208-.451.308-.985.283-1.594zm-2.593 3.747c.011.38.022.734-.605.75-2.704.074-5.41.104-8.115.091-.556-.003-.624-.37-.62-.878l.024-3.471c.002-.34.005-.677.633-.674 2.657.012 5.315-.018 7.971-.09.572-.015.6.42.612.858l.1 3.414zM168.615 249.253l.264 2.667c-3.702.367-7.41.66-11.123.874-.558.032-.604.458-.58.909l.02.338c3.94-.219 7.875-.525 11.803-.914l.266 2.68c-3.96.393-7.93.702-11.906.923l.213 3.846c-.923.051-1.847.098-2.771.14l-.32-7.09c-.085-1.86 1.267-3.387 3.12-3.494 3.676-.216 7.348-.51 11.014-.879zM170.123 249.113a290.414 290.414 0 0 0 14.406-1.878l.41 2.635c-1.982.308-3.965.597-5.95.865l1.037 7.689c-.881.118-1.763.233-2.646.344l-.966-7.669c-2.001.252-4.005.484-6.01.694zM187.796 246.709a859.087 859.087 0 0 0 2.668 7.206c.257-1.982.503-3.963.738-5.944.16-1.347.86-2.23 2.169-2.472 1.13-.21 2.26.45 2.827 1.547a602.29 602.29 0 0 0 2.788 5.294 895.93 895.93 0 0 0-.054-7.692c.853-.173 1.705-.35 2.557-.53.08 2.821.147 5.643.202 8.467.034 1.362-.85 2.323-2.159 2.582-1.294.257-2.386-.34-3.009-1.558a622.215 622.215 0 0 1-2.626-5.265 580.025 580.025 0 0 1-.679 5.876c-.16 1.362-.953 2.308-2.311 2.54-1.387.237-2.425-.254-2.925-1.644a850.116 850.116 0 0 1-2.87-7.972c.895-.141 1.79-.286 2.684-.435zM202.38 246.296l1.688 7.94c.873-.185 1.746-.374 2.617-.566l-.577-2.62c1.67-.368 3.337-.749 5.002-1.14 1.076.664 2.158 1.324 3.246 1.98 1.358-.331 2.714-.67 4.067-1.015a341.332 341.332 0 0 1-11.738-7.043c-.799-.499-1.533-.667-2.28-.502-1.298.286-2.409 1.158-2.03 2.938zm2.628-.237c1.126.73 2.26 1.455 3.4 2.174-.927.212-1.855.42-2.783.625zM216.538 240.59a381.356 381.356 0 0 0 11.344-3.104c2.487-.72 2.717.05 3.424 2.437.34 1.15.159 1.277-.05 1.912.407.336.858.467 1.063 1.157.527 1.197 1.056 2.394 1.586 3.59-.89.265-1.78.527-2.67.787-.513-1.203-1.025-2.406-1.536-3.61a414.547 414.547 0 0 1-8.889 2.469l.998 3.765c-.893.237-1.788.471-2.684.702l-2.586-10.106zm3.6 3.1a385.818 385.818 0 0 0 8.237-2.279c.473-.136.425-.754.249-1.364a408.344 408.344 0 0 1-8.805 2.443zM245.652 231.91l.852 2.542a463.766 463.766 0 0 1-10.664 3.436c-.536.165-.479.59-.346 1.021l.1.324a464.227 464.227 0 0 0 11.295-3.63l.857 2.554a468.097 468.097 0 0 1-11.348 3.647l.07.23c.15.485.329.829.857.666 3.608-1.114 7.201-2.273 10.78-3.473l.865 2.582a474.679 474.679 0 0 1-10.842 3.492c-1.926.595-3.611-.272-4.188-2.19l-1.087-3.62c-.536-1.784.408-3.598 2.2-4.15 3.545-1.1 7.078-2.244 10.599-3.43zM249.862 241.509l-.924-2.74c.962-.325 1.923-.653 2.883-.983l.941 2.735c-.965.332-1.932.661-2.9.988zM251.228 232.468c-.453-1.306.38-2.745 1.654-3.194.724-.256 1.477-.179 2.332.22a519.962 519.962 0 0 0 8.992 3.993l-2.674-7.197c.821-.305 1.642-.612 2.461-.92l2.707 7.184c.587 1.559-.141 3.13-1.492 3.632-.73.271-1.322.174-3.307-.586a512.127 512.127 0 0 1-8.09-3.692l2.589 7.346c-.837.295-1.676.588-2.515.879zM278.704 219.612l1.008 2.486a660.424 660.424 0 0 1-10.442 4.13c-.525.202-.438.622-.276 1.044l.121.316c3.697-1.42 7.38-2.877 11.052-4.365l1.013 2.499a659.151 659.151 0 0 1-11.085 4.378l.086.224c.183.474.386.804.901.606a661.856 661.856 0 0 0 10.522-4.161l1.023 2.524a662.725 662.725 0 0 1-10.565 4.179c-1.875.722-3.615-.024-4.326-1.898l-1.34-3.537c-.661-1.742.156-3.62 1.914-4.298a659.461 659.461 0 0 0 10.394-4.127zM279.865 219.156a793.941 793.941 0 0 0 13.561-5.674l1.052 2.45a842.787 842.787 0 0 1-5.565 2.365l3.01 7.156c-.811.341-1.623.681-2.436 1.02l-2.976-7.14c-1.873.781-3.75 1.555-5.629 2.32z"/></g><g style="line-height:1.25;-inkscape-font-specification:'Terminator Real NFI, Normal';font-variant-ligatures:normal;font-variant-caps:normal;font-variant-numeric:normal;font-feature-settings:normal;text-align:start" aria-label="JLCUSTOMSOFTWARE.NET" font-size="14.111" fill="#fc0" stroke="#000"><path style="-inkscape-font-specification:'Terminator Real NFI, Normal';font-variant-ligatures:normal;font-variant-caps:normal;font-variant-numeric:normal;font-feature-settings:normal;text-align:start" d="M11.106 222.798c-.178.337-.343.65-.895.357a379.392 379.392 0 0 1-7.112-3.864l-1.332 2.392c2.38 1.327 4.777 2.63 7.188 3.906 1.8.954 3.505.544 4.433-1.248l3.35-6.47c-.794-.41-1.588-.825-2.38-1.242zM17.137 226.73c-.495-.25-.393-.61-.164-1.063l3.08-6.101c-.791-.399-1.58-.8-2.368-1.205l-3.33 6.479c-.891 1.732-.206 3.454 1.565 4.344a353.46 353.46 0 0 0 7.336 3.581l1.173-2.475a351.704 351.704 0 0 1-7.292-3.56zM28.706 232.266c-.504-.23-.415-.594-.203-1.056l1.45-3.156c.142-.308.283-.615.856-.353a323.912 323.912 0 0 0 10.429 4.551l1.023-2.463a321.566 321.566 0 0 1-10.33-4.509c-1.7-.777-3.399-.143-4.259 1.326l-1.817 3.873c-.827 1.763-.079 3.46 1.726 4.284 3.54 1.618 7.11 3.175 10.706 4.668l1.05-2.528a328.32 328.32 0 0 1-10.63-4.637zM52.275 241.175c-.13.357-.251.69-.838.474a306.82 306.82 0 0 1-7.569-2.89c-.515-.206-.445-.573-.256-1.045l2.533-6.341c-.82-.328-1.638-.66-2.455-.994l-2.76 6.738c-.737 1.801.096 3.458 1.941 4.19a309.766 309.766 0 0 0 7.65 2.92c1.919.704 3.553.065 4.226-1.835l2.43-6.86c-.836-.296-1.67-.595-2.502-.899l-2.4 6.542zM68.852 243.496c2.924.88 2.99 2.351 2.47 4.165-.515 1.793-1.366 2.956-4.315 2.07a290.374 290.374 0 0 1-11.428-3.7l.854-2.465a287.064 287.064 0 0 0 11.271 3.65c.818.245.989-.28 1.199-.937a283.167 283.167 0 0 1-9.316-2.949c-2.825-.947-2.927-2.443-2.307-4.218.669-1.915 1.384-3.023 4.397-2.012a273.427 273.427 0 0 0 10.97 3.429l-.737 2.546a277.308 277.308 0 0 1-11.738-3.685c-.176.52-.407 1.203.258 1.427 2.794.937 5.601 1.83 8.422 2.68zM74.585 241.081a259.147 259.147 0 0 0 14.057 3.533l-.576 2.604a253.083 253.083 0 0 1-5.846-1.366l-1.855 7.536a256.575 256.575 0 0 1-2.595-.654l1.924-7.489c-1.952-.5-3.899-1.025-5.84-1.57zM103.52 250.78c.301-1.926-.588-3.441-2.692-3.799-2.588-.44-5.168-.92-7.741-1.44-1.821-.369-3.331.644-3.84 2.267l-.902 4.18c-.41 1.902.703 3.389 2.657 3.784 2.684.543 5.377 1.044 8.077 1.503 2.022.344 3.514-.586 3.826-2.577zm-3.271 3.172c-.063.376-.122.725-.74.62a259.234 259.234 0 0 1-7.978-1.486c-.544-.11-.54-.484-.438-.982l.697-3.4c.068-.333.136-.663.751-.538a254.16 254.16 0 0 0 7.838 1.458c.564.096.506.529.434.96l-.564 3.368zM106.383 258.41c-.845-.118-1.69-.242-2.534-.37l1.142-7.561c.202-1.34 1.476-2.601 2.85-2.407 1.404.198 2.23 1.898 2.559 3.165.485 1.84.985 3.68 1.501 5.52a360.32 360.32 0 0 0 2.812-5c.62-1.139 1.785-2.612 3.237-2.467 1.479.148 2.34 1.583 2.21 3.017l-.686 7.617a261.99 261.99 0 0 1-2.564-.244l.762-7.61a338.945 338.945 0 0 1-3.056 5.17c-.858 1.422-1.5 2.306-3.03 2.122-1.346-.163-2.04-1.535-2.421-2.794a340.819 340.819 0 0 1-1.714-5.73zM133.684 254.308c3.05.112 3.488 1.518 3.445 3.406-.042 1.864-.57 3.208-3.654 3.096-4.012-.147-8.02-.385-12.02-.715l.214-2.602a259.6 259.6 0 0 0 11.844.706c.855.031.887-.52.924-1.21a258.256 258.256 0 0 1-9.768-.51c-2.976-.213-3.446-1.64-3.286-3.513.172-2.023.589-3.272 3.754-3.046 3.817.272 7.64.457 11.466.554l-.068 2.652a254.25 254.25 0 0 1-12.283-.61c-.04.547-.095 1.267.606 1.317 2.939.209 5.881.368 8.826.475zM153.14 253.655c-.025-.62-.161-1.178-.403-1.646-.518-1.002-1.518-1.598-2.974-1.559-2.624.071-5.249.101-7.873.09-1.858-.009-3.143 1.277-3.327 2.969l-.075 4.274c-.034 1.946 1.347 3.189 3.34 3.198 2.74.012 5.479-.018 8.217-.092 1.427-.04 2.49-.637 2.97-1.678.208-.451.308-.985.283-1.594zm-2.593 3.747c.011.38.022.734-.605.75-2.704.074-5.41.104-8.115.091-.556-.003-.624-.37-.62-.878l.024-3.471c.002-.34.005-.677.633-.674 2.657.012 5.315-.018 7.971-.09.572-.015.6.42.612.858l.1 3.414zM168.615 249.253l.264 2.667c-3.702.367-7.41.66-11.123.874-.558.032-.604.458-.58.909l.02.338c3.94-.219 7.875-.525 11.803-.914l.266 2.68c-3.96.393-7.93.702-11.906.923l.213 3.846c-.923.051-1.847.098-2.771.14l-.32-7.09c-.085-1.86 1.267-3.387 3.12-3.494 3.676-.216 7.348-.51 11.014-.879zM170.123 249.113a290.414 290.414 0 0 0 14.406-1.878l.41 2.635c-1.982.308-3.965.597-5.95.865l1.037 7.689c-.881.118-1.763.233-2.646.344l-.966-7.669c-2.001.252-4.005.484-6.01.694zM187.796 246.709a859.087 859.087 0 0 0 2.668 7.206c.257-1.982.503-3.963.738-5.944.16-1.347.86-2.23 2.169-2.472 1.13-.21 2.26.45 2.827 1.547a602.29 602.29 0 0 0 2.788 5.294 895.93 895.93 0 0 0-.054-7.692c.853-.173 1.705-.35 2.557-.53.08 2.821.147 5.643.202 8.467.034 1.362-.85 2.323-2.159 2.582-1.294.257-2.386-.34-3.009-1.558a622.215 622.215 0 0 1-2.626-5.265 580.025 580.025 0 0 1-.679 5.876c-.16 1.362-.953 2.308-2.311 2.54-1.387.237-2.425-.254-2.925-1.644a850.116 850.116 0 0 1-2.87-7.972c.895-.141 1.79-.286 2.684-.435zM202.38 246.296l1.688 7.94c.873-.185 1.746-.374 2.617-.566l-.577-2.62c1.67-.368 3.337-.749 5.002-1.14 1.076.664 2.158 1.324 3.246 1.98 1.358-.331 2.714-.67 4.067-1.015a341.332 341.332 0 0 1-11.738-7.043c-.799-.499-1.533-.667-2.28-.502-1.298.286-2.409 1.158-2.03 2.938zm2.628-.237c1.126.73 2.26 1.455 3.4 2.174-.927.212-1.855.42-2.783.625zM216.538 240.59a381.356 381.356 0 0 0 11.344-3.104c2.487-.72 2.717.05 3.424 2.437.34 1.15.159 1.277-.05 1.912.407.336.858.467 1.063 1.157.527 1.197 1.056 2.394 1.586 3.59-.89.265-1.78.527-2.67.787-.513-1.203-1.025-2.406-1.536-3.61a414.547 414.547 0 0 1-8.889 2.469l.998 3.765c-.893.237-1.788.471-2.684.702l-2.586-10.106zm3.6 3.1a385.818 385.818 0 0 0 8.237-2.279c.473-.136.425-.754.249-1.364a408.344 408.344 0 0 1-8.805 2.443zM245.652 231.91l.852 2.542a463.766 463.766 0 0 1-10.664 3.436c-.536.165-.479.59-.346 1.021l.1.324a464.227 464.227 0 0 0 11.295-3.63l.857 2.554a468.097 468.097 0 0 1-11.348 3.647l.07.23c.15.485.329.829.857.666 3.608-1.114 7.201-2.273 10.78-3.473l.865 2.582a474.679 474.679 0 0 1-10.842 3.492c-1.926.595-3.611-.272-4.188-2.19l-1.087-3.62c-.536-1.784.408-3.598 2.2-4.15 3.545-1.1 7.078-2.244 10.599-3.43zM249.862 241.509l-.924-2.74c.962-.325 1.923-.653 2.883-.983l.941 2.735c-.965.332-1.932.661-2.9.988zM251.228 232.468c-.453-1.306.38-2.745 1.654-3.194.724-.256 1.477-.179 2.332.22a519.962 519.962 0 0 0 8.992 3.993l-2.674-7.197c.821-.305 1.642-.612 2.461-.92l2.707 7.184c.587 1.559-.141 3.13-1.492 3.632-.73.271-1.322.174-3.307-.586a512.127 512.127 0 0 1-8.09-3.692l2.589 7.346c-.837.295-1.676.588-2.515.879zM278.704 219.612l1.008 2.486a660.424 660.424 0 0 1-10.442 4.13c-.525.202-.438.622-.276 1.044l.121.316c3.697-1.42 7.38-2.877 11.052-4.365l1.013 2.499a659.151 659.151 0 0 1-11.085 4.378l.086.224c.183.474.386.804.901.606a661.856 661.856 0 0 0 10.522-4.161l1.023 2.524a662.725 662.725 0 0 1-10.565 4.179c-1.875.722-3.615-.024-4.326-1.898l-1.34-3.537c-.661-1.742.156-3.62 1.914-4.298a659.461 659.461 0 0 0 10.394-4.127zM279.865 219.156a793.941 793.941 0 0 0 13.561-5.674l1.052 2.45a842.787 842.787 0 0 1-5.565 2.365l3.01 7.156c-.811.341-1.623.681-2.436 1.02l-2.976-7.14c-1.873.781-3.75 1.555-5.629 2.32z" transform="matrix(.16097 0 0 .13593 .468 -16.594)"/></g></g></svg><svg width="64" height="64" viewBox="0 0 64 64" id="database" x="185" xmlns="http://www.w3.org/2000/svg"><path d="M14.933 63.728c-1.564-.262-5.564-1.155-8.889-1.984L0 60.237v-5.903c0-5.236.281-5.824 2.489-5.202C10.327 51.34 16.666 51.943 32 51.943s21.673-.603 29.511-2.811C63.718 48.51 64 49.097 64 54.308v5.878l-6.044 1.73c-4.368 1.25-10.778 1.808-23.112 2.009-9.386.153-18.346.064-19.91-.197zm0-14.7c-1.564-.261-5.564-1.153-8.889-1.982L0 45.538v-5.903c0-5.236.281-5.824 2.489-5.202C10.327 36.64 16.666 37.245 32 37.245s21.673-.604 29.511-2.812C63.718 33.81 64 34.398 64 39.61v5.878l-6.044 1.73c-4.368 1.25-10.778 1.807-23.112 2.008-9.386.153-18.346.065-19.91-.197zm0-14.698c-1.564-.262-5.564-1.154-8.889-1.983L0 30.84v-5.904c0-5.236.281-5.824 2.489-5.202 7.838 2.208 14.177 2.812 29.511 2.812s21.673-.604 29.511-2.812c2.207-.622 2.489-.035 2.489 5.177v5.878l-6.044 1.73c-4.368 1.25-10.778 1.807-23.112 2.008-9.386.154-18.346.065-19.91-.197zm0-14.699c-1.564-.262-5.564-1.154-8.889-1.983L0 16.141V3.726L6.756 1.93c9.68-2.573 40.808-2.573 50.488 0L64 3.726V16.09l-6.044 1.73c-4.368 1.25-10.778 1.807-23.112 2.009-9.386.153-18.346.064-19.91-.198zm28.92-14.966c1.513-.66 1.417-.955-.472-1.455-3.071-.812-19.69-.812-22.762 0C16.143 4.394 21.625 5.494 32 5.494c5.476 0 10.81-.373 11.853-.829z" fill="#d59541"/></svg><svg width="72" height="48" viewBox="0 0 72 48" id="envelope" y="75" xmlns="http://www.w3.org/2000/svg"><path d="M10.246 37.265l10.735-10.734 7.51 7.46L36 41.45l7.51-7.46 7.51-7.46 10.734 10.735L72.488 48H-.488zM0 24V5.514l9.243 9.243L18.486 24l-9.243 9.243L0 42.486zm62.493 8.993l-8.965-9.007 9.236-9.236L72 5.514v18.243C72 33.79 71.878 42 71.73 42c-.15 0-4.306-4.053-9.237-9.007zM17.5 18L-.48 0h72.96L54.5 18C44.611 27.9 36.286 36 36 36c-.286 0-8.611-8.1-18.5-18z" fill="#d59541"/></svg><svg width="64" height="64" viewBox="0 0 64 64" id="laptop" y="123" xmlns="http://www.w3.org/2000/svg"><path d="M.652 63.083C-.75 61.608.28 56.867 3.896 48.148l3.85-9.28h48.776l3.888 9.37c2.422 5.835 3.79 10.428 3.626 12.179l-.261 2.81-31.259.246c-17.192.136-31.53-.04-31.864-.39zm40.989-8.446c-.292-1.89-1.047-3.781-1.677-4.202-1.49-.993-14.171-.993-15.66 0-.63.42-1.385 2.311-1.677 4.202l-.53 3.437H42.17zM8.272 17.554L8.514-.481h47.24l.241 18.035.242 18.035H8.03zm42.58-.234V4.672H13.415v25.296h37.435z" fill="#d59541"/></svg><svg width="40" height="64" viewBox="0 0 40 64" id="mobile" x="64" y="123" xmlns="http://www.w3.org/2000/svg"><path d="M2.068 61.945C.035 59.925 0 59.416 0 31.914V3.937l2.202-1.93C4.279.186 5.292.077 20.11.077c21.834 0 19.843-3.22 19.843 32.086v27.976l-2.202 1.93C35.674 63.892 34.66 64 19.843 64c-15.188 0-15.775-.068-17.775-2.055zm20.55-1.103c2.862-1.87 2.735-5.3-.264-7.134-2.203-1.347-2.553-1.347-4.756 0-2.998 1.834-3.125 5.264-.264 7.134 1.163.76 2.352 1.382 2.642 1.382.29 0 1.48-.622 2.642-1.382zm11.627-30.135V10.73H5.708v39.952h28.538z" fill="#d59541"/></svg><svg width="64" height="64" viewBox="0 0 64 64" id="projects" x="104" y="123" xmlns="http://www.w3.org/2000/svg"><path d="M5.663 62.609c0-.928-.895-1.392-2.685-1.392H.292v-5.565c0-4.328.299-5.565 1.343-5.565.995 0 1.343 1.082 1.343 4.174 0 3.092.348 4.174 1.342 4.174.995 0 1.343-1.082 1.343-4.174 0-3.092.348-4.174 1.343-4.174 1.074 0 1.342 1.391 1.342 6.956C8.348 62.61 8.08 64 7.006 64c-.739 0-1.343-.626-1.343-1.391zm11.1-2.69c-.27-.73-.362-2.51-.202-3.957l.29-2.629h47.441v7.42l-23.519.248c-19.74.208-23.597.034-24.01-1.081zM.293 45.914c0-.927.894-1.391 2.685-1.391 1.79 0 2.685-.464 2.685-1.392 0-.927-.895-1.39-2.685-1.39S.292 41.274.292 40.347c0-.928.895-1.391 2.686-1.391 1.79 0 2.685-.464 2.685-1.392 0-.927-.895-1.391-2.685-1.391S.292 35.71.292 34.783c0-1.031 1.045-1.392 4.028-1.392h4.028v13.913H4.32c-2.983 0-4.028-.36-4.028-1.391zm16.47-2.689c-.27-.73-.362-2.511-.202-3.957l.29-2.63h47.441V44.059l-23.519.247c-19.74.208-23.597.034-24.01-1.08zM.293 26.434c0-4.019.099-4.173 2.685-4.173 1.79 0 2.685-.464 2.685-1.391 0-.928-.895-1.392-2.685-1.392S.292 19.014.292 18.087c0-1.03 1.045-1.391 4.028-1.391h4.028v4.174c0 4.019-.1 4.173-2.685 4.173-1.79 0-2.685.464-2.685 1.392 0 .927.895 1.391 2.685 1.391s2.685.464 2.685 1.391c0 1.031-1.044 1.392-4.028 1.392H.292zm16.47.095c-.27-.731-.362-2.512-.202-3.958l.29-2.629h47.441v7.42l-23.519.248c-19.74.207-23.597.034-24.01-1.081zM2.978 8.348c0-4.329-.299-5.565-1.343-5.565-.738 0-1.343-.626-1.343-1.392C.292.464 1.187 0 2.978 0h2.685v6.957c0 5.565-.269 6.956-1.343 6.956-1.044 0-1.342-1.237-1.342-5.565zm13.785 1.485c-.27-.73-.362-2.512-.202-3.958l.29-2.629h47.441v7.42l-23.519.248c-19.74.208-23.597.034-24.01-1.081z" fill="#d59541"/></svg><svg width="64" height="48" viewBox="0 0 64 48" id="training" x="185" y="64" xmlns="http://www.w3.org/2000/svg"><path d="M3.322 47.039c-3.594-2.155-3.526-3.553 1.136-23.451C8.281 7.275 9.251 4.218 11.271 2.14c2.89-2.974 3.965-2.995 11.864-.23 7.894 2.763 12.133 2.763 19.266 0 6.996-2.71 9.01-2.742 11.895-.187 1.949 1.725 2.85 4.464 6.424 19.525 4.84 20.4 5.094 23.452 2.115 25.461-1.926 1.3-2.355 1.276-5.85-.315-2.876-1.31-4.758-3.169-7.927-7.832-4.111-6.05-4.193-6.111-7.579-5.76-2.35.243-4.223-.162-5.975-1.292-2.502-1.614-2.607-1.613-5.367.063-2.005 1.217-3.762 1.58-6.1 1.256-3.25-.448-3.329-.388-7.267 5.545-2.876 4.332-4.988 6.499-7.604 7.802-4.152 2.07-3.895 2.031-5.844.863zm25.075-19.816c2.918-2.718.924-8.201-2.982-8.201-2.282 0-4.838 2.47-4.838 4.674 0 4.206 4.778 6.36 7.82 3.527zm15.347 0c2.918-2.718.924-8.201-2.982-8.201-2.282 0-4.837 2.47-4.837 4.674 0 4.206 4.777 6.36 7.82 3.527zm6.515-11.066c.34-1.813-2.122-3.035-3.421-1.698-1.299 1.337-.112 3.87 1.65 3.52.817-.161 1.614-.981 1.771-1.822zm-31.387-2.839c0-.724.576-1.316 1.28-1.316.703 0 1.278-.593 1.278-1.317s-.575-1.316-1.279-1.316c-.703 0-1.279-.592-1.279-1.316 0-.724-.575-1.316-1.279-1.316-.703 0-1.279.592-1.279 1.316 0 .724-.575 1.316-1.279 1.316-.703 0-1.278.592-1.278 1.316 0 .724.575 1.317 1.278 1.317.704 0 1.28.592 1.28 1.316 0 .724.575 1.316 1.278 1.316.704 0 1.28-.592 1.28-1.316zm26.271-2.426c.34-1.813-2.122-3.035-3.42-1.698-1.3 1.337-.112 3.87 1.65 3.52.816-.161 1.613-.981 1.77-1.822zm10.232 0c.34-1.813-2.122-3.035-3.421-1.698-1.3 1.337-.112 3.87 1.65 3.52.817-.161 1.614-.981 1.77-1.822zm-5.116-5.265c.34-1.814-2.122-3.036-3.421-1.699s-.112 3.87 1.65 3.521c.817-.161 1.614-.982 1.771-1.822z" fill="#d59541"/></svg><svg width="64" height="43" viewBox="0 0 64 43" id="web" x="72" y="75" xmlns="http://www.w3.org/2000/svg"><path d="M4.24 40.495c-1.822-1.67-3.23-3.934-3.547-5.706-.71-3.956 1.484-9.185 4.654-11.085 1.994-1.195 2.636-2.335 3.037-5.396C9.634 8.786 16.003 1.954 25.037.445 31.47-.629 39.59 3.192 42.961 8.882c1.456 2.456 2.11 2.835 4.21 2.44 6.732-1.266 14.973 4.651 16.902 12.136 1.799 6.978-1.536 14.691-7.793 18.026-3.079 1.64-5.128 1.78-26.18 1.78H7.258z" fill="#d59541"/></svg></svg>