<?xml version="1.0" encoding="UTF-8" standalone="no"?><svg width="229" height="182" viewBox="0 0 229 182" xmlns="http://www.w3.org/2000/svg" xmlns:xlink="http://www.w3.org/1999/xlink"><svg width="165" height="70" viewBox="0 0 43.656 18.521" id="custom-software" xmlns="http://www.w3.org/2000/svg"><defs><filter id="aa" x="-.016" width="1.033" y="-.049" height="1.098" color-interpolation-filters="sRGB"><feGaussianBlur stdDeviation="1.818"/></filter><filter id="ab" x="-.014" width="1.028" y="-.086" height="1.172" color-interpolation-filters="sRGB"><feGaussianBlur stdDeviation="1.701"/></filter></defs><g font-weight="400" font-family="Terminator Real NFI" letter-spacing="0" word-spacing="0" stroke-width=".265"><g aria-label="&lt;CUSTOMIZED/>" style="line-height:1.25;-inkscape-font-specification:'Terminator Real NFI, Normal';font-variant-ligatures:normal;font-variant-caps:normal;font-variant-numeric:normal;font-feature-settings:normal;text-align:start" transform="matrix(.15583 0 0 .12088 -1.165 -21.577)" font-size="19.756" opacity=".95" filter="url(#aa)"><path d="M28.769 242.85a1752.994 1752.994 0 0 0-10.11 16.566c3.35 1.383 6.716 2.79 10.106 4.23 0 4.65.002 9.298.004 13.947a1025.482 1025.482 0 0 0-10.452-4.2c-1.74-2.27-3.132-4.619-3.132-11.799 0-6.851 1.447-11.585 3.135-15.796 3.463-5.734 6.95-11.438 10.458-17.1l-.01 14.153zM35.269 260.744c-.722.417-.815-1.238-.814-3.607l.003-16.183c0-1.578.002-3.159.834-3.639a431.797 431.797 0 0 1 15.207-8.38l.005-12.424a433.412 433.412 0 0 0-15.185 8.357c-2.498 1.438-4.178 8.485-4.384 16.5-.003 6.648-.004 13.293-.004 19.938 0 9.081 1.806 13.662 4.359 12.185a425.904 425.904 0 0 1 15.245-8.427l-.001-12.75a428.131 428.131 0 0 0-15.265 8.43zM68.915 239.99c0 1.775.001 3.415-.854 3.803a326.04 326.04 0 0 0-10.98 5.234c-.745.372-.84-1.287-.84-3.653 0-10.6.001-21.203.005-31.807a364.621 364.621 0 0 0-3.63 1.847c-.006 11.307-.009 22.612-.009 33.915 0 9.071 1.86 13.751 4.495 12.435a324.992 324.992 0 0 1 11.001-5.247c2.762-1.252 4.582-7.35 4.579-16.744-.004-11.297-.006-22.593-.007-33.89a298.26 298.26 0 0 0-3.743 1.65l-.017 32.458zM92.054 216.685c4.418-1.502 5.104 5.003 5.113 13.702.01 8.765-.704 15.08-5.047 16.554a222.932 222.932 0 0 0-6.384 2.276 268.822 268.822 0 0 0-10.315 4.099l-.005-12.15a269.194 269.194 0 0 1 10.311-4.097 230.59 230.59 0 0 1 6.303-2.248c1.214-.413 1.233-2.974 1.25-6.201a221.028 221.028 0 0 0-7.557 2.671c-2.1.784-4.188 1.595-6.265 2.431-4.148 1.67-4.97-4.224-4.972-13.05-.002-9.36.423-15.726 4.96-17.55a264.862 264.862 0 0 1 8.95-3.413c2.554-.92 5.126-1.793 7.715-2.617l.014 12.343a217.24 217.24 0 0 0-10.413 3.604c-2.432.907-4.848 1.85-7.25 2.828 0 2.562.001 5.908.99 5.51a264.568 264.568 0 0 1 8.96-3.418c1.21-.435 2.424-.86 3.642-1.274zM99.084 196.17c7.15-2.157 14.42-3.925 21.764-5.222l.016 12.406c-3.01.533-6.008 1.144-8.99 1.83.015 12.036.033 24.07.053 36.105-1.291.297-2.58.608-3.865.932l-.05-35.977c-2.989.752-5.961 1.577-8.913 2.467l-.015-12.54zM144.876 203.841c-.016-9.03-1.725-15.386-5.022-15.197-4.04.231-8.071.623-12.084 1.162-2.851.383-4.758 6.818-4.978 14.728.009 6.63.02 13.257.032 19.885.016 9.06 2.09 14.343 5.007 13.945a162.11 162.11 0 0 1 12.118-1.2c3.026-.184 4.99-5.527 4.966-14.905-.016-6.14-.03-12.279-.04-18.418zm-4.076 17.142c.004 1.772.008 3.406-.928 3.463-4.043.244-8.075.645-12.09 1.192-.823.113-.932-1.575-.936-3.938-.01-5.38-.02-10.761-.027-16.142-.002-1.573-.005-3.153.945-3.281 4.02-.543 8.057-.94 12.105-1.176.872-.05.896 1.985.9 4.016.008 5.288.019 10.577.031 15.866zM150.91 236.894a144.044 144.044 0 0 0-3.801.002c-.041-11.84-.071-23.68-.09-35.518-.006-3.958.638-8.08 1.654-10.584.598-1.476 1.326-2.39 2.125-2.376.175.003.347.053.515.146 1.932 1.064 3.345 7.756 4.038 12.966-.122-.91 3.461 25.64 3.34 24.73 1.085-8.124 2.17-16.188 3.269-24.278.733-5.493 2.254-12.74 4.497-12.467 2.282.278 3.782 6.78 3.795 13.436.022 11.8.066 23.604.132 35.412a165.276 165.276 0 0 0-3.79-.475c-.06-11.814-.102-23.625-.123-35.433-1.235 8.3-2.455 16.568-3.677 24.91-1.014 6.915-1.774 11.214-4.054 11.07-2.003-.128-3.306-6.065-4.135-11.665l-3.27-21.882-.521-3.499c.02 11.836.051 23.67.096 35.505zM176.63 191.078c.014 16.087.07 32.184.167 48.29-1.444-.255-2.89-.49-4.34-.708a9490.157 9490.157 0 0 1-.153-48.325c1.445.229 2.887.477 4.326.743zM198.237 196.444c4.05 1.254 4.067 7.11 4.099 14.224.027 5.977-1.248 10.094-3.141 10.805a253.278 253.278 0 0 0-15.416 6.504 196.17 196.17 0 0 1 17.945 4.872c.026 4.247.055 8.495.086 12.743a194.765 194.765 0 0 0-18.352-4.921c-4.771-1.028-4.851-6.274-4.889-14.152-.028-5.78-.034-8.588 3.798-11.419 5.23-2.42 10.402-4.59 15.524-6.557a191.39 191.39 0 0 0-18.754-4.729c-.01-4.086-.016-8.172-.02-12.257 6.446 1.29 12.828 2.94 19.12 4.887zM224.66 206.414l.082 12.33a282.447 282.447 0 0 0-13.33-5.45c-.828-.312-1.658-.62-2.49-.924-.803-.293-.894 1.622-.883 3.698l.008 1.559a228.304 228.304 0 0 1 4.823 1.794 279.47 279.47 0 0 1 11.908 4.903l.082 12.394a272.983 272.983 0 0 0-13.344-5.441 224.667 224.667 0 0 0-3.378-1.24l.007 1.105c.015 2.339.127 4.126.912 4.41a223.778 223.778 0 0 1 3.922 1.461 270.34 270.34 0 0 1 11.916 4.896l.082 12.523a264.12 264.12 0 0 0-13.342-5.428c-.829-.31-1.66-.615-2.493-.916-2.836-1.023-4.832-7.703-4.888-16.936-.036-5.805-.068-11.608-.096-17.41-.042-8.576 2.001-14.63 4.706-13.64a233.854 233.854 0 0 1 3.912 1.456c4 1.53 7.96 3.152 11.884 4.856zM226.735 255.21a311.439 311.439 0 0 1 15.543 7.48c2.56 1.318 4.254-3.796 4.401-11.501-.035-6.566-.076-13.135-.124-19.707-.065-8.981-1.988-15.564-4.612-16.892a350.09 350.09 0 0 0-15.528-7.4c.11 16.008.216 32.015.32 48.02zm3.458-33.755a347.608 347.608 0 0 1 11.888 5.77c.742.378.85 2.119.867 4.459.038 5.331.072 10.66.103 15.989.01 1.56.018 3.117-.837 2.678a327.994 327.994 0 0 0-11.865-5.79l-.156-23.106zM266.442 227.955c-4.404 13.527-8.92 27.008-13.47 40.47a384.817 384.817 0 0 0-4.875-2.67c4.577-13.511 9.12-27.025 13.55-40.554a602.03 602.03 0 0 1 4.795 2.754zM268.033 242.926a1302.524 1302.524 0 0 1 10.171 16.52c-3.355 1.38-6.71 2.76-10.096 4.166.007 4.62.008 9.237.002 13.85 3.496-1.379 6.967-2.727 10.432-4.07 1.74-2.245 3.146-4.594 3.144-11.77-.002-6.854-1.47-11.59-3.178-15.79a1412.12 1412.12 0 0 0-10.576-17.01c.04 4.705.074 9.406.1 14.104z" style="-inkscape-font-specification:'Terminator Real NFI, Normal';font-variant-ligatures:normal;font-variant-caps:normal;font-variant-numeric:normal;font-feature-settings:normal;text-align:start"/></g><g aria-label="&lt;CUSTOMIZED/>" style="line-height:1.25;-inkscape-font-specification:'Terminator Real NFI, Normal';font-variant-ligatures:normal;font-variant-caps:normal;font-variant-numeric:normal;font-feature-settings:normal;text-align:start" font-size="19.756" fill="#d59541" stroke="#000"><path d="M28.769 242.85a1752.994 1752.994 0 0 0-10.11 16.566c3.35 1.383 6.716 2.79 10.106 4.23 0 4.65.002 9.298.004 13.947a1025.482 1025.482 0 0 0-10.452-4.2c-1.74-2.27-3.132-4.619-3.132-11.799 0-6.851 1.447-11.585 3.135-15.796 3.463-5.734 6.95-11.438 10.458-17.1l-.01 14.153zM35.269 260.744c-.722.417-.815-1.238-.814-3.607l.003-16.183c0-1.578.002-3.159.834-3.639a431.797 431.797 0 0 1 15.207-8.38l.005-12.424a433.412 433.412 0 0 0-15.185 8.357c-2.498 1.438-4.178 8.485-4.384 16.5-.003 6.648-.004 13.293-.004 19.938 0 9.081 1.806 13.662 4.359 12.185a425.904 425.904 0 0 1 15.245-8.427l-.001-12.75a428.131 428.131 0 0 0-15.265 8.43zM68.915 239.99c0 1.775.001 3.415-.854 3.803a326.04 326.04 0 0 0-10.98 5.234c-.745.372-.84-1.287-.84-3.653 0-10.6.001-21.203.005-31.807a364.621 364.621 0 0 0-3.63 1.847c-.006 11.307-.009 22.612-.009 33.915 0 9.071 1.86 13.751 4.495 12.435a324.992 324.992 0 0 1 11.001-5.247c2.762-1.252 4.582-7.35 4.579-16.744-.004-11.297-.006-22.593-.007-33.89a298.26 298.26 0 0 0-3.743 1.65l-.017 32.458zM92.054 216.685c4.418-1.502 5.104 5.003 5.113 13.702.01 8.765-.704 15.08-5.047 16.554a222.932 222.932 0 0 0-6.384 2.276 268.822 268.822 0 0 0-10.315 4.099l-.005-12.15a269.194 269.194 0 0 1 10.311-4.097 230.59 230.59 0 0 1 6.303-2.248c1.214-.413 1.233-2.974 1.25-6.201a221.028 221.028 0 0 0-7.557 2.671c-2.1.784-4.188 1.595-6.265 2.431-4.148 1.67-4.97-4.224-4.972-13.05-.002-9.36.423-15.726 4.96-17.55a264.862 264.862 0 0 1 8.95-3.413c2.554-.92 5.126-1.793 7.715-2.617l.014 12.343a217.24 217.24 0 0 0-10.413 3.604c-2.432.907-4.848 1.85-7.25 2.828 0 2.562.001 5.908.99 5.51a264.568 264.568 0 0 1 8.96-3.418c1.21-.435 2.424-.86 3.642-1.274zM99.084 196.17c7.15-2.157 14.42-3.925 21.764-5.222l.016 12.406c-3.01.533-6.008 1.144-8.99 1.83.015 12.036.033 24.07.053 36.105-1.291.297-2.58.608-3.865.932l-.05-35.977c-2.989.752-5.961 1.577-8.913 2.467l-.015-12.54zM144.876 203.841c-.016-9.03-1.725-15.386-5.022-15.197-4.04.231-8.071.623-12.084 1.162-2.851.383-4.758 6.818-4.978 14.728.009 6.63.02 13.257.032 19.885.016 9.06 2.09 14.343 5.007 13.945a162.11 162.11 0 0 1 12.118-1.2c3.026-.184 4.99-5.527 4.966-14.905-.016-6.14-.03-12.279-.04-18.418zm-4.076 17.142c.004 1.772.008 3.406-.928 3.463-4.043.244-8.075.645-12.09 1.192-.823.113-.932-1.575-.936-3.938-.01-5.38-.02-10.761-.027-16.142-.002-1.573-.005-3.153.945-3.281 4.02-.543 8.057-.94 12.105-1.176.872-.05.896 1.985.9 4.016.008 5.288.019 10.577.031 15.866zM150.91 236.894a144.044 144.044 0 0 0-3.801.002c-.041-11.84-.071-23.68-.09-35.518-.006-3.958.638-8.08 1.654-10.584.598-1.476 1.326-2.39 2.125-2.376.175.003.347.053.515.146 1.932 1.064 3.345 7.756 4.038 12.966-.122-.91 3.461 25.64 3.34 24.73 1.085-8.124 2.17-16.188 3.269-24.278.733-5.493 2.254-12.74 4.497-12.467 2.282.278 3.782 6.78 3.795 13.436.022 11.8.066 23.604.132 35.412a165.276 165.276 0 0 0-3.79-.475c-.06-11.814-.102-23.625-.123-35.433-1.235 8.3-2.455 16.568-3.677 24.91-1.014 6.915-1.774 11.214-4.054 11.07-2.003-.128-3.306-6.065-4.135-11.665l-3.27-21.882-.521-3.499c.02 11.836.051 23.67.096 35.505zM176.63 191.078c.014 16.087.07 32.184.167 48.29-1.444-.255-2.89-.49-4.34-.708a9490.157 9490.157 0 0 1-.153-48.325c1.445.229 2.887.477 4.326.743zM198.237 196.444c4.05 1.254 4.067 7.11 4.099 14.224.027 5.977-1.248 10.094-3.141 10.805a253.278 253.278 0 0 0-15.416 6.504 196.17 196.17 0 0 1 17.945 4.872c.026 4.247.055 8.495.086 12.743a194.765 194.765 0 0 0-18.352-4.921c-4.771-1.028-4.851-6.274-4.889-14.152-.028-5.78-.034-8.588 3.798-11.419 5.23-2.42 10.402-4.59 15.524-6.557a191.39 191.39 0 0 0-18.754-4.729c-.01-4.086-.016-8.172-.02-12.257 6.446 1.29 12.828 2.94 19.12 4.887zM224.66 206.414l.082 12.33a282.447 282.447 0 0 0-13.33-5.45c-.828-.312-1.658-.62-2.49-.924-.803-.293-.894 1.622-.883 3.698l.008 1.559a228.304 228.304 0 0 1 4.823 1.794 279.47 279.47 0 0 1 11.908 4.903l.082 12.394a272.983 272.983 0 0 0-13.344-5.441 224.667 224.667 0 0 0-3.378-1.24l.007 1.105c.015 2.339.127 4.126.912 4.41a223.778 223.778 0 0 1 3.922 1.461 270.34 270.34 0 0 1 11.916 4.896l.082 12.523a264.12 264.12 0 0 0-13.342-5.428c-.829-.31-1.66-.615-2.493-.916-2.836-1.023-4.832-7.703-4.888-16.936-.036-5.805-.068-11.608-.096-17.41-.042-8.576 2.001-14.63 4.706-13.64a233.854 233.854 0 0 1 3.912 1.456c4 1.53 7.96 3.152 11.884 4.856zM226.735 255.21a311.439 311.439 0 0 1 15.543 7.48c2.56 1.318 4.254-3.796 4.401-11.501-.035-6.566-.076-13.135-.124-19.707-.065-8.981-1.988-15.564-4.612-16.892a350.09 350.09 0 0 0-15.528-7.4c.11 16.008.216 32.015.32 48.02zm3.458-33.755a347.608 347.608 0 0 1 11.888 5.77c.742.378.85 2.119.867 4.459.038 5.331.072 10.66.103 15.989.01 1.56.018 3.117-.837 2.678a327.994 327.994 0 0 0-11.865-5.79l-.156-23.106zM266.442 227.955c-4.404 13.527-8.92 27.008-13.47 40.47a384.817 384.817 0 0 0-4.875-2.67c4.577-13.511 9.12-27.025 13.55-40.554a602.03 602.03 0 0 1 4.795 2.754zM268.033 242.926a1302.524 1302.524 0 0 1 10.171 16.52c-3.355 1.38-6.71 2.76-10.096 4.166.007 4.62.008 9.237.002 13.85 3.496-1.379 6.967-2.727 10.432-4.07 1.74-2.245 3.146-4.594 3.144-11.77-.002-6.854-1.47-11.59-3.178-15.79a1412.12 1412.12 0 0 0-10.576-17.01c.04 4.705.074 9.406.1 14.104z" style="-inkscape-font-specification:'Terminator Real NFI, Normal';font-variant-ligatures:normal;font-variant-caps:normal;font-variant-numeric:normal;font-feature-settings:normal;text-align:start" transform="matrix(.15583 0 0 .12088 -1.393 -21.897)"/></g><g aria-label="JLCUSTOMSOFTWARE.NET" style="line-height:1.25;-inkscape-font-specification:'Terminator Real NFI, Normal';font-variant-ligatures:normal;font-variant-caps:normal;font-variant-numeric:normal;font-feature-settings:normal;text-align:start" transform="matrix(.14316 0 0 .12088 .599 -13.978)" font-size="14.111" opacity=".95" filter="url(#ab)"><path d="M11.195 222.845c-.178.337-.343.65-.895.357a379.255 379.255 0 0 1-7.113-3.862l-1.331 2.392a380.14 380.14 0 0 0 7.188 3.905c1.8.953 3.506.543 4.433-1.25l3.349-6.47c-.795-.41-1.588-.825-2.38-1.242zM17.227 226.775c-.495-.249-.393-.61-.164-1.063l3.077-6.102c-.79-.398-1.58-.8-2.367-1.204l-3.33 6.48c-.89 1.732-.203 3.454 1.568 4.343a353.233 353.233 0 0 0 7.337 3.58l1.172-2.476a351.524 351.524 0 0 1-7.293-3.558zM28.798 232.308c-.504-.23-.415-.594-.203-1.056l1.449-3.156c.141-.309.282-.616.855-.354a323.743 323.743 0 0 0 10.43 4.548l1.023-2.463a321.392 321.392 0 0 1-10.331-4.506c-1.701-.777-3.4-.142-4.259 1.327l-1.815 3.874c-.827 1.763-.079 3.459 1.726 4.283 3.54 1.617 7.11 3.173 10.708 4.665l1.049-2.529a328.16 328.16 0 0 1-10.632-4.633zM52.37 241.209c-.13.357-.251.69-.839.475a306.711 306.711 0 0 1-7.57-2.889c-.515-.204-.444-.572-.256-1.043l2.531-6.343c-.82-.327-1.638-.658-2.455-.993l-2.757 6.74c-.737 1.8.096 3.457 1.942 4.189a309.622 309.622 0 0 0 7.65 2.918c1.92.702 3.554.063 4.226-1.837l2.427-6.86c-.835-.296-1.67-.596-2.502-.9l-2.397 6.543zM68.948 243.525c2.923.878 2.99 2.35 2.47 4.164-.514 1.793-1.364 2.956-4.313 2.07a290.24 290.24 0 0 1-11.43-3.695l.853-2.465a286.943 286.943 0 0 0 11.273 3.645c.818.246.988-.28 1.198-.937a283.059 283.059 0 0 1-9.317-2.945c-2.825-.947-2.927-2.442-2.308-4.217.668-1.916 1.382-3.024 4.396-2.014a273.3 273.3 0 0 0 10.972 3.425l-.737 2.547a277.198 277.198 0 0 1-11.74-3.681c-.175.52-.406 1.203.26 1.426 2.793.936 5.601 1.83 8.423 2.677zM74.679 241.108a259.123 259.123 0 0 0 14.06 3.527l-.576 2.604a253.106 253.106 0 0 1-5.847-1.364l-1.852 7.537a258.871 258.871 0 0 1-2.595-.653l1.921-7.489c-1.953-.5-3.9-1.024-5.84-1.569zM103.617 250.796c.301-1.927-.589-3.442-2.692-3.798-2.588-.44-5.17-.918-7.742-1.438-1.821-.368-3.331.645-3.838 2.27l-.901 4.179c-.41 1.902.703 3.389 2.658 3.783 2.685.543 5.377 1.043 8.078 1.5 2.022.343 3.514-.587 3.825-2.579zm-3.27 3.173c-.062.375-.12.725-.738.62a259.252 259.252 0 0 1-7.979-1.483c-.545-.11-.54-.484-.439-.982l.696-3.4c.068-.333.136-.663.751-.539 2.605.526 5.219 1.012 7.839 1.456.564.095.506.528.434.96l-.563 3.368zM106.484 258.425c-.845-.119-1.69-.242-2.534-.37l1.139-7.561c.202-1.34 1.474-2.602 2.85-2.409 1.403.198 2.23 1.898 2.56 3.164.485 1.841.986 3.68 1.502 5.52a360.35 360.35 0 0 0 2.81-5.002c.62-1.138 1.785-2.612 3.236-2.467 1.48.147 2.341 1.581 2.212 3.016l-.684 7.617c-.855-.077-1.71-.158-2.563-.243l.758-7.61c-1 1.73-2.018 3.453-3.053 5.17-.858 1.423-1.5 2.308-3.029 2.124-1.347-.162-2.042-1.534-2.423-2.793a340.976 340.976 0 0 1-1.716-5.73zM133.783 254.312c3.051.11 3.49 1.516 3.447 3.404-.042 1.865-.57 3.209-3.653 3.097-4.012-.144-8.02-.381-12.02-.71l.213-2.602c3.942.324 7.891.558 11.844.702.855.03.887-.521.924-1.21a258.241 258.241 0 0 1-9.769-.507c-2.976-.211-3.446-1.638-3.287-3.511.171-2.024.588-3.272 3.752-3.048 3.818.27 7.641.454 11.467.55l-.067 2.652a254.255 254.255 0 0 1-12.284-.606c-.04.548-.093 1.267.607 1.317 2.94.208 5.882.365 8.826.472zM153.239 253.65c-.029-.705-.201-1.328-.51-1.833-.543-.888-1.506-1.407-2.869-1.37a250.05 250.05 0 0 1-7.873.093c-1.857-.007-3.142 1.279-3.325 2.97l-.073 4.275c-.033 1.946 1.348 3.188 3.342 3.196 2.739.012 5.478-.02 8.216-.095 1.34-.037 2.359-.566 2.875-1.494.272-.487.405-1.084.377-1.78zm-2.591 3.749c.011.38.022.734-.605.751-2.704.074-5.41.105-8.115.094-.556-.002-.624-.37-.621-.878l.023-3.471c.002-.34.005-.677.633-.674 2.657.01 5.315-.02 7.971-.093.572-.016.6.42.612.857zM168.713 249.243l.265 2.667c-3.702.368-7.41.662-11.123.878-.558.033-.604.458-.58.91l.02.337c3.94-.22 7.876-.527 11.803-.918l.267 2.68c-3.96.394-7.93.705-11.906.928l.215 3.845c-.923.052-1.847.099-2.771.141l-.323-7.09c-.085-1.86 1.266-3.387 3.12-3.494 3.675-.218 7.347-.514 11.013-.884zM170.22 249.103a290.582 290.582 0 0 0 14.406-1.883l.41 2.635c-1.98.309-3.964.598-5.95.866l1.04 7.689c-.88.119-1.762.234-2.645.346l-.969-7.67a286.68 286.68 0 0 1-6.01.696zM187.892 246.693c.88 2.404 1.77 4.806 2.671 7.205.256-1.982.502-3.963.737-5.944.158-1.348.86-2.23 2.167-2.473 1.13-.21 2.26.449 2.829 1.546.92 1.768 1.85 3.532 2.789 5.294a908.288 908.288 0 0 0-.057-7.692c.853-.174 1.706-.35 2.558-.531.08 2.82.148 5.643.204 8.466.034 1.363-.849 2.324-2.158 2.584-1.295.257-2.387-.34-3.01-1.557a622.7 622.7 0 0 1-2.627-5.266 580.258 580.258 0 0 1-.678 5.877c-.16 1.362-.951 2.308-2.31 2.54-1.386.238-2.425-.252-2.926-1.643-.97-2.653-1.928-5.31-2.871-7.97.894-.142 1.789-.287 2.682-.436zM202.477 246.275l1.69 7.94c.873-.186 1.746-.375 2.618-.567l-.579-2.62c1.67-.368 3.337-.75 5.002-1.142 1.076.665 2.159 1.325 3.246 1.98 1.358-.331 2.714-.67 4.068-1.016a341.497 341.497 0 0 1-11.74-7.04c-.8-.498-1.534-.666-2.28-.502-1.3.287-2.41 1.16-2.03 2.94zm2.627-.237c1.127.73 2.26 1.454 3.401 2.172-.927.213-1.854.421-2.783.626zM216.633 240.565a381.554 381.554 0 0 0 11.344-3.107c2.486-.72 2.717.05 3.424 2.436.341 1.15.16 1.278-.05 1.913.407.336.86.467 1.064 1.156.527 1.198 1.056 2.394 1.587 3.59-.89.266-1.78.528-2.67.787-.513-1.202-1.026-2.405-1.536-3.608a414.698 414.698 0 0 1-8.889 2.47l1 3.765c-.894.237-1.789.472-2.685.703-.862-3.369-1.725-6.737-2.589-10.105zm3.601 3.1a386.058 386.058 0 0 0 8.237-2.282c.473-.136.425-.754.248-1.364a408.296 408.296 0 0 1-8.804 2.445zM245.745 231.88l.853 2.54a464.181 464.181 0 0 1-10.663 3.438c-.536.166-.479.59-.346 1.022l.1.324a464.595 464.595 0 0 0 11.295-3.633l.857 2.554a468.418 468.418 0 0 1-11.347 3.65l.07.23c.15.484.329.828.857.665a471.19 471.19 0 0 0 10.78-3.475l.865 2.581a475.013 475.013 0 0 1-10.84 3.495c-1.927.595-3.613-.27-4.19-2.189l-1.088-3.62c-.536-1.783.408-3.597 2.2-4.15 3.544-1.1 7.077-2.246 10.597-3.433zM249.958 241.476l-.925-2.74c.962-.325 1.923-.652 2.883-.983l.941 2.735c-.965.332-1.931.662-2.899.988zM251.322 232.435c-.454-1.306.38-2.745 1.653-3.194.725-.256 1.477-.179 2.332.22a520.433 520.433 0 0 0 8.993 3.991l-2.675-7.196c.82-.305 1.641-.612 2.461-.922l2.708 7.185c.587 1.558-.14 3.13-1.491 3.632-.73.271-1.323.174-3.307-.586a512.508 512.508 0 0 1-8.091-3.69l2.59 7.345c-.837.296-1.675.589-2.514.88zM278.796 219.575l1.008 2.486a661.112 661.112 0 0 1-10.441 4.131c-.525.202-.438.623-.276 1.044l.121.316a658.909 658.909 0 0 0 11.052-4.366l1.013 2.498a660.017 660.017 0 0 1-11.084 4.38l.086.224c.182.474.385.804.9.606a662.689 662.689 0 0 0 10.522-4.163l1.023 2.525a663.506 663.506 0 0 1-10.564 4.18c-1.875.722-3.615-.024-4.326-1.897l-1.342-3.537c-.66-1.742.157-3.62 1.915-4.299a660.373 660.373 0 0 0 10.393-4.128zM279.957 219.119a795.076 795.076 0 0 0 13.56-5.677l1.053 2.451a845.168 845.168 0 0 1-5.565 2.366l3.01 7.155c-.81.341-1.622.681-2.435 1.02l-2.977-7.139c-1.873.781-3.75 1.555-5.629 2.32z" style="-inkscape-font-specification:'Terminator Real NFI, Normal';font-variant-ligatures:normal;font-variant-caps:normal;font-variant-numeric:normal;font-feature-settings:normal;text-align:start"/></g><g aria-label="JLCUSTOMSOFTWARE.NET" style="line-height:1.25;-inkscape-font-specification:'Terminator Real NFI, Normal';font-variant-ligatures:normal;font-variant-caps:normal;font-variant-numeric:normal;font-feature-settings:normal;text-align:start" font-size="14.111" fill="#d59541" stroke="#000"><path d="M11.195 222.845c-.178.337-.343.65-.895.357a379.255 379.255 0 0 1-7.113-3.862l-1.331 2.392a380.14 380.14 0 0 0 7.188 3.905c1.8.953 3.506.543 4.433-1.25l3.349-6.47c-.795-.41-1.588-.825-2.38-1.242zM17.227 226.775c-.495-.249-.393-.61-.164-1.063l3.077-6.102c-.79-.398-1.58-.8-2.367-1.204l-3.33 6.48c-.89 1.732-.203 3.454 1.568 4.343a353.233 353.233 0 0 0 7.337 3.58l1.172-2.476a351.524 351.524 0 0 1-7.293-3.558zM28.798 232.308c-.504-.23-.415-.594-.203-1.056l1.449-3.156c.141-.309.282-.616.855-.354a323.743 323.743 0 0 0 10.43 4.548l1.023-2.463a321.392 321.392 0 0 1-10.331-4.506c-1.701-.777-3.4-.142-4.259 1.327l-1.815 3.874c-.827 1.763-.079 3.459 1.726 4.283 3.54 1.617 7.11 3.173 10.708 4.665l1.049-2.529a328.16 328.16 0 0 1-10.632-4.633zM52.37 241.209c-.13.357-.251.69-.839.475a306.711 306.711 0 0 1-7.57-2.889c-.515-.204-.444-.572-.256-1.043l2.531-6.343c-.82-.327-1.638-.658-2.455-.993l-2.757 6.74c-.737 1.8.096 3.457 1.942 4.189a309.622 309.622 0 0 0 7.65 2.918c1.92.702 3.554.063 4.226-1.837l2.427-6.86c-.835-.296-1.67-.596-2.502-.9l-2.397 6.543zM68.948 243.525c2.923.878 2.99 2.35 2.47 4.164-.514 1.793-1.364 2.956-4.313 2.07a290.24 290.24 0 0 1-11.43-3.695l.853-2.465a286.943 286.943 0 0 0 11.273 3.645c.818.246.988-.28 1.198-.937a283.059 283.059 0 0 1-9.317-2.945c-2.825-.947-2.927-2.442-2.308-4.217.668-1.916 1.382-3.024 4.396-2.014a273.3 273.3 0 0 0 10.972 3.425l-.737 2.547a277.198 277.198 0 0 1-11.74-3.681c-.175.52-.406 1.203.26 1.426 2.793.936 5.601 1.83 8.423 2.677zM74.679 241.108a259.123 259.123 0 0 0 14.06 3.527l-.576 2.604a253.106 253.106 0 0 1-5.847-1.364l-1.852 7.537a258.871 258.871 0 0 1-2.595-.653l1.921-7.489c-1.953-.5-3.9-1.024-5.84-1.569zM103.617 250.796c.301-1.927-.589-3.442-2.692-3.798-2.588-.44-5.17-.918-7.742-1.438-1.821-.368-3.331.645-3.838 2.27l-.901 4.179c-.41 1.902.703 3.389 2.658 3.783 2.685.543 5.377 1.043 8.078 1.5 2.022.343 3.514-.587 3.825-2.579zm-3.27 3.173c-.062.375-.12.725-.738.62a259.252 259.252 0 0 1-7.979-1.483c-.545-.11-.54-.484-.439-.982l.696-3.4c.068-.333.136-.663.751-.539 2.605.526 5.219 1.012 7.839 1.456.564.095.506.528.434.96l-.563 3.368zM106.484 258.425c-.845-.119-1.69-.242-2.534-.37l1.139-7.561c.202-1.34 1.474-2.602 2.85-2.409 1.403.198 2.23 1.898 2.56 3.164.485 1.841.986 3.68 1.502 5.52a360.35 360.35 0 0 0 2.81-5.002c.62-1.138 1.785-2.612 3.236-2.467 1.48.147 2.341 1.581 2.212 3.016l-.684 7.617c-.855-.077-1.71-.158-2.563-.243l.758-7.61c-1 1.73-2.018 3.453-3.053 5.17-.858 1.423-1.5 2.308-3.029 2.124-1.347-.162-2.042-1.534-2.423-2.793a340.976 340.976 0 0 1-1.716-5.73zM133.783 254.312c3.051.11 3.49 1.516 3.447 3.404-.042 1.865-.57 3.209-3.653 3.097-4.012-.144-8.02-.381-12.02-.71l.213-2.602c3.942.324 7.891.558 11.844.702.855.03.887-.521.924-1.21a258.241 258.241 0 0 1-9.769-.507c-2.976-.211-3.446-1.638-3.287-3.511.171-2.024.588-3.272 3.752-3.048 3.818.27 7.641.454 11.467.55l-.067 2.652a254.255 254.255 0 0 1-12.284-.606c-.04.548-.093 1.267.607 1.317 2.94.208 5.882.365 8.826.472zM153.239 253.65c-.029-.705-.201-1.328-.51-1.833-.543-.888-1.506-1.407-2.869-1.37a250.05 250.05 0 0 1-7.873.093c-1.857-.007-3.142 1.279-3.325 2.97l-.073 4.275c-.033 1.946 1.348 3.188 3.342 3.196 2.739.012 5.478-.02 8.216-.095 1.34-.037 2.359-.566 2.875-1.494.272-.487.405-1.084.377-1.78zm-2.591 3.749c.011.38.022.734-.605.751-2.704.074-5.41.105-8.115.094-.556-.002-.624-.37-.621-.878l.023-3.471c.002-.34.005-.677.633-.674 2.657.01 5.315-.02 7.971-.093.572-.016.6.42.612.857zM168.713 249.243l.265 2.667c-3.702.368-7.41.662-11.123.878-.558.033-.604.458-.58.91l.02.337c3.94-.22 7.876-.527 11.803-.918l.267 2.68c-3.96.394-7.93.705-11.906.928l.215 3.845c-.923.052-1.847.099-2.771.141l-.323-7.09c-.085-1.86 1.266-3.387 3.12-3.494 3.675-.218 7.347-.514 11.013-.884zM170.22 249.103a290.582 290.582 0 0 0 14.406-1.883l.41 2.635c-1.98.309-3.964.598-5.95.866l1.04 7.689c-.88.119-1.762.234-2.645.346l-.969-7.67a286.68 286.68 0 0 1-6.01.696zM187.892 246.693c.88 2.404 1.77 4.806 2.671 7.205.256-1.982.502-3.963.737-5.944.158-1.348.86-2.23 2.167-2.473 1.13-.21 2.26.449 2.829 1.546.92 1.768 1.85 3.532 2.789 5.294a908.288 908.288 0 0 0-.057-7.692c.853-.174 1.706-.35 2.558-.531.08 2.82.148 5.643.204 8.466.034 1.363-.849 2.324-2.158 2.584-1.295.257-2.387-.34-3.01-1.557a622.7 622.7 0 0 1-2.627-5.266 580.258 580.258 0 0 1-.678 5.877c-.16 1.362-.951 2.308-2.31 2.54-1.386.238-2.425-.252-2.926-1.643-.97-2.653-1.928-5.31-2.871-7.97.894-.142 1.789-.287 2.682-.436zM202.477 246.275l1.69 7.94c.873-.186 1.746-.375 2.618-.567l-.579-2.62c1.67-.368 3.337-.75 5.002-1.142 1.076.665 2.159 1.325 3.246 1.98 1.358-.331 2.714-.67 4.068-1.016a341.497 341.497 0 0 1-11.74-7.04c-.8-.498-1.534-.666-2.28-.502-1.3.287-2.41 1.16-2.03 2.94zm2.627-.237c1.127.73 2.26 1.454 3.401 2.172-.927.213-1.854.421-2.783.626zM216.633 240.565a381.554 381.554 0 0 0 11.344-3.107c2.486-.72 2.717.05 3.424 2.436.341 1.15.16 1.278-.05 1.913.407.336.86.467 1.064 1.156.527 1.198 1.056 2.394 1.587 3.59-.89.266-1.78.528-2.67.787-.513-1.202-1.026-2.405-1.536-3.608a414.698 414.698 0 0 1-8.889 2.47l1 3.765c-.894.237-1.789.472-2.685.703-.862-3.369-1.725-6.737-2.589-10.105zm3.601 3.1a386.058 386.058 0 0 0 8.237-2.282c.473-.136.425-.754.248-1.364a408.296 408.296 0 0 1-8.804 2.445zM245.745 231.88l.853 2.54a464.181 464.181 0 0 1-10.663 3.438c-.536.166-.479.59-.346 1.022l.1.324a464.595 464.595 0 0 0 11.295-3.633l.857 2.554a468.418 468.418 0 0 1-11.347 3.65l.07.23c.15.484.329.828.857.665a471.19 471.19 0 0 0 10.78-3.475l.865 2.581a475.013 475.013 0 0 1-10.84 3.495c-1.927.595-3.613-.27-4.19-2.189l-1.088-3.62c-.536-1.783.408-3.597 2.2-4.15 3.544-1.1 7.077-2.246 10.597-3.433zM249.958 241.476l-.925-2.74c.962-.325 1.923-.652 2.883-.983l.941 2.735c-.965.332-1.931.662-2.899.988zM251.322 232.435c-.454-1.306.38-2.745 1.653-3.194.725-.256 1.477-.179 2.332.22a520.433 520.433 0 0 0 8.993 3.991l-2.675-7.196c.82-.305 1.641-.612 2.461-.922l2.708 7.185c.587 1.558-.14 3.13-1.491 3.632-.73.271-1.323.174-3.307-.586a512.508 512.508 0 0 1-8.091-3.69l2.59 7.345c-.837.296-1.675.589-2.514.88zM278.796 219.575l1.008 2.486a661.112 661.112 0 0 1-10.441 4.131c-.525.202-.438.623-.276 1.044l.121.316a658.909 658.909 0 0 0 11.052-4.366l1.013 2.498a660.017 660.017 0 0 1-11.084 4.38l.086.224c.182.474.385.804.9.606a662.689 662.689 0 0 0 10.522-4.163l1.023 2.525a663.506 663.506 0 0 1-10.564 4.18c-1.875.722-3.615-.024-4.326-1.897l-1.342-3.537c-.66-1.742.157-3.62 1.915-4.299a660.373 660.373 0 0 0 10.393-4.128zM279.957 219.119a795.076 795.076 0 0 0 13.56-5.677l1.053 2.451a845.168 845.168 0 0 1-5.565 2.366l3.01 7.155c-.81.341-1.622.681-2.435 1.02l-2.977-7.139c-1.873.781-3.75 1.555-5.629 2.32z" style="-inkscape-font-specification:'Terminator Real NFI, Normal';font-variant-ligatures:normal;font-variant-caps:normal;font-variant-numeric:normal;font-feature-settings:normal;text-align:start" transform="matrix(.14316 0 0 .12088 .447 -14.17)"/></g></g></svg><svg width="64" height="64" viewBox="0 0 64 64" id="database" x="165" xmlns="http://www.w3.org/2000/svg"><path d="M14.933 63.728c-1.564-.262-5.564-1.155-8.889-1.984L0 60.237v-5.903c0-5.236.281-5.824 2.489-5.202C10.327 51.34 16.666 51.943 32 51.943s21.673-.603 29.511-2.811C63.718 48.51 64 49.097 64 54.308v5.878l-6.044 1.73c-4.368 1.25-10.778 1.808-23.112 2.009-9.386.153-18.346.064-19.91-.197zm0-14.7c-1.564-.261-5.564-1.153-8.889-1.982L0 45.538v-5.903c0-5.236.281-5.824 2.489-5.202C10.327 36.64 16.666 37.245 32 37.245s21.673-.604 29.511-2.812C63.718 33.81 64 34.398 64 39.61v5.878l-6.044 1.73c-4.368 1.25-10.778 1.807-23.112 2.008-9.386.153-18.346.065-19.91-.197zm0-14.698c-1.564-.262-5.564-1.154-8.889-1.983L0 30.84v-5.904c0-5.236.281-5.824 2.489-5.202 7.838 2.208 14.177 2.812 29.511 2.812s21.673-.604 29.511-2.812c2.207-.622 2.489-.035 2.489 5.177v5.878l-6.044 1.73c-4.368 1.25-10.778 1.807-23.112 2.008-9.386.154-18.346.065-19.91-.197zm0-14.699c-1.564-.262-5.564-1.154-8.889-1.983L0 16.141V3.726L6.756 1.93c9.68-2.573 40.808-2.573 50.488 0L64 3.726V16.09l-6.044 1.73c-4.368 1.25-10.778 1.807-23.112 2.009-9.386.153-18.346.064-19.91-.198zm28.92-14.966c1.513-.66 1.417-.955-.472-1.455-3.071-.812-19.69-.812-22.762 0C16.143 4.394 21.625 5.494 32 5.494c5.476 0 10.81-.373 11.853-.829z" fill="#d59541"/></svg><svg width="72" height="48" viewBox="0 0 72 48" id="envelope" y="70" xmlns="http://www.w3.org/2000/svg"><path d="M10.246 37.265l10.735-10.734 7.51 7.46L36 41.45l7.51-7.46 7.51-7.46 10.734 10.735L72.488 48H-.488zM0 24V5.514l9.243 9.243L18.486 24l-9.243 9.243L0 42.486zm62.493 8.993l-8.965-9.007 9.236-9.236L72 5.514v18.243C72 33.79 71.878 42 71.73 42c-.15 0-4.306-4.053-9.237-9.007zM17.5 18L-.48 0h72.96L54.5 18C44.611 27.9 36.286 36 36 36c-.286 0-8.611-8.1-18.5-18z" fill="#d59541"/></svg><svg width="64" height="64" viewBox="0 0 64 64" id="laptop" y="118" xmlns="http://www.w3.org/2000/svg"><path d="M.652 63.083C-.75 61.608.28 56.867 3.896 48.148l3.85-9.28h48.776l3.888 9.37c2.422 5.835 3.79 10.428 3.626 12.179l-.261 2.81-31.259.246c-17.192.136-31.53-.04-31.864-.39zm40.989-8.446c-.292-1.89-1.047-3.781-1.677-4.202-1.49-.993-14.171-.993-15.66 0-.63.42-1.385 2.311-1.677 4.202l-.53 3.437H42.17zM8.272 17.554L8.514-.481h47.24l.241 18.035.242 18.035H8.03zm42.58-.234V4.672H13.415v25.296h37.435z" fill="#d59541"/></svg><svg width="40" height="64" viewBox="0 0 40 64" id="mobile" x="64" y="118" xmlns="http://www.w3.org/2000/svg"><path d="M2.068 61.945C.035 59.925 0 59.416 0 31.914V3.937l2.202-1.93C4.279.186 5.292.077 20.11.077c21.834 0 19.843-3.22 19.843 32.086v27.976l-2.202 1.93C35.674 63.892 34.66 64 19.843 64c-15.188 0-15.775-.068-17.775-2.055zm20.55-1.103c2.862-1.87 2.735-5.3-.264-7.134-2.203-1.347-2.553-1.347-4.756 0-2.998 1.834-3.125 5.264-.264 7.134 1.163.76 2.352 1.382 2.642 1.382.29 0 1.48-.622 2.642-1.382zm11.627-30.135V10.73H5.708v39.952h28.538z" fill="#d59541"/></svg><svg width="64" height="64" viewBox="0 0 64 64" id="projects" x="104" y="118" xmlns="http://www.w3.org/2000/svg"><path d="M5.663 62.609c0-.928-.895-1.392-2.685-1.392H.292v-5.565c0-4.328.299-5.565 1.343-5.565.995 0 1.343 1.082 1.343 4.174 0 3.092.348 4.174 1.342 4.174.995 0 1.343-1.082 1.343-4.174 0-3.092.348-4.174 1.343-4.174 1.074 0 1.342 1.391 1.342 6.956C8.348 62.61 8.08 64 7.006 64c-.739 0-1.343-.626-1.343-1.391zm11.1-2.69c-.27-.73-.362-2.51-.202-3.957l.29-2.629h47.441v7.42l-23.519.248c-19.74.208-23.597.034-24.01-1.081zM.293 45.914c0-.927.894-1.391 2.685-1.391 1.79 0 2.685-.464 2.685-1.392 0-.927-.895-1.39-2.685-1.39S.292 41.274.292 40.347c0-.928.895-1.391 2.686-1.391 1.79 0 2.685-.464 2.685-1.392 0-.927-.895-1.391-2.685-1.391S.292 35.71.292 34.783c0-1.031 1.045-1.392 4.028-1.392h4.028v13.913H4.32c-2.983 0-4.028-.36-4.028-1.391zm16.47-2.689c-.27-.73-.362-2.511-.202-3.957l.29-2.63h47.441V44.059l-23.519.247c-19.74.208-23.597.034-24.01-1.08zM.293 26.434c0-4.019.099-4.173 2.685-4.173 1.79 0 2.685-.464 2.685-1.391 0-.928-.895-1.392-2.685-1.392S.292 19.014.292 18.087c0-1.03 1.045-1.391 4.028-1.391h4.028v4.174c0 4.019-.1 4.173-2.685 4.173-1.79 0-2.685.464-2.685 1.392 0 .927.895 1.391 2.685 1.391s2.685.464 2.685 1.391c0 1.031-1.044 1.392-4.028 1.392H.292zm16.47.095c-.27-.731-.362-2.512-.202-3.958l.29-2.629h47.441v7.42l-23.519.248c-19.74.207-23.597.034-24.01-1.081zM2.978 8.348c0-4.329-.299-5.565-1.343-5.565-.738 0-1.343-.626-1.343-1.392C.292.464 1.187 0 2.978 0h2.685v6.957c0 5.565-.269 6.956-1.343 6.956-1.044 0-1.342-1.237-1.342-5.565zm13.785 1.485c-.27-.73-.362-2.512-.202-3.958l.29-2.629h47.441v7.42l-23.519.248c-19.74.208-23.597.034-24.01-1.081z" fill="#d59541"/></svg><svg width="64" height="48" viewBox="0 0 64 48" id="training" x="165" y="64" xmlns="http://www.w3.org/2000/svg"><path d="M3.322 47.039c-3.594-2.155-3.526-3.553 1.136-23.451C8.281 7.275 9.251 4.218 11.271 2.14c2.89-2.974 3.965-2.995 11.864-.23 7.894 2.763 12.133 2.763 19.266 0 6.996-2.71 9.01-2.742 11.895-.187 1.949 1.725 2.85 4.464 6.424 19.525 4.84 20.4 5.094 23.452 2.115 25.461-1.926 1.3-2.355 1.276-5.85-.315-2.876-1.31-4.758-3.169-7.927-7.832-4.111-6.05-4.193-6.111-7.579-5.76-2.35.243-4.223-.162-5.975-1.292-2.502-1.614-2.607-1.613-5.367.063-2.005 1.217-3.762 1.58-6.1 1.256-3.25-.448-3.329-.388-7.267 5.545-2.876 4.332-4.988 6.499-7.604 7.802-4.152 2.07-3.895 2.031-5.844.863zm25.075-19.816c2.918-2.718.924-8.201-2.982-8.201-2.282 0-4.838 2.47-4.838 4.674 0 4.206 4.778 6.36 7.82 3.527zm15.347 0c2.918-2.718.924-8.201-2.982-8.201-2.282 0-4.837 2.47-4.837 4.674 0 4.206 4.777 6.36 7.82 3.527zm6.515-11.066c.34-1.813-2.122-3.035-3.421-1.698-1.299 1.337-.112 3.87 1.65 3.52.817-.161 1.614-.981 1.771-1.822zm-31.387-2.839c0-.724.576-1.316 1.28-1.316.703 0 1.278-.593 1.278-1.317s-.575-1.316-1.279-1.316c-.703 0-1.279-.592-1.279-1.316 0-.724-.575-1.316-1.279-1.316-.703 0-1.279.592-1.279 1.316 0 .724-.575 1.316-1.279 1.316-.703 0-1.278.592-1.278 1.316 0 .724.575 1.317 1.278 1.317.704 0 1.28.592 1.28 1.316 0 .724.575 1.316 1.278 1.316.704 0 1.28-.592 1.28-1.316zm26.271-2.426c.34-1.813-2.122-3.035-3.42-1.698-1.3 1.337-.112 3.87 1.65 3.52.816-.161 1.613-.981 1.77-1.822zm10.232 0c.34-1.813-2.122-3.035-3.421-1.698-1.3 1.337-.112 3.87 1.65 3.52.817-.161 1.614-.981 1.77-1.822zm-5.116-5.265c.34-1.814-2.122-3.036-3.421-1.699s-.112 3.87 1.65 3.521c.817-.161 1.614-.982 1.771-1.822z" fill="#d59541"/></svg><svg width="64" height="43" viewBox="0 0 64 43" id="web" x="72" y="70" xmlns="http://www.w3.org/2000/svg"><path d="M4.24 40.495c-1.822-1.67-3.23-3.934-3.547-5.706-.71-3.956 1.484-9.185 4.654-11.085 1.994-1.195 2.636-2.335 3.037-5.396C9.634 8.786 16.003 1.954 25.037.445 31.47-.629 39.59 3.192 42.961 8.882c1.456 2.456 2.11 2.835 4.21 2.44 6.732-1.266 14.973 4.651 16.902 12.136 1.799 6.978-1.536 14.691-7.793 18.026-3.079 1.64-5.128 1.78-26.18 1.78H7.258z" fill="#d59541"/></svg></svg>