<?xml version="1.0" encoding="UTF-8" standalone="no"?>
<!-- Created with Inkscape (http://www.inkscape.org/) -->

<svg
   xmlns:dc="http://purl.org/dc/elements/1.1/"
   xmlns:cc="http://creativecommons.org/ns#"
   xmlns:rdf="http://www.w3.org/1999/02/22-rdf-syntax-ns#"
   xmlns:svg="http://www.w3.org/2000/svg"
   xmlns="http://www.w3.org/2000/svg"
   xmlns:sodipodi="http://sodipodi.sourceforge.net/DTD/sodipodi-0.dtd"
   xmlns:inkscape="http://www.inkscape.org/namespaces/inkscape"
   width="145"
   height="65"
   viewBox="0 0 38.364582 17.197917"
   version="1.1"
   id="svg818"
   inkscape:version="0.92.3 (2405546, 2018-03-11)"
   sodipodi:docname="custom-software.svg">
  <defs
     id="defs812">
    <filter
       inkscape:collect="always"
       style="color-interpolation-filters:sRGB"
       id="filter4766"
       x="-0.0073086416"
       width="1.0146173"
       y="-0.034162216"
       height="1.0683244">
      <feGaussianBlur
         inkscape:collect="always"
         stdDeviation="0.11499504"
         id="feGaussianBlur4768" />
    </filter>
    <filter
       inkscape:collect="always"
       style="color-interpolation-filters:sRGB"
       id="filter4861"
       x="-0.0067271594"
       width="1.0134543"
       y="-0.11090497"
       height="1.2218099">
      <feGaussianBlur
         inkscape:collect="always"
         stdDeviation="0.10602885"
         id="feGaussianBlur4863" />
    </filter>
  </defs>
  <sodipodi:namedview
     id="base"
     pagecolor="#ffffff"
     bordercolor="#666666"
     borderopacity="1.0"
     inkscape:pageopacity="0.0"
     inkscape:pageshadow="2"
     inkscape:zoom="7.9195959"
     inkscape:cx="57.243452"
     inkscape:cy="49.313337"
     inkscape:document-units="mm"
     inkscape:current-layer="layer1"
     showgrid="false"
     units="px"
     inkscape:snap-nodes="false"
     inkscape:window-width="1920"
     inkscape:window-height="1017"
     inkscape:window-x="-8"
     inkscape:window-y="-8"
     inkscape:window-maximized="1" />
  <metadata
     id="metadata815">
    <rdf:RDF>
      <cc:Work
         rdf:about="">
        <dc:format>image/svg+xml</dc:format>
        <dc:type
           rdf:resource="http://purl.org/dc/dcmitype/StillImage" />
        <dc:title></dc:title>
      </cc:Work>
    </rdf:RDF>
  </metadata>
  <g
     inkscape:label="Layer 1"
     inkscape:groupmode="layer"
     id="layer1"
     transform="translate(0,-279.80207)">
    <g
       aria-label="&lt;CUSTOMIZED/&gt;"
       style="font-style:normal;font-variant:normal;font-weight:normal;font-stretch:normal;font-size:5.64444447px;line-height:1.25;font-family:Calibri;-inkscape-font-specification:'Calibri, Normal';font-variant-ligatures:normal;font-variant-caps:normal;font-variant-numeric:normal;font-feature-settings:normal;text-align:start;letter-spacing:0px;word-spacing:0px;writing-mode:lr-tb;text-anchor:start;opacity:0.95;fill:#000000;fill-opacity:1;stroke:none;stroke-width:0.26458332;filter:url(#filter4766)"
       id="text4631"
       transform="matrix(0.99166773,0,0,1.0006225,-0.22829997,-0.71246678)">
      <path
         d="m 3.2343348,289.05359 q 0.020056,0.0659 0.027619,0.10971 0.00676,0.0412 -8.074e-4,0.0636 -0.00837,0.0198 -0.030266,0.0236 -0.019259,0.003 -0.053077,-0.004 l -2.39704131,-0.41724 q -0.0303786,-0.005 -0.0614419,-0.0504 -0.0310633,-0.0453 -0.0599447,-0.14021 -0.0128361,-0.0422 -0.0214311,-0.0799 -0.005958,-0.0385 -0.005268,-0.0647 0.003327,-0.0269 0.00906,-0.046 0.007568,-0.0225 0.0217837,-0.0326 L 2.415657,286.74153 q 0.05182,-0.0475 0.082541,-0.0222 0.033358,0.0244 0.071064,0.14834 0.023265,0.0765 0.03163,0.1229 0.011002,0.0456 0.00928,0.0778 1.124e-4,0.0288 -0.013531,0.0502 -0.011809,0.018 -0.038636,0.0434 l -1.4453412,1.34723 1.9362066,0.30394 q 0.039893,0.008 0.063164,0.0182 0.025105,0.007 0.044477,0.0326 0.018569,0.0232 0.035647,0.0698 0.018912,0.0432 0.042177,0.11968 z"
         style="font-style:normal;font-variant:normal;font-weight:normal;font-stretch:normal;font-size:5.64444447px;font-family:Calibri;-inkscape-font-specification:'Calibri, Normal';font-variant-ligatures:normal;font-variant-caps:normal;font-variant-numeric:normal;font-feature-settings:normal;text-align:start;writing-mode:lr-tb;text-anchor:start;stroke-width:0.26458332"
         id="path4640"
         inkscape:connector-curvature="0" />
      <path
         d="m 6.2154475,288.08606 q 0.012836,0.0422 0.019827,0.0746 0.00699,0.0324 0.0063,0.0586 0.00195,0.0253 -0.00298,0.047 -0.00493,0.0217 -0.023276,0.0561 -0.018345,0.0344 -0.085872,0.11543 -0.06833,0.0784 -0.1788479,0.16965 -0.1086833,0.0878 -0.2617311,0.17182 -0.1496088,0.0858 -0.34209,0.14442 -0.3322277,0.10108 -0.6348689,0.0722 -0.3000045,-0.0297 -0.5556342,-0.18816 -0.252993,-0.15925 -0.4520966,-0.44437 -0.1972691,-0.28856 -0.3232239,-0.70253 -0.1291638,-0.42451 -0.1221427,-0.78963 0.00966,-0.36593 0.1376159,-0.65549 0.1271558,-0.2922 0.3644716,-0.49693 0.2399525,-0.20552 0.574817,-0.30741 0.1476568,-0.0449 0.2962283,-0.0584 0.1477692,-0.0162 0.2792581,-0.0101 0.131489,0.006 0.2406219,0.0334 0.109133,0.0273 0.1546421,0.0538 0.047344,0.023 0.063506,0.0383 0.016163,0.0153 0.029459,0.04 0.015131,0.0213 0.028197,0.0548 0.015703,0.0327 0.030144,0.0801 0.016045,0.0527 0.022003,0.0913 0.00596,0.0385 0.00343,0.0681 -0.00333,0.0269 -0.015136,0.0449 -0.00997,0.0146 -0.031068,0.021 -0.036914,0.0112 -0.1180753,-0.0188 -0.081963,-0.0327 -0.2058845,-0.0612 -0.1220867,-0.032 -0.2876231,-0.0364 -0.163702,-0.008 -0.3720035,0.0556 -0.2267587,0.069 -0.3858873,0.21824 -0.1572941,0.14581 -0.2353792,0.36258 -0.078085,0.21678 -0.074094,0.495 0.00583,0.27479 0.1053055,0.60174 0.098678,0.32432 0.2434475,0.55395 0.1466041,0.22619 0.3271484,0.35563 0.1823788,0.126 0.3986978,0.15525 0.2155168,0.0266 0.4554591,-0.0464 0.203028,-0.0618 0.3380786,-0.1576 0.1376873,-0.0966 0.2247045,-0.18936 0.088852,-0.0962 0.1421636,-0.16714 0.053312,-0.0709 0.092863,-0.083 0.018457,-0.006 0.034048,-0.002 0.01559,0.004 0.030721,0.0252 0.014328,0.0187 0.028999,0.0574 0.017307,0.0379 0.035759,0.0986 z"
         style="font-style:normal;font-variant:normal;font-weight:normal;font-stretch:normal;font-size:5.64444447px;font-family:Calibri;-inkscape-font-specification:'Calibri, Normal';font-variant-ligatures:normal;font-variant-caps:normal;font-variant-numeric:normal;font-feature-settings:normal;text-align:start;writing-mode:lr-tb;text-anchor:start;stroke-width:0.26458332"
         id="path4642"
         inkscape:connector-curvature="0" />
      <path
         d="m 9.1454916,286.34471 q 0.094667,0.31113 0.076991,0.58443 -0.015841,0.26985 -0.1332469,0.48995 -0.117406,0.22009 -0.3335104,0.38091 -0.2161045,0.16082 -0.5246017,0.25469 -0.2821299,0.0858 -0.5390321,0.0747 -0.2569021,-0.0111 -0.4711516,-0.1188 -0.2150517,-0.1103 -0.3777061,-0.32297 -0.1626544,-0.21266 -0.2581233,-0.52643 L 5.9408963,285.0439 q -0.00642,-0.0211 -6.848e-4,-0.0401 0.00573,-0.019 0.029694,-0.035 0.023158,-0.0186 0.063741,-0.0367 0.039781,-0.0207 0.1083358,-0.0416 0.063281,-0.0193 0.1105126,-0.025 0.046429,-0.008 0.073368,-0.005 0.028774,-1.1e-4 0.044135,0.0125 0.01536,0.0126 0.021778,0.0337 l 0.6273671,2.06192 q 0.072203,0.23731 0.1839628,0.39632 0.1117594,0.15901 0.255967,0.24477 0.146042,0.0823 0.3174242,0.0964 0.1732167,0.0107 0.3656979,-0.0479 0.1977546,-0.0602 0.3330351,-0.16471 0.1379173,-0.10534 0.208087,-0.25344 0.072806,-0.14891 0.076031,-0.33715 0.00586,-0.18903 -0.063935,-0.41843 l -0.6345874,-2.08565 q -0.00642,-0.0211 -6.848e-4,-0.0401 0.00573,-0.019 0.029694,-0.035 0.023158,-0.0186 0.063741,-0.0367 0.042418,-0.0215 0.1083358,-0.0416 0.063282,-0.0193 0.1078759,-0.0242 0.046429,-0.008 0.073369,-0.005 0.028774,-1.1e-4 0.044135,0.0125 0.017997,0.0118 0.024415,0.0329 z"
         style="font-style:normal;font-variant:normal;font-weight:normal;font-stretch:normal;font-size:5.64444447px;font-family:Calibri;-inkscape-font-specification:'Calibri, Normal';font-variant-ligatures:normal;font-variant-caps:normal;font-variant-numeric:normal;font-feature-settings:normal;text-align:start;writing-mode:lr-tb;text-anchor:start;stroke-width:0.26458332"
         id="path4644"
         inkscape:connector-curvature="0" />
      <path
         d="m 11.974676,285.81517 q 0.07301,0.23995 0.04032,0.45443 -0.03005,0.21368 -0.148142,0.39365 -0.116256,0.17654 -0.309775,0.30744 -0.190882,0.1301 -0.436097,0.20471 -0.171388,0.0521 -0.327869,0.0681 -0.153845,0.0151 -0.282697,0.008 -0.126216,-0.008 -0.218956,-0.0285 -0.0901,-0.0216 -0.131372,-0.0436 -0.03863,-0.0228 -0.06889,-0.0655 -0.02843,-0.0461 -0.0533,-0.12783 -0.01765,-0.058 -0.02361,-0.0965 -0.0068,-0.0412 -0.0034,-0.0681 0.0033,-0.0269 0.01674,-0.0397 0.01261,-0.0154 0.0337,-0.0218 0.03691,-0.0112 0.116471,0.0135 0.08219,0.024 0.203708,0.0446 0.121514,0.0206 0.283611,0.0232 0.163932,-9e-4 0.35905,-0.0603 0.147657,-0.0449 0.256913,-0.12138 0.111892,-0.0773 0.177243,-0.17492 0.06719,-0.10111 0.08256,-0.22102 0.01537,-0.11991 -0.02554,-0.25438 -0.04412,-0.14502 -0.141331,-0.2278 -0.09721,-0.0828 -0.228578,-0.12635 -0.132173,-0.0462 -0.291174,-0.067 -0.157166,-0.0242 -0.322243,-0.046 -0.165879,-0.0244 -0.327859,-0.0645 -0.16198,-0.04 -0.3037805,-0.11787 -0.1418007,-0.0779 -0.2552822,-0.20465 -0.111647,-0.13024 -0.1750256,-0.33854 -0.064983,-0.21358 -0.03906,-0.40296 0.027757,-0.19281 0.1303699,-0.34791 0.1052494,-0.1559 0.2774442,-0.27167 0.1740292,-0.11921 0.3955142,-0.1866 0.113379,-0.0345 0.233177,-0.0479 0.121632,-0.0168 0.232257,-0.0131 0.112459,3.5e-4 0.204397,0.0185 0.09114,0.0155 0.122889,0.0346 0.03359,0.0157 0.04631,0.0291 0.01192,0.0108 0.02442,0.0329 0.01169,0.0195 0.02396,0.0503 0.01226,0.0308 0.02751,0.0809 0.01444,0.0475 0.0204,0.086 0.0086,0.0377 0.0087,0.0665 -6.9e-4,0.0261 -0.0125,0.0441 -0.01,0.0146 -0.02843,0.0202 -0.029,0.009 -0.103517,-0.009 -0.07188,-0.0185 -0.175163,-0.036 -0.10409,-0.0202 -0.239248,-0.0194 -0.133323,-0.003 -0.286253,0.0439 -0.142384,0.0433 -0.235819,0.11496 -0.09424,0.069 -0.1435379,0.15314 -0.049301,0.0841 -0.057104,0.18159 -0.0078,0.0974 0.021881,0.195 0.043322,0.14238 0.1405279,0.22515 0.09721,0.0828 0.22938,0.12899 0.134811,0.0454 0.294614,0.0688 0.159803,0.0234 0.325682,0.0478 0.165076,0.0218 0.329693,0.061 0.163814,0.0366 0.305615,0.11443 0.143635,0.0744 0.255282,0.20465 0.113482,0.1268 0.175256,0.32982 z"
         style="font-style:normal;font-variant:normal;font-weight:normal;font-stretch:normal;font-size:5.64444447px;font-family:Calibri;-inkscape-font-specification:'Calibri, Normal';font-variant-ligatures:normal;font-variant-caps:normal;font-variant-numeric:normal;font-feature-settings:normal;text-align:start;writing-mode:lr-tb;text-anchor:start;stroke-width:0.26458332"
         id="path4646"
         inkscape:connector-curvature="0" />
      <path
         d="m 14.039883,282.71796 q 0.01524,0.0501 0.0212,0.0886 0.006,0.0385 -5e-6,0.0663 -0.0041,0.0243 -0.01938,0.0405 -0.01261,0.0154 -0.03371,0.0218 l -0.959769,0.29202 0.900135,2.95841 q 0.0064,0.0211 6.85e-4,0.0401 -0.0057,0.019 -0.02889,0.0376 -0.02396,0.0159 -0.06718,0.0349 -0.03978,0.0207 -0.105699,0.0408 -0.06328,0.0193 -0.110513,0.025 -0.04643,0.008 -0.0752,0.008 -0.02958,-0.003 -0.04494,-0.0151 -0.01536,-0.0126 -0.02178,-0.0337 l -0.900135,-2.95841 -0.95977,0.29202 q -0.02109,0.006 -0.04276,0.001 -0.01903,-0.006 -0.03599,-0.0236 -0.01777,-0.0205 -0.03691,-0.055 -0.01651,-0.0353 -0.03175,-0.0854 -0.01524,-0.0501 -0.0212,-0.0886 -0.0041,-0.042 -7.97e-4,-0.0689 0.0033,-0.0269 0.01594,-0.0423 0.01525,-0.0162 0.03634,-0.0226 l 2.373055,-0.72203 q 0.02109,-0.006 0.04012,-6.9e-4 0.02167,0.005 0.03943,0.0255 0.0204,0.0197 0.03771,0.0577 0.01651,0.0353 0.03175,0.0854 z"
         style="font-style:normal;font-variant:normal;font-weight:normal;font-stretch:normal;font-size:5.64444447px;font-family:Calibri;-inkscape-font-specification:'Calibri, Normal';font-variant-ligatures:normal;font-variant-caps:normal;font-variant-numeric:normal;font-feature-settings:normal;text-align:start;writing-mode:lr-tb;text-anchor:start;stroke-width:0.26458332"
         id="path4648"
         inkscape:connector-curvature="0" />
      <path
         d="m 17.798994,283.26189 q 0.106395,0.41942 0.09294,0.7811 -0.01346,0.36168 -0.150833,0.64959 -0.135381,0.28456 -0.399385,0.48801 -0.264682,0.20078 -0.660058,0.30108 -0.390034,0.0989 -0.705021,0.0566 -0.312992,-0.0457 -0.556242,-0.22 -0.240578,-0.17497 -0.414761,-0.48052 -0.174184,-0.30555 -0.282612,-0.73298 -0.103684,-0.40874 -0.08955,-0.76775 0.01413,-0.359 0.152866,-0.64157 0.138052,-0.28523 0.402734,-0.48601 0.264004,-0.20346 0.659381,-0.30375 0.382019,-0.0969 0.694334,-0.0539 0.312315,0.043 0.555565,0.21733 0.245243,0.17095 0.418749,0.47383 0.175499,0.29952 0.281894,0.71894 z m -0.475403,0.15472 q -0.07454,-0.29386 -0.191674,-0.53142 -0.115137,-0.24092 -0.284784,-0.39408 -0.167653,-0.1565 -0.397113,-0.20919 -0.229461,-0.0527 -0.528665,0.0232 -0.299204,0.0759 -0.473773,0.2396 -0.174568,0.16371 -0.255361,0.38324 -0.07812,0.21885 -0.07052,0.4842 0.0096,0.262 0.07939,0.53716 0.07726,0.30455 0.19307,0.54813 0.115814,0.24359 0.283467,0.40009 0.166976,0.15384 0.393765,0.2072 0.228782,0.05 0.533329,-0.0272 0.301876,-0.0766 0.479116,-0.24096 0.17724,-0.16438 0.254684,-0.38591 0.07677,-0.22419 0.06649,-0.48886 -0.01027,-0.26468 -0.08143,-0.54518 z"
         style="font-style:normal;font-variant:normal;font-weight:normal;font-stretch:normal;font-size:5.64444447px;font-family:Calibri;-inkscape-font-specification:'Calibri, Normal';font-variant-ligatures:normal;font-variant-caps:normal;font-variant-numeric:normal;font-feature-settings:normal;text-align:start;writing-mode:lr-tb;text-anchor:start;stroke-width:0.26458332"
         id="path4650"
         inkscape:connector-curvature="0" />
      <path
         d="m 22.711364,286.1337 q -0.0058,0.0213 -0.02078,0.0343 -0.01499,0.0131 -0.04448,0.0164 -0.02876,7.3e-4 -0.07276,-0.006 -0.04206,-0.003 -0.108537,-0.021 -0.06116,-0.0167 -0.104188,-0.037 -0.0411,-0.0169 -0.06551,-0.0321 -0.02103,-0.0172 -0.02732,-0.036 -0.0063,-0.0189 -4.9e-4,-0.0401 l 0.816828,-2.99677 -0.0053,-10e-4 -2.046283,2.67595 q -0.01305,0.0164 -0.03263,0.0254 -0.01692,0.01 -0.04907,0.0123 -0.02876,7.3e-4 -0.06938,-0.007 -0.03868,-0.005 -0.09186,-0.0193 -0.05584,-0.0152 -0.09428,-0.0314 -0.03844,-0.0162 -0.06285,-0.0314 -0.02369,-0.0179 -0.03602,-0.0355 -0.0097,-0.0169 -0.01064,-0.0343 l -0.352198,-3.32969 -0.0027,-7.3e-4 -0.816827,2.99678 q -0.0058,0.0213 -0.02078,0.0343 -0.01498,0.0131 -0.04447,0.0165 -0.02876,7.3e-4 -0.07276,-0.006 -0.04472,-0.004 -0.111196,-0.0217 -0.06382,-0.0174 -0.104189,-0.037 -0.04109,-0.0169 -0.06551,-0.0321 -0.02103,-0.0172 -0.02732,-0.036 -0.0036,-0.0181 0.0022,-0.0394 l 0.862489,-3.1643 q 0.03044,-0.11168 0.101986,-0.14359 0.07155,-0.0319 0.143341,-0.0124 l 0.276543,0.0754 q 0.08509,0.0232 0.144559,0.0565 0.05947,0.0333 0.09791,0.081 0.03844,0.0476 0.05585,0.10949 0.01741,0.0619 0.02178,0.1402 l 0.318032,2.76334 0.01329,0.004 1.713982,-2.2009 q 0.05099,-0.0718 0.100782,-0.11822 0.04979,-0.0464 0.09837,-0.0675 0.05197,-0.023 0.106113,-0.0225 0.05487,-0.002 0.121348,0.0159 l 0.289838,0.079 q 0.03989,0.0109 0.07083,0.0336 0.03433,0.0208 0.05101,0.0539 0.02007,0.0312 0.02515,0.0754 0.0058,0.0416 -0.0094,0.0974 z"
         style="font-style:normal;font-variant:normal;font-weight:normal;font-stretch:normal;font-size:5.64444447px;font-family:Calibri;-inkscape-font-specification:'Calibri, Normal';font-variant-ligatures:normal;font-variant-caps:normal;font-variant-numeric:normal;font-feature-settings:normal;text-align:start;writing-mode:lr-tb;text-anchor:start;stroke-width:0.26458332"
         id="path4652"
         inkscape:connector-curvature="0" />
      <path
         d="m 24.086102,286.50841 q -0.0058,0.0213 -0.02078,0.0343 -0.01498,0.0131 -0.04447,0.0165 -0.02877,7.3e-4 -0.07542,-0.006 -0.04472,-0.004 -0.111196,-0.0217 -0.06382,-0.0174 -0.106848,-0.0377 -0.04375,-0.0176 -0.06817,-0.0329 -0.02369,-0.0179 -0.02998,-0.0367 -0.0063,-0.0189 -4.89e-4,-0.0401 l 0.900177,-3.30256 q 0.0058,-0.0213 0.02078,-0.0343 0.01764,-0.0123 0.04641,-0.0131 0.03215,-0.003 0.07614,0.004 0.04738,0.004 0.108537,0.021 0.06648,0.0181 0.106847,0.0377 0.04375,0.0176 0.06745,0.0355 0.02442,0.0152 0.0307,0.0341 0.0063,0.0189 4.89e-4,0.0401 z"
         style="font-style:normal;font-variant:normal;font-weight:normal;font-stretch:normal;font-size:5.64444447px;font-family:Calibri;-inkscape-font-specification:'Calibri, Normal';font-variant-ligatures:normal;font-variant-caps:normal;font-variant-numeric:normal;font-feature-settings:normal;text-align:start;writing-mode:lr-tb;text-anchor:start;stroke-width:0.26458332"
         id="path4654"
         inkscape:connector-curvature="0" />
      <path
         d="m 27.01251,287.17466 q -0.01377,0.0505 -0.02924,0.0863 -0.01474,0.0331 -0.03456,0.0534 -0.01716,0.021 -0.03867,0.0266 -0.01885,0.006 -0.04279,-2.4e-4 l -2.031529,-0.55373 q -0.06914,-0.0188 -0.100084,-0.073 -0.03095,-0.0541 -0.0056,-0.14721 l 0.02682,-0.0984 q 0.0094,-0.0346 0.02005,-0.0631 0.01329,-0.0278 0.03528,-0.0561 0.02272,-0.0309 0.05752,-0.0643 0.03553,-0.036 0.08532,-0.0824 l 2.264409,-2.05087 -1.568851,-0.42762 q -0.02659,-0.007 -0.0423,-0.023 -0.01571,-0.0157 -0.02321,-0.0406 -0.0041,-0.0268 -9e-6,-0.0628 0.0048,-0.0387 0.01787,-0.0865 0.0145,-0.0532 0.02996,-0.089 0.01546,-0.0358 0.03262,-0.0568 0.01982,-0.0203 0.04133,-0.0259 0.02151,-0.006 0.0481,0.002 l 1.91453,0.52184 q 0.07179,0.0196 0.100084,0.073 0.03167,0.0515 0.0085,0.13657 l -0.02827,0.1037 q -0.0116,0.0426 -0.02634,0.0757 -0.01401,0.0305 -0.03673,0.0614 -0.02272,0.0309 -0.05752,0.0643 -0.03214,0.0341 -0.08387,0.0771 l -2.253533,2.04241 1.680532,0.45807 q 0.0452,0.0123 0.05681,0.064 0.01161,0.0517 -0.01666,0.15544 z"
         style="font-style:normal;font-variant:normal;font-weight:normal;font-stretch:normal;font-size:5.64444447px;font-family:Calibri;-inkscape-font-specification:'Calibri, Normal';font-variant-ligatures:normal;font-variant-caps:normal;font-variant-numeric:normal;font-feature-settings:normal;text-align:start;writing-mode:lr-tb;text-anchor:start;stroke-width:0.26458332"
         id="path4656"
         inkscape:connector-curvature="0" />
      <path
         d="m 29.500673,287.85569 q -0.01305,0.0479 -0.02851,0.0836 -0.01474,0.0331 -0.03456,0.0534 -0.01982,0.0203 -0.04133,0.0259 -0.01885,0.006 -0.04013,4.9e-4 l -1.651282,-0.45009 q -0.06116,-0.0167 -0.106127,-0.0718 -0.04159,-0.057 -0.01332,-0.16074 l 0.836397,-3.06857 q 0.02827,-0.1037 0.09232,-0.12909 0.06744,-0.0273 0.128595,-0.0107 l 1.632669,0.44502 q 0.02127,0.006 0.03433,0.0208 0.01571,0.0157 0.01983,0.0425 0.0041,0.0268 -7.15e-4,0.0655 -0.0014,0.0367 -0.01594,0.0899 -0.01305,0.0479 -0.03117,0.0829 -0.01474,0.0331 -0.0319,0.0541 -0.01643,0.0184 -0.03795,0.0239 -0.01885,0.006 -0.04013,4.9e-4 l -1.345489,-0.36673 -0.294261,1.07958 1.154036,0.31455 q 0.02127,0.006 0.0336,0.0234 0.01572,0.0157 0.02055,0.0399 0.0075,0.0249 0.0027,0.0636 -0.0048,0.0387 -0.0186,0.0892 -0.01305,0.0479 -0.02779,0.081 -0.01474,0.0331 -0.03383,0.0508 -0.01643,0.0184 -0.03795,0.0239 -0.01813,0.004 -0.0394,-0.002 l -1.154036,-0.31455 -0.335574,1.23115 1.364103,0.37181 q 0.02127,0.006 0.03433,0.0208 0.01571,0.0157 0.02249,0.0433 0.0075,0.0249 0.0027,0.0636 -0.0041,0.036 -0.0186,0.0892 z"
         style="font-style:normal;font-variant:normal;font-weight:normal;font-stretch:normal;font-size:5.64444447px;font-family:Calibri;-inkscape-font-specification:'Calibri, Normal';font-variant-ligatures:normal;font-variant-caps:normal;font-variant-numeric:normal;font-feature-settings:normal;text-align:start;writing-mode:lr-tb;text-anchor:start;stroke-width:0.26458332"
         id="path4658"
         inkscape:connector-curvature="0" />
      <path
         d="m 33.322231,287.19765 q -0.121763,0.44672 -0.327426,0.7506 -0.204937,0.30122 -0.485797,0.46177 -0.277475,0.15861 -0.62628,0.18066 -0.348804,0.022 -0.79021,-0.0983 l -0.728585,-0.19859 q -0.06116,-0.0167 -0.106127,-0.0718 -0.04158,-0.057 -0.01332,-0.16074 l 0.836396,-3.06857 q 0.02827,-0.1037 0.09232,-0.12909 0.06744,-0.0273 0.128595,-0.0107 l 0.779108,0.21237 q 0.446723,0.12176 0.723285,0.32283 0.277287,0.19842 0.425262,0.47299 0.151359,0.27265 0.173647,0.61009 0.02495,0.33817 -0.08087,0.72639 z m -0.486365,-0.11257 q 0.0761,-0.2792 0.0722,-0.53736 -0.0032,-0.26082 -0.104253,-0.47691 -0.09841,-0.21536 -0.297617,-0.37535 -0.199204,-0.16 -0.55552,-0.25712 l -0.465337,-0.12683 -0.729854,2.67768 0.470656,0.12829 q 0.329724,0.0899 0.578213,0.069 0.248489,-0.0208 0.446442,-0.14969 0.197953,-0.12887 0.341986,-0.36384 0.147417,-0.23691 0.243088,-0.58791 z"
         style="font-style:normal;font-variant:normal;font-weight:normal;font-stretch:normal;font-size:5.64444447px;font-family:Calibri;-inkscape-font-specification:'Calibri, Normal';font-variant-ligatures:normal;font-variant-caps:normal;font-variant-numeric:normal;font-feature-settings:normal;text-align:start;writing-mode:lr-tb;text-anchor:start;stroke-width:0.26458332"
         id="path4660"
         inkscape:connector-curvature="0" />
      <path
         d="m 33.358874,289.79858 q -0.02006,0.0317 -0.04375,0.0452 -0.02175,0.0169 -0.05124,0.0203 -0.02949,0.003 -0.07082,-0.002 -0.03868,-0.005 -0.09452,-0.0201 -0.06648,-0.0181 -0.108782,-0.0411 -0.04037,-0.0196 -0.05923,-0.0447 -0.01958,-0.0225 -0.01765,-0.0505 0.0012,-0.0254 0.02658,-0.0556 l 2.811148,-3.9729 q 0.02006,-0.0317 0.04109,-0.0459 0.02441,-0.0162 0.05124,-0.0203 0.03022,-0.006 0.07083,0.002 0.04134,0.006 0.09718,0.0208 0.06648,0.0181 0.106123,0.0403 0.04037,0.0196 0.05995,0.042 0.01958,0.0225 0.01765,0.0505 -0.0019,0.028 -0.02465,0.059 z"
         style="font-style:normal;font-variant:normal;font-weight:normal;font-stretch:normal;font-size:5.64444447px;font-family:Calibri;-inkscape-font-specification:'Calibri, Normal';font-variant-ligatures:normal;font-variant-caps:normal;font-variant-numeric:normal;font-feature-settings:normal;text-align:start;writing-mode:lr-tb;text-anchor:start;stroke-width:0.26458332"
         id="path4662"
         inkscape:connector-curvature="0" />
      <path
         d="m 38.343447,289.10424 q -0.02083,0.042 -0.04292,0.0741 -0.02087,0.0296 -0.04053,0.0507 -0.01966,0.021 -0.03936,0.0297 -0.01847,0.006 -0.03696,0.006 l -2.423167,0.0157 q -0.03328,-10e-4 -0.05426,-0.008 -0.01975,-0.01 -0.02351,-0.0332 -0.0013,-0.0222 0.01092,-0.0592 0.01344,-0.0395 0.04163,-0.0963 0.03431,-0.0691 0.05761,-0.10987 0.0233,-0.0407 0.04296,-0.0617 0.02335,-0.0223 0.04799,-0.0285 0.02463,-0.006 0.05792,-0.005 l 1.980747,0.008 -1.2038,-1.54828 q -0.02474,-0.0308 -0.03836,-0.0529 -0.0099,-0.0234 -0.0063,-0.0555 0.0036,-0.0321 0.02197,-0.0753 0.01959,-0.0457 0.05512,-0.11725 0.03186,-0.0642 0.05395,-0.0963 0.02332,-0.0346 0.04054,-0.0445 0.02092,-0.0112 0.03945,0.001 0.01852,0.0123 0.03833,0.0406 l 1.458868,1.94565 q 0.01856,0.0246 0.0089,0.0813 -0.006,0.0555 -0.04766,0.13942 z"
         style="font-style:normal;font-variant:normal;font-weight:normal;font-stretch:normal;font-size:5.64444447px;font-family:Calibri;-inkscape-font-specification:'Calibri, Normal';font-variant-ligatures:normal;font-variant-caps:normal;font-variant-numeric:normal;font-feature-settings:normal;text-align:start;writing-mode:lr-tb;text-anchor:start;stroke-width:0.26458332"
         id="path4664"
         inkscape:connector-curvature="0" />
    </g>
    <g
       aria-label="JLCUSTOMSOFTWARE.NET"
       style="font-style:normal;font-variant:normal;font-weight:normal;font-stretch:normal;font-size:3.52777767px;line-height:1.25;font-family:Calibri;-inkscape-font-specification:'Calibri, Normal';font-variant-ligatures:normal;font-variant-caps:normal;font-variant-numeric:normal;font-feature-settings:normal;text-align:start;letter-spacing:0px;word-spacing:0px;writing-mode:lr-tb;text-anchor:start;fill:#000000;fill-opacity:1;stroke:none;stroke-width:0.26458332;opacity:0.95;filter:url(#filter4861)"
       id="text4669"
       transform="matrix(0.98410252,0,0,0.86895583,0.30495086,38.311489)">
      <path
         d="m 1.0903742,291.76123 q 0,0.13264 -0.024116,0.24288 -0.024116,0.11025 -0.0826823,0.18776 -0.0585666,0.0775 -0.15502929,0.12058 -0.0947401,0.0413 -0.23598903,0.0413 -0.0482313,0 -0.0964627,-0.009 -0.0465088,-0.007 -0.0861274,-0.0207 -0.0396186,-0.0121 -0.0689019,-0.0258 -0.0292833,-0.0155 -0.0396186,-0.0258 -0.008613,-0.0103 -0.0155029,-0.0207 -0.005168,-0.0103 -0.0103353,-0.0241 -0.003445,-0.0155 -0.005168,-0.0362 -0.001723,-0.0224 -0.001723,-0.0534 0,-0.0379 0.001723,-0.062 0.003445,-0.0258 0.0103353,-0.0396 0.00689,-0.0155 0.0155029,-0.0207 0.0103353,-0.007 0.0241157,-0.007 0.0137804,0 0.034451,0.0138 0.0223931,0.0121 0.0516764,0.0276 0.0310059,0.0155 0.0706245,0.0293 0.0396186,0.012 0.0930176,0.012 0.0585666,0 0.0999078,-0.0138 0.0413411,-0.0155 0.0689019,-0.0551 0.0275608,-0.0396 0.0413411,-0.10852 0.0137804,-0.0706 0.0137804,-0.18259 v -1.59508 q 0,-0.0121 0.00689,-0.0224 0.00689,-0.0103 0.0241157,-0.0172 0.0172255,-0.007 0.0447862,-0.0103 0.0292833,-0.003 0.072347,-0.003 0.0413411,0 0.0706245,0.003 0.029283,0.003 0.044786,0.0103 0.017226,0.007 0.024116,0.0172 0.00861,0.0103 0.00861,0.0224 z"
         style="stroke-width:0.26458332"
         id="path4671"
         inkscape:connector-curvature="0" />
      <path
         d="m 2.8318699,292.19359 q 0,0.0345 -0.00345,0.0586 -0.00345,0.0224 -0.012058,0.0396 -0.00689,0.0155 -0.018948,0.0241 -0.010335,0.007 -0.025838,0.007 H 1.7862835 q -0.039619,0 -0.075792,-0.0258 -0.034451,-0.0276 -0.034451,-0.0947 v -2.06362 q 0,-0.0138 0.00689,-0.0241 0.00689,-0.0103 0.024116,-0.0155 0.017225,-0.007 0.046509,-0.0103 0.029283,-0.005 0.070624,-0.005 0.043064,0 0.070624,0.005 0.029283,0.003 0.046509,0.0103 0.017226,0.005 0.024116,0.0155 0.00689,0.0103 0.00689,0.0241 v 1.92753 h 0.7992622 q 0.015503,0 0.025838,0.009 0.012058,0.007 0.018948,0.0224 0.00861,0.0138 0.012058,0.0379 0.00345,0.0241 0.00345,0.0586 z"
         style="stroke-width:0.26458332"
         id="path4673"
         inkscape:connector-curvature="0" />
      <path
         d="m 4.6112617,292.00756 q 0,0.0276 -0.00172,0.0482 -0.00172,0.0207 -0.00689,0.0362 -0.00345,0.0155 -0.010335,0.0276 -0.00689,0.0121 -0.024116,0.0293 -0.017225,0.0172 -0.072347,0.0534 -0.055122,0.0344 -0.1378038,0.0689 -0.08096,0.0327 -0.1877577,0.0551 -0.1050754,0.0241 -0.2308214,0.0241 -0.217041,0 -0.3927409,-0.0723 -0.1739773,-0.0724 -0.2980007,-0.2136 -0.1223009,-0.14125 -0.1894803,-0.34795 -0.065457,-0.20843 -0.065457,-0.47887 0,-0.27733 0.070625,-0.49437 0.072347,-0.21704 0.2015381,-0.3669 0.129191,-0.15159 0.308336,-0.23083 0.1808675,-0.0792 0.3996311,-0.0792 0.096463,0 0.1877577,0.0189 0.091295,0.0172 0.1688096,0.0448 0.077515,0.0276 0.1378038,0.0637 0.060289,0.0362 0.082682,0.0603 0.024116,0.0224 0.031006,0.0345 0.00689,0.012 0.010335,0.0293 0.00517,0.0155 0.00689,0.0379 0.00345,0.0224 0.00345,0.0534 0,0.0345 -0.00345,0.0586 -0.00345,0.0241 -0.010335,0.0413 -0.00689,0.0155 -0.017225,0.0241 -0.00861,0.007 -0.022393,0.007 -0.024116,0 -0.067179,-0.0327 -0.043064,-0.0344 -0.1119656,-0.0741 -0.067179,-0.0413 -0.1653646,-0.0741 -0.096463,-0.0344 -0.2325439,-0.0344 -0.1481391,0 -0.27044,0.0603 -0.1205783,0.0586 -0.2067057,0.17398 -0.086127,0.11541 -0.1343587,0.28249 -0.046509,0.16537 -0.046509,0.37896 0,0.21188 0.044786,0.37552 0.046509,0.16192 0.1309137,0.27216 0.086127,0.10852 0.2101508,0.16537 0.1240234,0.0551 0.2807752,0.0551 0.1326362,0 0.2308214,-0.0327 0.099908,-0.0327 0.1688097,-0.0724 0.070625,-0.0413 0.1154107,-0.0741 0.044786,-0.0327 0.070625,-0.0327 0.012058,0 0.02067,0.005 0.00861,0.005 0.01378,0.0207 0.00517,0.0138 0.00689,0.0396 0.00345,0.0258 0.00345,0.0655 z"
         style="stroke-width:0.26458332"
         id="path4675"
         inkscape:connector-curvature="0" />
      <path
         d="m 6.6800414,291.49941 q 0,0.20326 -0.060289,0.36345 -0.058567,0.15848 -0.1688097,0.26872 -0.110243,0.11024 -0.2687174,0.16709 -0.1584744,0.0568 -0.3600125,0.0568 -0.1843126,0 -0.3358968,-0.0534 -0.1515842,-0.0534 -0.2601047,-0.15675 -0.1085205,-0.10507 -0.1670871,-0.26183 -0.058567,-0.15675 -0.058567,-0.36173 v -1.38321 q 0,-0.0138 0.00689,-0.0241 0.00689,-0.0103 0.024116,-0.0155 0.017226,-0.007 0.044786,-0.0103 0.027561,-0.005 0.072347,-0.005 0.041341,0 0.070624,0.005 0.029283,0.003 0.044786,0.0103 0.017226,0.005 0.024116,0.0155 0.00689,0.0103 0.00689,0.0241 v 1.34704 q 0,0.15503 0.037896,0.27044 0.037896,0.11541 0.1085205,0.19292 0.072347,0.0758 0.1722548,0.11541 0.1016303,0.0379 0.2273763,0.0379 0.129191,0 0.2290988,-0.0379 0.1016303,-0.0379 0.1705322,-0.11369 0.070625,-0.0758 0.106798,-0.18775 0.037896,-0.11197 0.037896,-0.26183 v -1.36254 q 0,-0.0138 0.00689,-0.0241 0.00689,-0.0103 0.024116,-0.0155 0.017226,-0.007 0.044786,-0.0103 0.029283,-0.005 0.072347,-0.005 0.041341,0 0.068902,0.005 0.029283,0.003 0.044786,0.0103 0.017226,0.005 0.024116,0.0155 0.00861,0.0103 0.00861,0.0241 z"
         style="stroke-width:0.26458332"
         id="path4677"
         inkscape:connector-curvature="0" />
      <path
         d="m 8.468046,291.6975 q 0,0.15675 -0.058567,0.27905 -0.056844,0.1223 -0.160197,0.20843 -0.1016303,0.0844 -0.2411566,0.12747 -0.1378038,0.0431 -0.2980008,0.0431 -0.1119656,0 -0.2084283,-0.0189 -0.09474,-0.0189 -0.1705322,-0.0465 -0.07407,-0.0276 -0.125746,-0.0568 -0.049954,-0.0293 -0.070624,-0.0499 -0.018948,-0.0207 -0.029283,-0.0517 -0.00861,-0.0327 -0.00861,-0.0861 0,-0.0379 0.00345,-0.062 0.00345,-0.0258 0.010335,-0.0413 0.00689,-0.0155 0.017225,-0.0207 0.010335,-0.007 0.024116,-0.007 0.024116,0 0.067179,0.0293 0.044786,0.0293 0.1136882,0.0637 0.068902,0.0344 0.1653646,0.0655 0.098185,0.0293 0.2256537,0.0293 0.096463,0 0.1756999,-0.0258 0.08096,-0.0258 0.1378038,-0.0723 0.058567,-0.0482 0.089573,-0.11713 0.031006,-0.0689 0.031006,-0.15675 0,-0.0947 -0.043064,-0.16192 -0.043064,-0.0672 -0.1136881,-0.11713 -0.070624,-0.0517 -0.1619195,-0.093 -0.089572,-0.0431 -0.1843126,-0.0861 -0.09474,-0.0448 -0.1843126,-0.0982 -0.089573,-0.0534 -0.1601969,-0.12575 -0.070625,-0.0723 -0.1154107,-0.16881 -0.043064,-0.0982 -0.043064,-0.23427 0,-0.13952 0.049954,-0.24804 0.051676,-0.11025 0.1412489,-0.18432 0.091295,-0.0741 0.2153184,-0.11196 0.125746,-0.0396 0.27044,-0.0396 0.07407,0 0.1481391,0.0138 0.075792,0.0121 0.1412489,0.0344 0.067179,0.0207 0.1188558,0.0482 0.051676,0.0258 0.067179,0.0431 0.017226,0.0155 0.022393,0.0258 0.00517,0.009 0.00861,0.0241 0.00345,0.0138 0.00517,0.0344 0.00172,0.0207 0.00172,0.0534 0,0.031 -0.00345,0.0551 -0.00172,0.0241 -0.00689,0.0413 -0.00517,0.0155 -0.015503,0.0241 -0.00861,0.007 -0.020671,0.007 -0.018948,0 -0.060289,-0.0241 -0.039619,-0.0241 -0.098185,-0.0534 -0.058567,-0.031 -0.1395263,-0.0551 -0.079237,-0.0258 -0.179145,-0.0258 -0.093018,0 -0.1619195,0.0258 -0.068902,0.0241 -0.1136881,0.0655 -0.044786,0.0413 -0.067179,0.0982 -0.022393,0.0568 -0.022393,0.12058 0,0.093 0.043064,0.1602 0.043064,0.0672 0.1136882,0.11885 0.072347,0.0517 0.163642,0.0948 0.091295,0.0431 0.1860351,0.0878 0.09474,0.0431 0.1860352,0.0965 0.091295,0.0517 0.1619195,0.12402 0.072347,0.0706 0.1154107,0.16881 0.044786,0.0965 0.044786,0.2291 z"
         style="stroke-width:0.26458332"
         id="path4679"
         inkscape:connector-curvature="0" />
      <path
         d="m 10.266385,290.22128 q 0,0.0327 -0.0034,0.0568 -0.0034,0.0241 -0.01206,0.0396 -0.0069,0.0138 -0.01895,0.0207 -0.01034,0.007 -0.02412,0.007 H 9.5808112 v 1.9327 q 0,0.0138 -0.00689,0.0241 -0.00689,0.0103 -0.024116,0.0172 -0.017225,0.005 -0.046509,0.009 -0.027561,0.005 -0.070624,0.005 -0.041341,0 -0.070624,-0.005 -0.029283,-0.003 -0.046509,-0.009 -0.017225,-0.007 -0.024116,-0.0172 -0.00689,-0.0103 -0.00689,-0.0241 v -1.9327 H 8.6575256 q -0.01378,0 -0.025838,-0.007 -0.010335,-0.007 -0.017226,-0.0207 -0.00689,-0.0155 -0.012058,-0.0396 -0.00345,-0.0241 -0.00345,-0.0568 0,-0.0327 0.00345,-0.0568 0.00517,-0.0258 0.012058,-0.0413 0.00689,-0.0155 0.017226,-0.0224 0.012058,-0.007 0.025838,-0.007 h 1.5502934 q 0.01378,0 0.02412,0.007 0.01206,0.007 0.01895,0.0224 0.0086,0.0155 0.01206,0.0413 0.0034,0.0241 0.0034,0.0568 z"
         style="stroke-width:0.26458332"
         id="path4681"
         inkscape:connector-curvature="0" />
      <path
         d="m 12.362726,291.18246 q 0,0.27044 -0.06373,0.48748 -0.06373,0.21704 -0.191203,0.37035 -0.125746,0.15158 -0.316949,0.23426 -0.191203,0.081 -0.44614,0.081 -0.251492,0 -0.435804,-0.0741 -0.18259,-0.0758 -0.303169,-0.21876 -0.118855,-0.14297 -0.177422,-0.35485 -0.05857,-0.21187 -0.05857,-0.48748 0,-0.26355 0.06373,-0.47886 0.06373,-0.21532 0.191202,-0.36518 0.127469,-0.15159 0.318672,-0.23255 0.191202,-0.0827 0.44614,-0.0827 0.246324,0 0.428914,0.0741 0.18259,0.0741 0.303168,0.21704 0.122301,0.14125 0.180868,0.3514 0.06029,0.20843 0.06029,0.47887 z m -0.311781,0.0207 q 0,-0.18948 -0.03445,-0.3514 -0.03273,-0.16364 -0.111966,-0.2825 -0.07751,-0.12058 -0.208428,-0.18776 -0.130914,-0.0672 -0.323839,-0.0672 -0.192925,0 -0.323839,0.0723 -0.130914,0.0723 -0.213596,0.19293 -0.08096,0.12057 -0.117133,0.28249 -0.03445,0.1602 -0.03445,0.33762 0,0.19637 0.03273,0.36174 0.03273,0.16536 0.110243,0.28594 0.07752,0.11886 0.206706,0.18604 0.130914,0.0655 0.327284,0.0655 0.194648,0 0.327284,-0.0723 0.132636,-0.0723 0.213596,-0.19465 0.08096,-0.12403 0.115411,-0.28594 0.03445,-0.16192 0.03445,-0.34279 z"
         style="stroke-width:0.26458332"
         id="path4683"
         inkscape:connector-curvature="0" />
      <path
         d="m 15.254884,292.278 q 0,0.0138 -0.0069,0.0241 -0.0069,0.0103 -0.02412,0.0172 -0.01722,0.005 -0.04479,0.009 -0.02584,0.005 -0.0689,0.005 -0.03962,0 -0.0689,-0.005 -0.02756,-0.003 -0.04479,-0.009 -0.0155,-0.007 -0.02239,-0.0172 -0.0069,-0.0103 -0.0069,-0.0241 v -1.94131 h -0.0034 l -0.794095,1.94992 q -0.0052,0.0121 -0.0155,0.0207 -0.0086,0.009 -0.02756,0.0155 -0.01722,0.005 -0.04306,0.007 -0.02412,0.003 -0.05857,0.003 -0.03617,0 -0.06201,-0.003 -0.02584,-0.003 -0.04306,-0.009 -0.01723,-0.007 -0.02756,-0.0155 -0.0086,-0.009 -0.01206,-0.019 l -0.759643,-1.94992 h -0.0017 v 1.94131 q 0,0.0138 -0.0069,0.0241 -0.0069,0.0103 -0.02412,0.0172 -0.01722,0.005 -0.04479,0.009 -0.02756,0.005 -0.07062,0.005 -0.04134,0 -0.0689,-0.005 -0.02756,-0.003 -0.04479,-0.009 -0.0155,-0.007 -0.02239,-0.0172 -0.0052,-0.0103 -0.0052,-0.0241 v -2.04983 q 0,-0.0723 0.0379,-0.10336 0.0379,-0.031 0.08441,-0.031 h 0.179144 q 0.05512,0 0.09646,0.0103 0.04134,0.0103 0.07235,0.0327 0.03101,0.0224 0.05168,0.0568 0.02067,0.0344 0.03617,0.081 l 0.645955,1.61402 h 0.0086 l 0.671794,-1.60886 q 0.01895,-0.0517 0.04134,-0.0879 0.02239,-0.0362 0.04823,-0.0568 0.02756,-0.0224 0.06029,-0.031 0.03273,-0.0103 0.07579,-0.0103 h 0.187757 q 0.02584,0 0.04823,0.009 0.02412,0.007 0.03962,0.0241 0.01723,0.0155 0.02756,0.0413 0.01034,0.0241 0.01034,0.0603 z"
         style="stroke-width:0.26458332"
         id="path4685"
         inkscape:connector-curvature="0" />
      <path
         d="m 17.046334,291.6975 q 0,0.15675 -0.05857,0.27905 -0.05684,0.1223 -0.160197,0.20843 -0.10163,0.0844 -0.241157,0.12747 -0.137803,0.0431 -0.298,0.0431 -0.111966,0 -0.208429,-0.0189 -0.09474,-0.0189 -0.170532,-0.0465 -0.07407,-0.0276 -0.125746,-0.0568 -0.04995,-0.0293 -0.07062,-0.0499 -0.01895,-0.0207 -0.02928,-0.0517 -0.0086,-0.0327 -0.0086,-0.0861 0,-0.0379 0.0034,-0.062 0.0034,-0.0258 0.01034,-0.0413 0.0069,-0.0155 0.01723,-0.0207 0.01033,-0.007 0.02412,-0.007 0.02412,0 0.06718,0.0293 0.04479,0.0293 0.113688,0.0637 0.0689,0.0344 0.165364,0.0655 0.09819,0.0293 0.225654,0.0293 0.09646,0 0.1757,-0.0258 0.08096,-0.0258 0.137804,-0.0723 0.05857,-0.0482 0.08957,-0.11713 0.03101,-0.0689 0.03101,-0.15675 0,-0.0947 -0.04306,-0.16192 -0.04306,-0.0672 -0.113688,-0.11713 -0.07062,-0.0517 -0.161919,-0.093 -0.08957,-0.0431 -0.184313,-0.0861 -0.09474,-0.0448 -0.184313,-0.0982 -0.08957,-0.0534 -0.160196,-0.12575 -0.07063,-0.0723 -0.115411,-0.16881 -0.04306,-0.0982 -0.04306,-0.23427 0,-0.13952 0.04995,-0.24804 0.05168,-0.11025 0.141249,-0.18432 0.0913,-0.0741 0.215318,-0.11196 0.125746,-0.0396 0.27044,-0.0396 0.07407,0 0.14814,0.0138 0.07579,0.0121 0.141248,0.0344 0.06718,0.0207 0.118856,0.0482 0.05168,0.0258 0.06718,0.0431 0.01722,0.0155 0.02239,0.0258 0.0052,0.009 0.0086,0.0241 0.0034,0.0138 0.0052,0.0344 0.0017,0.0207 0.0017,0.0534 0,0.031 -0.0034,0.0551 -0.0017,0.0241 -0.0069,0.0413 -0.0052,0.0155 -0.0155,0.0241 -0.0086,0.007 -0.02067,0.007 -0.01895,0 -0.06029,-0.0241 -0.03962,-0.0241 -0.09819,-0.0534 -0.05857,-0.031 -0.139526,-0.0551 -0.07924,-0.0258 -0.179145,-0.0258 -0.09302,0 -0.161919,0.0258 -0.0689,0.0241 -0.113689,0.0655 -0.04479,0.0413 -0.06718,0.0982 -0.02239,0.0568 -0.02239,0.12058 0,0.093 0.04306,0.1602 0.04306,0.0672 0.113688,0.11885 0.07235,0.0517 0.163642,0.0948 0.0913,0.0431 0.186035,0.0878 0.09474,0.0431 0.186035,0.0965 0.09129,0.0517 0.16192,0.12402 0.07235,0.0706 0.11541,0.16881 0.04479,0.0965 0.04479,0.2291 z"
         style="stroke-width:0.26458332"
         id="path4687"
         inkscape:connector-curvature="0" />
      <path
         d="m 19.3356,291.18246 q 0,0.27044 -0.06374,0.48748 -0.06373,0.21704 -0.191202,0.37035 -0.125746,0.15158 -0.316949,0.23426 -0.191203,0.081 -0.44614,0.081 -0.251492,0 -0.435805,-0.0741 -0.18259,-0.0758 -0.303168,-0.21876 -0.118856,-0.14297 -0.177422,-0.35485 -0.05857,-0.21187 -0.05857,-0.48748 0,-0.26355 0.06373,-0.47886 0.06373,-0.21532 0.191203,-0.36518 0.127469,-0.15159 0.318671,-0.23255 0.191203,-0.0827 0.44614,-0.0827 0.246325,0 0.428915,0.0741 0.18259,0.0741 0.303168,0.21704 0.122301,0.14125 0.180867,0.3514 0.06029,0.20843 0.06029,0.47887 z m -0.311781,0.0207 q 0,-0.18948 -0.03445,-0.3514 -0.03273,-0.16364 -0.111966,-0.2825 -0.07752,-0.12058 -0.208428,-0.18776 -0.130914,-0.0672 -0.323839,-0.0672 -0.192926,0 -0.323839,0.0723 -0.130914,0.0723 -0.213596,0.19293 -0.08096,0.12057 -0.117133,0.28249 -0.03445,0.1602 -0.03445,0.33762 0,0.19637 0.03273,0.36174 0.03273,0.16536 0.110243,0.28594 0.07751,0.11886 0.206706,0.18604 0.130913,0.0655 0.327284,0.0655 0.194648,0 0.327284,-0.0723 0.132636,-0.0723 0.213596,-0.19465 0.08096,-0.12403 0.115411,-0.28594 0.03445,-0.16192 0.03445,-0.34279 z"
         style="stroke-width:0.26458332"
         id="path4689"
         inkscape:connector-curvature="0" />
      <path
         d="m 20.975464,290.22128 q 0,0.0327 -0.0034,0.0568 -0.0034,0.0241 -0.01206,0.0396 -0.0086,0.0138 -0.02067,0.0207 -0.01034,0.007 -0.02239,0.007 H 20.10041 v 0.75792 h 0.771701 q 0.01206,0 0.02239,0.007 0.01206,0.005 0.02067,0.0189 0.0086,0.0138 0.01206,0.0379 0.0034,0.0224 0.0034,0.0586 0,0.0327 -0.0034,0.0568 -0.0034,0.0224 -0.01206,0.0379 -0.0086,0.0138 -0.02067,0.0224 -0.01034,0.007 -0.02239,0.007 H 20.10041 v 0.92846 q 0,0.0121 -0.0069,0.0241 -0.0069,0.0103 -0.02412,0.0172 -0.01723,0.005 -0.04479,0.009 -0.02756,0.005 -0.07235,0.005 -0.04134,0 -0.07062,-0.005 -0.02928,-0.003 -0.04651,-0.009 -0.01722,-0.007 -0.02411,-0.0172 -0.0069,-0.0121 -0.0069,-0.0241 v -2.06361 q 0,-0.0672 0.03445,-0.093 0.03617,-0.0276 0.07579,-0.0276 h 1.002523 q 0.01206,0 0.02239,0.007 0.01206,0.007 0.02067,0.0224 0.0086,0.0155 0.01206,0.0413 0.0034,0.0241 0.0034,0.0568 z"
         style="stroke-width:0.26458332"
         id="path4691"
         inkscape:connector-curvature="0" />
      <path
         d="m 22.820314,290.22128 q 0,0.0327 -0.0034,0.0568 -0.0034,0.0241 -0.01206,0.0396 -0.0069,0.0138 -0.01895,0.0207 -0.01034,0.007 -0.02412,0.007 H 22.13474 v 1.9327 q 0,0.0138 -0.0069,0.0241 -0.0069,0.0103 -0.02412,0.0172 -0.01723,0.005 -0.04651,0.009 -0.02756,0.005 -0.07062,0.005 -0.04134,0 -0.07062,-0.005 -0.02928,-0.003 -0.04651,-0.009 -0.01722,-0.007 -0.02412,-0.0172 -0.0069,-0.0103 -0.0069,-0.0241 v -1.9327 h -0.627007 q -0.01378,0 -0.02584,-0.007 -0.01034,-0.007 -0.01723,-0.0207 -0.0069,-0.0155 -0.01206,-0.0396 -0.0034,-0.0241 -0.0034,-0.0568 0,-0.0327 0.0034,-0.0568 0.0052,-0.0258 0.01206,-0.0413 0.0069,-0.0155 0.01723,-0.0224 0.01206,-0.007 0.02584,-0.007 h 1.550293 q 0.01378,0 0.02412,0.007 0.01206,0.007 0.01895,0.0224 0.0086,0.0155 0.01206,0.0413 0.0034,0.0241 0.0034,0.0568 z"
         style="stroke-width:0.26458332"
         id="path4693"
         inkscape:connector-curvature="0" />
      <path
         d="m 25.280111,292.25733 q -0.0069,0.0241 -0.02067,0.0396 -0.01378,0.0138 -0.0379,0.0224 -0.02412,0.007 -0.06029,0.0103 -0.03445,0.003 -0.08613,0.003 -0.0534,0 -0.09129,-0.003 -0.03617,-0.003 -0.06029,-0.0103 -0.02412,-0.009 -0.03617,-0.0224 -0.01206,-0.0155 -0.01895,-0.0396 L 24.40161,290.5744 h -0.0034 l -0.430637,1.68293 q -0.0052,0.0241 -0.01722,0.0396 -0.01206,0.0138 -0.03445,0.0224 -0.02239,0.007 -0.05857,0.0103 -0.03445,0.003 -0.08957,0.003 -0.05684,0 -0.09474,-0.003 -0.0379,-0.003 -0.06201,-0.0103 -0.02412,-0.009 -0.0379,-0.0224 -0.01206,-0.0155 -0.01723,-0.0396 l -0.589111,-2.05845 q -0.01033,-0.0396 -0.01206,-0.062 0,-0.0224 0.01378,-0.0344 0.0155,-0.0121 0.04823,-0.0155 0.03273,-0.003 0.08785,-0.003 0.0534,0 0.08441,0.003 0.03101,0.002 0.04651,0.009 0.01723,0.007 0.02239,0.019 0.0069,0.0121 0.01034,0.031 l 0.501261,1.86725 h 0.0017 l 0.475423,-1.8638 q 0.0052,-0.019 0.01206,-0.031 0.0086,-0.0138 0.02584,-0.0207 0.01722,-0.007 0.04823,-0.0103 0.03273,-0.003 0.08441,-0.003 0.04823,0 0.07579,0.003 0.02928,0.003 0.04651,0.0103 0.01722,0.007 0.02412,0.0207 0.0086,0.0121 0.01378,0.031 l 0.511597,1.8638 h 0.0034 l 0.490926,-1.86552 q 0.0052,-0.0172 0.01034,-0.0293 0.0052,-0.0138 0.02067,-0.0207 0.01722,-0.007 0.04651,-0.0103 0.03101,-0.003 0.08096,-0.003 0.05168,0 0.08096,0.005 0.03101,0.003 0.04479,0.0155 0.01378,0.0121 0.01206,0.0345 0,0.0224 -0.0086,0.062 z"
         style="stroke-width:0.26458332"
         id="path4695"
         inkscape:connector-curvature="0" />
      <path
         d="m 27.798475,292.21771 q 0.01378,0.0379 0.01378,0.062 0.0017,0.0224 -0.01206,0.0344 -0.01378,0.0121 -0.04651,0.0155 -0.03101,0.003 -0.08441,0.003 -0.0534,0 -0.08613,-0.003 -0.03101,-0.002 -0.04823,-0.007 -0.0155,-0.007 -0.02412,-0.0172 -0.0069,-0.0103 -0.01378,-0.0258 l -0.191203,-0.5426 h -0.926731 l -0.18259,0.53571 q -0.0052,0.0155 -0.01378,0.0276 -0.0086,0.0103 -0.02584,0.019 -0.0155,0.007 -0.04651,0.0103 -0.02928,0.003 -0.07751,0.003 -0.04995,0 -0.08268,-0.005 -0.03101,-0.003 -0.04479,-0.0155 -0.01206,-0.0121 -0.01206,-0.0344 0.0017,-0.0241 0.0155,-0.062 l 0.747585,-2.07051 q 0.0069,-0.0189 0.01723,-0.031 0.01206,-0.0121 0.03273,-0.019 0.02239,-0.007 0.05512,-0.009 0.03445,-0.003 0.08613,-0.003 0.05512,0 0.09129,0.003 0.03617,0.002 0.05857,0.009 0.02239,0.007 0.03445,0.0207 0.01206,0.0121 0.01895,0.031 z m -0.959459,-1.82762 h -0.0017 l -0.384128,1.11104 h 0.775146 z"
         style="stroke-width:0.26458332"
         id="path4697"
         inkscape:connector-curvature="0" />
      <path
         d="m 29.655383,292.278 q 0,0.0138 -0.0052,0.0241 -0.0052,0.0103 -0.02239,0.0172 -0.01722,0.007 -0.04823,0.0103 -0.03101,0.003 -0.08268,0.003 -0.04479,0 -0.07407,-0.003 -0.02756,-0.003 -0.04479,-0.0103 -0.01723,-0.009 -0.02756,-0.0224 -0.0086,-0.0138 -0.0155,-0.0344 l -0.204983,-0.52538 q -0.03617,-0.0896 -0.07579,-0.16364 -0.0379,-0.0758 -0.0913,-0.12919 -0.0534,-0.0551 -0.125746,-0.0844 -0.07235,-0.031 -0.173978,-0.031 h -0.198093 v 0.94913 q 0,0.0138 -0.0086,0.0241 -0.0069,0.0103 -0.02412,0.0172 -0.0155,0.005 -0.04479,0.009 -0.02756,0.005 -0.07062,0.005 -0.04306,0 -0.07235,-0.005 -0.02756,-0.003 -0.04479,-0.009 -0.01723,-0.007 -0.02412,-0.0172 -0.0069,-0.0103 -0.0069,-0.0241 v -2.06361 q 0,-0.0672 0.03445,-0.093 0.03617,-0.0276 0.07579,-0.0276 h 0.473701 q 0.08441,0 0.139526,0.005 0.05684,0.003 0.10163,0.009 0.129192,0.0224 0.227377,0.0706 0.09991,0.0482 0.167087,0.1223 0.06718,0.0741 0.09991,0.17054 0.03445,0.0947 0.03445,0.21015 0,0.11196 -0.03101,0.20153 -0.02928,0.0879 -0.08613,0.15676 -0.05684,0.0672 -0.136081,0.11713 -0.07924,0.05 -0.177422,0.0844 0.05512,0.0241 0.09991,0.062 0.04479,0.0362 0.08268,0.0879 0.03962,0.0517 0.07407,0.11885 0.03445,0.0672 0.0689,0.15159 l 0.199816,0.49092 q 0.02411,0.062 0.03101,0.0879 0.0069,0.0241 0.0069,0.0379 z m -0.44614,-1.5658 q 0,-0.13091 -0.05857,-0.22048 -0.05857,-0.0913 -0.19637,-0.13092 -0.04306,-0.0121 -0.09818,-0.0172 -0.0534,-0.005 -0.141249,-0.005 h -0.24977 v 0.75103 h 0.289388 q 0.117134,0 0.201538,-0.0276 0.08613,-0.0293 0.142972,-0.0792 0.05684,-0.0517 0.08268,-0.12058 0.02756,-0.0689 0.02756,-0.14986 z"
         style="stroke-width:0.26458332"
         id="path4699"
         inkscape:connector-curvature="0" />
      <path
         d="m 31.32453,292.20048 q 0,0.031 -0.0034,0.0551 -0.0034,0.0224 -0.01206,0.0379 -0.0086,0.0155 -0.02067,0.0224 -0.01034,0.007 -0.02412,0.007 h -1.069702 q -0.03962,0 -0.07579,-0.0258 -0.03445,-0.0276 -0.03445,-0.0947 v -1.98782 q 0,-0.0672 0.03445,-0.093 0.03617,-0.0276 0.07579,-0.0276 h 1.057644 q 0.01378,0 0.02412,0.007 0.01206,0.007 0.01895,0.0224 0.0069,0.0155 0.01034,0.0396 0.0052,0.0224 0.0052,0.0568 0,0.031 -0.0052,0.0551 -0.0034,0.0224 -0.01034,0.0379 -0.0069,0.0138 -0.01895,0.0207 -0.01034,0.007 -0.02412,0.007 h -0.871609 v 0.69936 h 0.747586 q 0.01378,0 0.02412,0.009 0.01206,0.007 0.01895,0.0207 0.0086,0.0138 0.01206,0.0379 0.0034,0.0241 0.0034,0.0568 0,0.031 -0.0034,0.0534 -0.0034,0.0224 -0.01206,0.0362 -0.0069,0.0138 -0.01895,0.0207 -0.01034,0.005 -0.02412,0.005 h -0.747586 v 0.79754 h 0.883667 q 0.01378,0 0.02412,0.007 0.01206,0.007 0.02067,0.0224 0.0086,0.0138 0.01206,0.0379 0.0034,0.0224 0.0034,0.0568 z"
         style="stroke-width:0.26458332"
         id="path4701"
         inkscape:connector-curvature="0" />
      <path
         d="m 32.141018,292.13503 q 0,0.1223 -0.04134,0.16364 -0.03962,0.0396 -0.146417,0.0396 -0.103353,0 -0.142971,-0.0396 -0.03962,-0.0396 -0.03962,-0.15848 0,-0.1223 0.03962,-0.16192 0.04134,-0.0413 0.148139,-0.0413 0.103353,0 0.142971,0.0396 0.03962,0.0396 0.03962,0.15848 z"
         style="stroke-width:0.26458332"
         id="path4703"
         inkscape:connector-curvature="0" />
      <path
         d="m 34.380329,292.20048 q 0,0.0344 -0.01206,0.0586 -0.01033,0.0241 -0.02928,0.0396 -0.01723,0.0155 -0.03962,0.0224 -0.02239,0.007 -0.04479,0.007 h -0.09474 q -0.04479,0 -0.07924,-0.009 -0.03273,-0.0103 -0.06373,-0.0344 -0.02928,-0.0258 -0.06029,-0.0689 -0.02928,-0.0431 -0.06546,-0.11025 l -0.7028,-1.26779 q -0.05512,-0.0982 -0.111965,-0.20498 -0.05512,-0.10853 -0.103353,-0.21016 h -0.0034 q 0.0034,0.12403 0.0052,0.25322 0.0017,0.12919 0.0017,0.25666 v 1.34531 q 0,0.0121 -0.0069,0.0241 -0.0069,0.0103 -0.02412,0.0172 -0.0155,0.005 -0.04306,0.009 -0.02584,0.005 -0.06718,0.005 -0.04134,0 -0.0689,-0.005 -0.02584,-0.003 -0.04134,-0.009 -0.0155,-0.007 -0.02239,-0.0172 -0.0069,-0.0121 -0.0069,-0.0241 v -2.05672 q 0,-0.0689 0.0379,-0.0982 0.0379,-0.0293 0.08268,-0.0293 h 0.141249 q 0.04995,0 0.08268,0.009 0.03445,0.009 0.06029,0.0293 0.02756,0.0189 0.05168,0.0551 0.02584,0.0344 0.05512,0.0879 l 0.54088,0.9784 q 0.04995,0.0896 0.09646,0.1757 0.04651,0.0844 0.08957,0.16709 0.04306,0.0827 0.0844,0.16364 0.04306,0.0792 0.0844,0.1602 h 0.0017 q -0.0034,-0.13608 -0.0052,-0.2825 0,-0.14814 0,-0.28422 v -1.20923 q 0,-0.0121 0.0069,-0.0224 0.0069,-0.0103 0.02239,-0.0172 0.01723,-0.009 0.04306,-0.012 0.02756,-0.003 0.07062,-0.003 0.0379,0 0.06546,0.003 0.02756,0.003 0.04306,0.012 0.0155,0.007 0.02239,0.0172 0.0069,0.0103 0.0069,0.0224 z"
         style="stroke-width:0.26458332"
         id="path4705"
         inkscape:connector-curvature="0" />
      <path
         d="m 36.216567,292.20048 q 0,0.031 -0.0034,0.0551 -0.0034,0.0224 -0.01206,0.0379 -0.0086,0.0155 -0.02067,0.0224 -0.01034,0.007 -0.02412,0.007 h -1.069702 q -0.03962,0 -0.07579,-0.0258 -0.03445,-0.0276 -0.03445,-0.0947 v -1.98782 q 0,-0.0672 0.03445,-0.093 0.03617,-0.0276 0.07579,-0.0276 h 1.057644 q 0.01378,0 0.02412,0.007 0.01206,0.007 0.01895,0.0224 0.0069,0.0155 0.01034,0.0396 0.0052,0.0224 0.0052,0.0568 0,0.031 -0.0052,0.0551 -0.0034,0.0224 -0.01034,0.0379 -0.0069,0.0138 -0.01895,0.0207 -0.01034,0.007 -0.02412,0.007 H 35.27265 v 0.69936 h 0.747585 q 0.01378,0 0.02412,0.009 0.01206,0.007 0.01895,0.0207 0.0086,0.0138 0.01206,0.0379 0.0034,0.0241 0.0034,0.0568 0,0.031 -0.0034,0.0534 -0.0034,0.0224 -0.01206,0.0362 -0.0069,0.0138 -0.01895,0.0207 -0.01033,0.005 -0.02412,0.005 H 35.27265 v 0.79754 h 0.883667 q 0.01378,0 0.02412,0.007 0.01206,0.007 0.02067,0.0224 0.0086,0.0138 0.01206,0.0379 0.0034,0.0224 0.0034,0.0568 z"
         style="stroke-width:0.26458332"
         id="path4707"
         inkscape:connector-curvature="0" />
      <path
         d="m 38.095864,290.22128 q 0,0.0327 -0.0034,0.0568 -0.0034,0.0241 -0.01206,0.0396 -0.0069,0.0138 -0.01895,0.0207 -0.01034,0.007 -0.02412,0.007 H 37.41029 v 1.9327 q 0,0.0138 -0.0069,0.0241 -0.0069,0.0103 -0.02411,0.0172 -0.01723,0.005 -0.04651,0.009 -0.02756,0.005 -0.07062,0.005 -0.04134,0 -0.07062,-0.005 -0.02928,-0.003 -0.04651,-0.009 -0.01723,-0.007 -0.02412,-0.0172 -0.0069,-0.0103 -0.0069,-0.0241 v -1.9327 h -0.627007 q -0.01378,0 -0.02584,-0.007 -0.01034,-0.007 -0.01723,-0.0207 -0.0069,-0.0155 -0.01206,-0.0396 -0.0034,-0.0241 -0.0034,-0.0568 0,-0.0327 0.0034,-0.0568 0.0052,-0.0258 0.01206,-0.0413 0.0069,-0.0155 0.01723,-0.0224 0.01206,-0.007 0.02584,-0.007 h 1.550293 q 0.01378,0 0.02412,0.007 0.01206,0.007 0.01895,0.0224 0.0086,0.0155 0.01206,0.0413 0.0034,0.0241 0.0034,0.0568 z"
         style="stroke-width:0.26458332"
         id="path4709"
         inkscape:connector-curvature="0" />
    </g>
    <g
       aria-label="&lt;CUSTOMIZED/&gt;"
       style="font-style:normal;font-variant:normal;font-weight:normal;font-stretch:normal;font-size:5.64444447px;line-height:1.25;font-family:Calibri;-inkscape-font-specification:'Calibri, Normal';font-variant-ligatures:normal;font-variant-caps:normal;font-variant-numeric:normal;font-feature-settings:normal;text-align:start;letter-spacing:0px;word-spacing:0px;writing-mode:lr-tb;text-anchor:start;fill:#ff6600;fill-opacity:1;stroke:#000000;stroke-width:0.10659192;stroke-miterlimit:4;stroke-dasharray:none;stroke-opacity:1"
       id="text4631-8"
       transform="matrix(1.0034519,0,0,1.0000465,-0.39882125,-0.87653219)">
      <path
         d="m 3.2343348,289.05359 q 0.020056,0.0659 0.027619,0.10971 0.00676,0.0412 -8.074e-4,0.0636 -0.00837,0.0198 -0.030266,0.0236 -0.019259,0.003 -0.053077,-0.004 l -2.39704131,-0.41724 q -0.0303786,-0.005 -0.0614419,-0.0504 -0.0310633,-0.0453 -0.0599447,-0.14021 -0.0128361,-0.0422 -0.0214311,-0.0799 -0.005958,-0.0385 -0.005268,-0.0647 0.003327,-0.0269 0.00906,-0.046 0.007568,-0.0225 0.0217837,-0.0326 L 2.415657,286.74153 q 0.05182,-0.0475 0.082541,-0.0222 0.033358,0.0244 0.071064,0.14834 0.023265,0.0765 0.03163,0.1229 0.011002,0.0456 0.00928,0.0778 1.124e-4,0.0288 -0.013531,0.0502 -0.011809,0.018 -0.038636,0.0434 l -1.4453412,1.34723 1.9362066,0.30394 q 0.039893,0.008 0.063164,0.0182 0.025105,0.007 0.044477,0.0326 0.018569,0.0232 0.035647,0.0698 0.018912,0.0432 0.042177,0.11968 z"
         style="font-style:normal;font-variant:normal;font-weight:normal;font-stretch:normal;font-size:5.64444447px;font-family:Calibri;-inkscape-font-specification:'Calibri, Normal';font-variant-ligatures:normal;font-variant-caps:normal;font-variant-numeric:normal;font-feature-settings:normal;text-align:start;writing-mode:lr-tb;text-anchor:start;fill:#ff6600;fill-opacity:1;stroke:#000000;stroke-width:0.10659192;stroke-miterlimit:4;stroke-dasharray:none;stroke-opacity:1"
         id="path4640-0"
         inkscape:connector-curvature="0" />
      <path
         d="m 6.2154475,288.08606 q 0.012836,0.0422 0.019827,0.0746 0.00699,0.0324 0.0063,0.0586 0.00195,0.0253 -0.00298,0.047 -0.00493,0.0217 -0.023276,0.0561 -0.018345,0.0344 -0.085872,0.11543 -0.06833,0.0784 -0.1788479,0.16965 -0.1086833,0.0878 -0.2617311,0.17182 -0.1496088,0.0858 -0.34209,0.14442 -0.3322277,0.10108 -0.6348689,0.0722 -0.3000045,-0.0297 -0.5556342,-0.18816 -0.252993,-0.15925 -0.4520966,-0.44437 -0.1972691,-0.28856 -0.3232239,-0.70253 -0.1291638,-0.42451 -0.1221427,-0.78963 0.00966,-0.36593 0.1376159,-0.65549 0.1271558,-0.2922 0.3644716,-0.49693 0.2399525,-0.20552 0.574817,-0.30741 0.1476568,-0.0449 0.2962283,-0.0584 0.1477692,-0.0162 0.2792581,-0.0101 0.131489,0.006 0.2406219,0.0334 0.109133,0.0273 0.1546421,0.0538 0.047344,0.023 0.063506,0.0383 0.016163,0.0153 0.029459,0.04 0.015131,0.0213 0.028197,0.0548 0.015703,0.0327 0.030144,0.0801 0.016045,0.0527 0.022003,0.0913 0.00596,0.0385 0.00343,0.0681 -0.00333,0.0269 -0.015136,0.0449 -0.00997,0.0146 -0.031068,0.021 -0.036914,0.0112 -0.1180753,-0.0188 -0.081963,-0.0327 -0.2058845,-0.0612 -0.1220867,-0.032 -0.2876231,-0.0364 -0.163702,-0.008 -0.3720035,0.0556 -0.2267587,0.069 -0.3858873,0.21824 -0.1572941,0.14581 -0.2353792,0.36258 -0.078085,0.21678 -0.074094,0.495 0.00583,0.27479 0.1053055,0.60174 0.098678,0.32432 0.2434475,0.55395 0.1466041,0.22619 0.3271484,0.35563 0.1823788,0.126 0.3986978,0.15525 0.2155168,0.0266 0.4554591,-0.0464 0.203028,-0.0618 0.3380786,-0.1576 0.1376873,-0.0966 0.2247045,-0.18936 0.088852,-0.0962 0.1421636,-0.16714 0.053312,-0.0709 0.092863,-0.083 0.018457,-0.006 0.034048,-0.002 0.01559,0.004 0.030721,0.0252 0.014328,0.0187 0.028999,0.0574 0.017307,0.0379 0.035759,0.0986 z"
         style="font-style:normal;font-variant:normal;font-weight:normal;font-stretch:normal;font-size:5.64444447px;font-family:Calibri;-inkscape-font-specification:'Calibri, Normal';font-variant-ligatures:normal;font-variant-caps:normal;font-variant-numeric:normal;font-feature-settings:normal;text-align:start;writing-mode:lr-tb;text-anchor:start;fill:#ff6600;fill-opacity:1;stroke:#000000;stroke-width:0.10659192;stroke-miterlimit:4;stroke-dasharray:none;stroke-opacity:1"
         id="path4642-6"
         inkscape:connector-curvature="0" />
      <path
         d="m 9.1454916,286.34471 q 0.094667,0.31113 0.076991,0.58443 -0.015841,0.26985 -0.1332469,0.48995 -0.117406,0.22009 -0.3335104,0.38091 -0.2161045,0.16082 -0.5246017,0.25469 -0.2821299,0.0858 -0.5390321,0.0747 -0.2569021,-0.0111 -0.4711516,-0.1188 -0.2150517,-0.1103 -0.3777061,-0.32297 -0.1626544,-0.21266 -0.2581233,-0.52643 L 5.9408963,285.0439 q -0.00642,-0.0211 -6.848e-4,-0.0401 0.00573,-0.019 0.029694,-0.035 0.023158,-0.0186 0.063741,-0.0367 0.039781,-0.0207 0.1083358,-0.0416 0.063281,-0.0193 0.1105126,-0.025 0.046429,-0.008 0.073368,-0.005 0.028774,-1.1e-4 0.044135,0.0125 0.01536,0.0126 0.021778,0.0337 l 0.6273671,2.06192 q 0.072203,0.23731 0.1839628,0.39632 0.1117594,0.15901 0.255967,0.24477 0.146042,0.0823 0.3174242,0.0964 0.1732167,0.0107 0.3656979,-0.0479 0.1977546,-0.0602 0.3330351,-0.16471 0.1379173,-0.10534 0.208087,-0.25344 0.072806,-0.14891 0.076031,-0.33715 0.00586,-0.18903 -0.063935,-0.41843 l -0.6345874,-2.08565 q -0.00642,-0.0211 -6.848e-4,-0.0401 0.00573,-0.019 0.029694,-0.035 0.023158,-0.0186 0.063741,-0.0367 0.042418,-0.0215 0.1083358,-0.0416 0.063282,-0.0193 0.1078759,-0.0242 0.046429,-0.008 0.073369,-0.005 0.028774,-1.1e-4 0.044135,0.0125 0.017997,0.0118 0.024415,0.0329 z"
         style="font-style:normal;font-variant:normal;font-weight:normal;font-stretch:normal;font-size:5.64444447px;font-family:Calibri;-inkscape-font-specification:'Calibri, Normal';font-variant-ligatures:normal;font-variant-caps:normal;font-variant-numeric:normal;font-feature-settings:normal;text-align:start;writing-mode:lr-tb;text-anchor:start;fill:#ff6600;fill-opacity:1;stroke:#000000;stroke-width:0.10659192;stroke-miterlimit:4;stroke-dasharray:none;stroke-opacity:1"
         id="path4644-0"
         inkscape:connector-curvature="0" />
      <path
         d="m 11.974676,285.81517 q 0.07301,0.23995 0.04032,0.45443 -0.03005,0.21368 -0.148142,0.39365 -0.116256,0.17654 -0.309775,0.30744 -0.190882,0.1301 -0.436097,0.20471 -0.171388,0.0521 -0.327869,0.0681 -0.153845,0.0151 -0.282697,0.008 -0.126216,-0.008 -0.218956,-0.0285 -0.0901,-0.0216 -0.131372,-0.0436 -0.03863,-0.0228 -0.06889,-0.0655 -0.02843,-0.0461 -0.0533,-0.12783 -0.01765,-0.058 -0.02361,-0.0965 -0.0068,-0.0412 -0.0034,-0.0681 0.0033,-0.0269 0.01674,-0.0397 0.01261,-0.0154 0.0337,-0.0218 0.03691,-0.0112 0.116471,0.0135 0.08219,0.024 0.203708,0.0446 0.121514,0.0206 0.283611,0.0232 0.163932,-9e-4 0.35905,-0.0603 0.147657,-0.0449 0.256913,-0.12138 0.111892,-0.0773 0.177243,-0.17492 0.06719,-0.10111 0.08256,-0.22102 0.01537,-0.11991 -0.02554,-0.25438 -0.04412,-0.14502 -0.141331,-0.2278 -0.09721,-0.0828 -0.228578,-0.12635 -0.132173,-0.0462 -0.291174,-0.067 -0.157166,-0.0242 -0.322243,-0.046 -0.165879,-0.0244 -0.327859,-0.0645 -0.16198,-0.04 -0.3037805,-0.11787 -0.1418007,-0.0779 -0.2552822,-0.20465 -0.111647,-0.13024 -0.1750256,-0.33854 -0.064983,-0.21358 -0.03906,-0.40296 0.027757,-0.19281 0.1303699,-0.34791 0.1052494,-0.1559 0.2774442,-0.27167 0.1740292,-0.11921 0.3955142,-0.1866 0.113379,-0.0345 0.233177,-0.0479 0.121632,-0.0168 0.232257,-0.0131 0.112459,3.5e-4 0.204397,0.0185 0.09114,0.0155 0.122889,0.0346 0.03359,0.0157 0.04631,0.0291 0.01192,0.0108 0.02442,0.0329 0.01169,0.0195 0.02396,0.0503 0.01226,0.0308 0.02751,0.0809 0.01444,0.0475 0.0204,0.086 0.0086,0.0377 0.0087,0.0665 -6.9e-4,0.0261 -0.0125,0.0441 -0.01,0.0146 -0.02843,0.0202 -0.029,0.009 -0.103517,-0.009 -0.07188,-0.0185 -0.175163,-0.036 -0.10409,-0.0202 -0.239248,-0.0194 -0.133323,-0.003 -0.286253,0.0439 -0.142384,0.0433 -0.235819,0.11496 -0.09424,0.069 -0.1435379,0.15314 -0.049301,0.0841 -0.057104,0.18159 -0.0078,0.0974 0.021881,0.195 0.043322,0.14238 0.1405279,0.22515 0.09721,0.0828 0.22938,0.12899 0.134811,0.0454 0.294614,0.0688 0.159803,0.0234 0.325682,0.0478 0.165076,0.0218 0.329693,0.061 0.163814,0.0366 0.305615,0.11443 0.143635,0.0744 0.255282,0.20465 0.113482,0.1268 0.175256,0.32982 z"
         style="font-style:normal;font-variant:normal;font-weight:normal;font-stretch:normal;font-size:5.64444447px;font-family:Calibri;-inkscape-font-specification:'Calibri, Normal';font-variant-ligatures:normal;font-variant-caps:normal;font-variant-numeric:normal;font-feature-settings:normal;text-align:start;writing-mode:lr-tb;text-anchor:start;fill:#ff6600;fill-opacity:1;stroke:#000000;stroke-width:0.10659192;stroke-miterlimit:4;stroke-dasharray:none;stroke-opacity:1"
         id="path4646-6"
         inkscape:connector-curvature="0" />
      <path
         d="m 14.039883,282.71796 q 0.01524,0.0501 0.0212,0.0886 0.006,0.0385 -5e-6,0.0663 -0.0041,0.0243 -0.01938,0.0405 -0.01261,0.0154 -0.03371,0.0218 l -0.959769,0.29202 0.900135,2.95841 q 0.0064,0.0211 6.85e-4,0.0401 -0.0057,0.019 -0.02889,0.0376 -0.02396,0.0159 -0.06718,0.0349 -0.03978,0.0207 -0.105699,0.0408 -0.06328,0.0193 -0.110513,0.025 -0.04643,0.008 -0.0752,0.008 -0.02958,-0.003 -0.04494,-0.0151 -0.01536,-0.0126 -0.02178,-0.0337 l -0.900135,-2.95841 -0.95977,0.29202 q -0.02109,0.006 -0.04276,0.001 -0.01903,-0.006 -0.03599,-0.0236 -0.01777,-0.0205 -0.03691,-0.055 -0.01651,-0.0353 -0.03175,-0.0854 -0.01524,-0.0501 -0.0212,-0.0886 -0.0041,-0.042 -7.97e-4,-0.0689 0.0033,-0.0269 0.01594,-0.0423 0.01525,-0.0162 0.03634,-0.0226 l 2.373055,-0.72203 q 0.02109,-0.006 0.04012,-6.9e-4 0.02167,0.005 0.03943,0.0255 0.0204,0.0197 0.03771,0.0577 0.01651,0.0353 0.03175,0.0854 z"
         style="font-style:normal;font-variant:normal;font-weight:normal;font-stretch:normal;font-size:5.64444447px;font-family:Calibri;-inkscape-font-specification:'Calibri, Normal';font-variant-ligatures:normal;font-variant-caps:normal;font-variant-numeric:normal;font-feature-settings:normal;text-align:start;writing-mode:lr-tb;text-anchor:start;fill:#ff6600;fill-opacity:1;stroke:#000000;stroke-width:0.10659192;stroke-miterlimit:4;stroke-dasharray:none;stroke-opacity:1"
         id="path4648-5"
         inkscape:connector-curvature="0" />
      <path
         d="m 17.798994,283.26189 q 0.106395,0.41942 0.09294,0.7811 -0.01346,0.36168 -0.150833,0.64959 -0.135381,0.28456 -0.399385,0.48801 -0.264682,0.20078 -0.660058,0.30108 -0.390034,0.0989 -0.705021,0.0566 -0.312992,-0.0457 -0.556242,-0.22 -0.240578,-0.17497 -0.414761,-0.48052 -0.174184,-0.30555 -0.282612,-0.73298 -0.103684,-0.40874 -0.08955,-0.76775 0.01413,-0.359 0.152866,-0.64157 0.138052,-0.28523 0.402734,-0.48601 0.264004,-0.20346 0.659381,-0.30375 0.382019,-0.0969 0.694334,-0.0539 0.312315,0.043 0.555565,0.21733 0.245243,0.17095 0.418749,0.47383 0.175499,0.29952 0.281894,0.71894 z m -0.475403,0.15472 q -0.07454,-0.29386 -0.191674,-0.53142 -0.115137,-0.24092 -0.284784,-0.39408 -0.167653,-0.1565 -0.397113,-0.20919 -0.229461,-0.0527 -0.528665,0.0232 -0.299204,0.0759 -0.473773,0.2396 -0.174568,0.16371 -0.255361,0.38324 -0.07812,0.21885 -0.07052,0.4842 0.0096,0.262 0.07939,0.53716 0.07726,0.30455 0.19307,0.54813 0.115814,0.24359 0.283467,0.40009 0.166976,0.15384 0.393765,0.2072 0.228782,0.05 0.533329,-0.0272 0.301876,-0.0766 0.479116,-0.24096 0.17724,-0.16438 0.254684,-0.38591 0.07677,-0.22419 0.06649,-0.48886 -0.01027,-0.26468 -0.08143,-0.54518 z"
         style="font-style:normal;font-variant:normal;font-weight:normal;font-stretch:normal;font-size:5.64444447px;font-family:Calibri;-inkscape-font-specification:'Calibri, Normal';font-variant-ligatures:normal;font-variant-caps:normal;font-variant-numeric:normal;font-feature-settings:normal;text-align:start;writing-mode:lr-tb;text-anchor:start;fill:#ff6600;fill-opacity:1;stroke:#000000;stroke-width:0.10659192;stroke-miterlimit:4;stroke-dasharray:none;stroke-opacity:1"
         id="path4650-5"
         inkscape:connector-curvature="0" />
      <path
         d="m 22.711364,286.1337 q -0.0058,0.0213 -0.02078,0.0343 -0.01499,0.0131 -0.04448,0.0164 -0.02876,7.3e-4 -0.07276,-0.006 -0.04206,-0.003 -0.108537,-0.021 -0.06116,-0.0167 -0.104188,-0.037 -0.0411,-0.0169 -0.06551,-0.0321 -0.02103,-0.0172 -0.02732,-0.036 -0.0063,-0.0189 -4.9e-4,-0.0401 l 0.816828,-2.99677 -0.0053,-10e-4 -2.046283,2.67595 q -0.01305,0.0164 -0.03263,0.0254 -0.01692,0.01 -0.04907,0.0123 -0.02876,7.3e-4 -0.06938,-0.007 -0.03868,-0.005 -0.09186,-0.0193 -0.05584,-0.0152 -0.09428,-0.0314 -0.03844,-0.0162 -0.06285,-0.0314 -0.02369,-0.0179 -0.03602,-0.0355 -0.0097,-0.0169 -0.01064,-0.0343 l -0.352198,-3.32969 -0.0027,-7.3e-4 -0.816827,2.99678 q -0.0058,0.0213 -0.02078,0.0343 -0.01498,0.0131 -0.04447,0.0165 -0.02876,7.3e-4 -0.07276,-0.006 -0.04472,-0.004 -0.111196,-0.0217 -0.06382,-0.0174 -0.104189,-0.037 -0.04109,-0.0169 -0.06551,-0.0321 -0.02103,-0.0172 -0.02732,-0.036 -0.0036,-0.0181 0.0022,-0.0394 l 0.862489,-3.1643 q 0.03044,-0.11168 0.101986,-0.14359 0.07155,-0.0319 0.143341,-0.0124 l 0.276543,0.0754 q 0.08509,0.0232 0.144559,0.0565 0.05947,0.0333 0.09791,0.081 0.03844,0.0476 0.05585,0.10949 0.01741,0.0619 0.02178,0.1402 l 0.318032,2.76334 0.01329,0.004 1.713982,-2.2009 q 0.05099,-0.0718 0.100782,-0.11822 0.04979,-0.0464 0.09837,-0.0675 0.05197,-0.023 0.106113,-0.0225 0.05487,-0.002 0.121348,0.0159 l 0.289838,0.079 q 0.03989,0.0109 0.07083,0.0336 0.03433,0.0208 0.05101,0.0539 0.02007,0.0312 0.02515,0.0754 0.0058,0.0416 -0.0094,0.0974 z"
         style="font-style:normal;font-variant:normal;font-weight:normal;font-stretch:normal;font-size:5.64444447px;font-family:Calibri;-inkscape-font-specification:'Calibri, Normal';font-variant-ligatures:normal;font-variant-caps:normal;font-variant-numeric:normal;font-feature-settings:normal;text-align:start;writing-mode:lr-tb;text-anchor:start;fill:#ff6600;fill-opacity:1;stroke:#000000;stroke-width:0.10659192;stroke-miterlimit:4;stroke-dasharray:none;stroke-opacity:1"
         id="path4652-8"
         inkscape:connector-curvature="0" />
      <path
         d="m 24.086102,286.50841 q -0.0058,0.0213 -0.02078,0.0343 -0.01498,0.0131 -0.04447,0.0165 -0.02877,7.3e-4 -0.07542,-0.006 -0.04472,-0.004 -0.111196,-0.0217 -0.06382,-0.0174 -0.106848,-0.0377 -0.04375,-0.0176 -0.06817,-0.0329 -0.02369,-0.0179 -0.02998,-0.0367 -0.0063,-0.0189 -4.89e-4,-0.0401 l 0.900177,-3.30256 q 0.0058,-0.0213 0.02078,-0.0343 0.01764,-0.0123 0.04641,-0.0131 0.03215,-0.003 0.07614,0.004 0.04738,0.004 0.108537,0.021 0.06648,0.0181 0.106847,0.0377 0.04375,0.0176 0.06745,0.0355 0.02442,0.0152 0.0307,0.0341 0.0063,0.0189 4.89e-4,0.0401 z"
         style="font-style:normal;font-variant:normal;font-weight:normal;font-stretch:normal;font-size:5.64444447px;font-family:Calibri;-inkscape-font-specification:'Calibri, Normal';font-variant-ligatures:normal;font-variant-caps:normal;font-variant-numeric:normal;font-feature-settings:normal;text-align:start;writing-mode:lr-tb;text-anchor:start;fill:#ff6600;fill-opacity:1;stroke:#000000;stroke-width:0.10659192;stroke-miterlimit:4;stroke-dasharray:none;stroke-opacity:1"
         id="path4654-3"
         inkscape:connector-curvature="0" />
      <path
         d="m 27.01251,287.17466 q -0.01377,0.0505 -0.02924,0.0863 -0.01474,0.0331 -0.03456,0.0534 -0.01716,0.021 -0.03867,0.0266 -0.01885,0.006 -0.04279,-2.4e-4 l -2.031529,-0.55373 q -0.06914,-0.0188 -0.100084,-0.073 -0.03095,-0.0541 -0.0056,-0.14721 l 0.02682,-0.0984 q 0.0094,-0.0346 0.02005,-0.0631 0.01329,-0.0278 0.03528,-0.0561 0.02272,-0.0309 0.05752,-0.0643 0.03553,-0.036 0.08532,-0.0824 l 2.264409,-2.05087 -1.568851,-0.42762 q -0.02659,-0.007 -0.0423,-0.023 -0.01571,-0.0157 -0.02321,-0.0406 -0.0041,-0.0268 -9e-6,-0.0628 0.0048,-0.0387 0.01787,-0.0865 0.0145,-0.0532 0.02996,-0.089 0.01546,-0.0358 0.03262,-0.0568 0.01982,-0.0203 0.04133,-0.0259 0.02151,-0.006 0.0481,0.002 l 1.91453,0.52184 q 0.07179,0.0196 0.100084,0.073 0.03167,0.0515 0.0085,0.13657 l -0.02827,0.1037 q -0.0116,0.0426 -0.02634,0.0757 -0.01401,0.0305 -0.03673,0.0614 -0.02272,0.0309 -0.05752,0.0643 -0.03214,0.0341 -0.08387,0.0771 l -2.253533,2.04241 1.680532,0.45807 q 0.0452,0.0123 0.05681,0.064 0.01161,0.0517 -0.01666,0.15544 z"
         style="font-style:normal;font-variant:normal;font-weight:normal;font-stretch:normal;font-size:5.64444447px;font-family:Calibri;-inkscape-font-specification:'Calibri, Normal';font-variant-ligatures:normal;font-variant-caps:normal;font-variant-numeric:normal;font-feature-settings:normal;text-align:start;writing-mode:lr-tb;text-anchor:start;fill:#ff6600;fill-opacity:1;stroke:#000000;stroke-width:0.10659192;stroke-miterlimit:4;stroke-dasharray:none;stroke-opacity:1"
         id="path4656-1"
         inkscape:connector-curvature="0" />
      <path
         d="m 29.500673,287.85569 q -0.01305,0.0479 -0.02851,0.0836 -0.01474,0.0331 -0.03456,0.0534 -0.01982,0.0203 -0.04133,0.0259 -0.01885,0.006 -0.04013,4.9e-4 l -1.651282,-0.45009 q -0.06116,-0.0167 -0.106127,-0.0718 -0.04159,-0.057 -0.01332,-0.16074 l 0.836397,-3.06857 q 0.02827,-0.1037 0.09232,-0.12909 0.06744,-0.0273 0.128595,-0.0107 l 1.632669,0.44502 q 0.02127,0.006 0.03433,0.0208 0.01571,0.0157 0.01983,0.0425 0.0041,0.0268 -7.15e-4,0.0655 -0.0014,0.0367 -0.01594,0.0899 -0.01305,0.0479 -0.03117,0.0829 -0.01474,0.0331 -0.0319,0.0541 -0.01643,0.0184 -0.03795,0.0239 -0.01885,0.006 -0.04013,4.9e-4 l -1.345489,-0.36673 -0.294261,1.07958 1.154036,0.31455 q 0.02127,0.006 0.0336,0.0234 0.01572,0.0157 0.02055,0.0399 0.0075,0.0249 0.0027,0.0636 -0.0048,0.0387 -0.0186,0.0892 -0.01305,0.0479 -0.02779,0.081 -0.01474,0.0331 -0.03383,0.0508 -0.01643,0.0184 -0.03795,0.0239 -0.01813,0.004 -0.0394,-0.002 l -1.154036,-0.31455 -0.335574,1.23115 1.364103,0.37181 q 0.02127,0.006 0.03433,0.0208 0.01571,0.0157 0.02249,0.0433 0.0075,0.0249 0.0027,0.0636 -0.0041,0.036 -0.0186,0.0892 z"
         style="font-style:normal;font-variant:normal;font-weight:normal;font-stretch:normal;font-size:5.64444447px;font-family:Calibri;-inkscape-font-specification:'Calibri, Normal';font-variant-ligatures:normal;font-variant-caps:normal;font-variant-numeric:normal;font-feature-settings:normal;text-align:start;writing-mode:lr-tb;text-anchor:start;fill:#ff6600;fill-opacity:1;stroke:#000000;stroke-width:0.10659192;stroke-miterlimit:4;stroke-dasharray:none;stroke-opacity:1"
         id="path4658-6"
         inkscape:connector-curvature="0" />
      <path
         d="m 33.322231,287.19765 q -0.121763,0.44672 -0.327426,0.7506 -0.204937,0.30122 -0.485797,0.46177 -0.277475,0.15861 -0.62628,0.18066 -0.348804,0.022 -0.79021,-0.0983 l -0.728585,-0.19859 q -0.06116,-0.0167 -0.106127,-0.0718 -0.04158,-0.057 -0.01332,-0.16074 l 0.836396,-3.06857 q 0.02827,-0.1037 0.09232,-0.12909 0.06744,-0.0273 0.128595,-0.0107 l 0.779108,0.21237 q 0.446723,0.12176 0.723285,0.32283 0.277287,0.19842 0.425262,0.47299 0.151359,0.27265 0.173647,0.61009 0.02495,0.33817 -0.08087,0.72639 z m -0.486365,-0.11257 q 0.0761,-0.2792 0.0722,-0.53736 -0.0032,-0.26082 -0.104253,-0.47691 -0.09841,-0.21536 -0.297617,-0.37535 -0.199204,-0.16 -0.55552,-0.25712 l -0.465337,-0.12683 -0.729854,2.67768 0.470656,0.12829 q 0.329724,0.0899 0.578213,0.069 0.248489,-0.0208 0.446442,-0.14969 0.197953,-0.12887 0.341986,-0.36384 0.147417,-0.23691 0.243088,-0.58791 z"
         style="font-style:normal;font-variant:normal;font-weight:normal;font-stretch:normal;font-size:5.64444447px;font-family:Calibri;-inkscape-font-specification:'Calibri, Normal';font-variant-ligatures:normal;font-variant-caps:normal;font-variant-numeric:normal;font-feature-settings:normal;text-align:start;writing-mode:lr-tb;text-anchor:start;fill:#ff6600;fill-opacity:1;stroke:#000000;stroke-width:0.10659192;stroke-miterlimit:4;stroke-dasharray:none;stroke-opacity:1"
         id="path4660-1"
         inkscape:connector-curvature="0" />
      <path
         d="m 33.358874,289.79858 q -0.02006,0.0317 -0.04375,0.0452 -0.02175,0.0169 -0.05124,0.0203 -0.02949,0.003 -0.07082,-0.002 -0.03868,-0.005 -0.09452,-0.0201 -0.06648,-0.0181 -0.108782,-0.0411 -0.04037,-0.0196 -0.05923,-0.0447 -0.01958,-0.0225 -0.01765,-0.0505 0.0012,-0.0254 0.02658,-0.0556 l 2.811148,-3.9729 q 0.02006,-0.0317 0.04109,-0.0459 0.02441,-0.0162 0.05124,-0.0203 0.03022,-0.006 0.07083,0.002 0.04134,0.006 0.09718,0.0208 0.06648,0.0181 0.106123,0.0403 0.04037,0.0196 0.05995,0.042 0.01958,0.0225 0.01765,0.0505 -0.0019,0.028 -0.02465,0.059 z"
         style="font-style:normal;font-variant:normal;font-weight:normal;font-stretch:normal;font-size:5.64444447px;font-family:Calibri;-inkscape-font-specification:'Calibri, Normal';font-variant-ligatures:normal;font-variant-caps:normal;font-variant-numeric:normal;font-feature-settings:normal;text-align:start;writing-mode:lr-tb;text-anchor:start;fill:#ff6600;fill-opacity:1;stroke:#000000;stroke-width:0.10659192;stroke-miterlimit:4;stroke-dasharray:none;stroke-opacity:1"
         id="path4662-6"
         inkscape:connector-curvature="0" />
      <path
         d="m 38.343447,289.10424 q -0.02083,0.042 -0.04292,0.0741 -0.02087,0.0296 -0.04053,0.0507 -0.01966,0.021 -0.03936,0.0297 -0.01847,0.006 -0.03696,0.006 l -2.423167,0.0157 q -0.03328,-10e-4 -0.05426,-0.008 -0.01975,-0.01 -0.02351,-0.0332 -0.0013,-0.0222 0.01092,-0.0592 0.01344,-0.0395 0.04163,-0.0963 0.03431,-0.0691 0.05761,-0.10987 0.0233,-0.0407 0.04296,-0.0617 0.02335,-0.0223 0.04799,-0.0285 0.02463,-0.006 0.05792,-0.005 l 1.980747,0.008 -1.2038,-1.54828 q -0.02474,-0.0308 -0.03836,-0.0529 -0.0099,-0.0234 -0.0063,-0.0555 0.0036,-0.0321 0.02197,-0.0753 0.01959,-0.0457 0.05512,-0.11725 0.03186,-0.0642 0.05395,-0.0963 0.02332,-0.0346 0.04054,-0.0445 0.02092,-0.0112 0.03945,0.001 0.01852,0.0123 0.03833,0.0406 l 1.458868,1.94565 q 0.01856,0.0246 0.0089,0.0813 -0.006,0.0555 -0.04766,0.13942 z"
         style="font-style:normal;font-variant:normal;font-weight:normal;font-stretch:normal;font-size:5.64444447px;font-family:Calibri;-inkscape-font-specification:'Calibri, Normal';font-variant-ligatures:normal;font-variant-caps:normal;font-variant-numeric:normal;font-feature-settings:normal;text-align:start;writing-mode:lr-tb;text-anchor:start;fill:#ff6600;fill-opacity:1;stroke:#000000;stroke-width:0.10659192;stroke-miterlimit:4;stroke-dasharray:none;stroke-opacity:1"
         id="path4664-4"
         inkscape:connector-curvature="0" />
    </g>
    <g
       aria-label="JLCUSTOMSOFTWARE.NET"
       style="font-style:normal;font-variant:normal;font-weight:normal;font-stretch:normal;font-size:3.52777767px;line-height:1.25;font-family:Calibri;-inkscape-font-specification:'Calibri, Normal';font-variant-ligatures:normal;font-variant-caps:normal;font-variant-numeric:normal;font-feature-settings:normal;text-align:start;letter-spacing:0px;word-spacing:0px;writing-mode:lr-tb;text-anchor:start;fill:#d45500;fill-opacity:1;stroke:#000000;stroke-width:0.09298798;stroke-miterlimit:4;stroke-dasharray:none;stroke-opacity:1"
       id="text4669-2"
       transform="matrix(0.98410252,0,0,0.86895583,0.16561307,38.139716)">
      <path
         d="m 1.0903742,291.76123 q 0,0.13264 -0.024116,0.24288 -0.024116,0.11025 -0.0826823,0.18776 -0.0585666,0.0775 -0.15502929,0.12058 -0.0947401,0.0413 -0.23598903,0.0413 -0.0482313,0 -0.0964627,-0.009 -0.0465088,-0.007 -0.0861274,-0.0207 -0.0396186,-0.0121 -0.0689019,-0.0258 -0.0292833,-0.0155 -0.0396186,-0.0258 -0.008613,-0.0103 -0.0155029,-0.0207 -0.005168,-0.0103 -0.0103353,-0.0241 -0.003445,-0.0155 -0.005168,-0.0362 -0.001723,-0.0224 -0.001723,-0.0534 0,-0.0379 0.001723,-0.062 0.003445,-0.0258 0.0103353,-0.0396 0.00689,-0.0155 0.0155029,-0.0207 0.0103353,-0.007 0.0241157,-0.007 0.0137804,0 0.034451,0.0138 0.0223931,0.0121 0.0516764,0.0276 0.0310059,0.0155 0.0706245,0.0293 0.0396186,0.012 0.0930176,0.012 0.0585666,0 0.0999078,-0.0138 0.0413411,-0.0155 0.0689019,-0.0551 0.0275608,-0.0396 0.0413411,-0.10852 0.0137804,-0.0706 0.0137804,-0.18259 v -1.59508 q 0,-0.0121 0.00689,-0.0224 0.00689,-0.0103 0.0241157,-0.0172 0.0172255,-0.007 0.0447862,-0.0103 0.0292833,-0.003 0.072347,-0.003 0.0413411,0 0.0706245,0.003 0.029283,0.003 0.044786,0.0103 0.017226,0.007 0.024116,0.0172 0.00861,0.0103 0.00861,0.0224 z"
         style="fill:#d45500;stroke:#000000;stroke-width:0.09298798;stroke-miterlimit:4;stroke-dasharray:none;stroke-opacity:1"
         id="path4671-8"
         inkscape:connector-curvature="0" />
      <path
         d="m 2.8318699,292.19359 q 0,0.0345 -0.00345,0.0586 -0.00345,0.0224 -0.012058,0.0396 -0.00689,0.0155 -0.018948,0.0241 -0.010335,0.007 -0.025838,0.007 H 1.7862835 q -0.039619,0 -0.075792,-0.0258 -0.034451,-0.0276 -0.034451,-0.0947 v -2.06362 q 0,-0.0138 0.00689,-0.0241 0.00689,-0.0103 0.024116,-0.0155 0.017225,-0.007 0.046509,-0.0103 0.029283,-0.005 0.070624,-0.005 0.043064,0 0.070624,0.005 0.029283,0.003 0.046509,0.0103 0.017226,0.005 0.024116,0.0155 0.00689,0.0103 0.00689,0.0241 v 1.92753 h 0.7992622 q 0.015503,0 0.025838,0.009 0.012058,0.007 0.018948,0.0224 0.00861,0.0138 0.012058,0.0379 0.00345,0.0241 0.00345,0.0586 z"
         style="fill:#d45500;stroke:#000000;stroke-width:0.09298798;stroke-miterlimit:4;stroke-dasharray:none;stroke-opacity:1"
         id="path4673-6"
         inkscape:connector-curvature="0" />
      <path
         d="m 4.6112617,292.00756 q 0,0.0276 -0.00172,0.0482 -0.00172,0.0207 -0.00689,0.0362 -0.00345,0.0155 -0.010335,0.0276 -0.00689,0.0121 -0.024116,0.0293 -0.017225,0.0172 -0.072347,0.0534 -0.055122,0.0344 -0.1378038,0.0689 -0.08096,0.0327 -0.1877577,0.0551 -0.1050754,0.0241 -0.2308214,0.0241 -0.217041,0 -0.3927409,-0.0723 -0.1739773,-0.0724 -0.2980007,-0.2136 -0.1223009,-0.14125 -0.1894803,-0.34795 -0.065457,-0.20843 -0.065457,-0.47887 0,-0.27733 0.070625,-0.49437 0.072347,-0.21704 0.2015381,-0.3669 0.129191,-0.15159 0.308336,-0.23083 0.1808675,-0.0792 0.3996311,-0.0792 0.096463,0 0.1877577,0.0189 0.091295,0.0172 0.1688096,0.0448 0.077515,0.0276 0.1378038,0.0637 0.060289,0.0362 0.082682,0.0603 0.024116,0.0224 0.031006,0.0345 0.00689,0.012 0.010335,0.0293 0.00517,0.0155 0.00689,0.0379 0.00345,0.0224 0.00345,0.0534 0,0.0345 -0.00345,0.0586 -0.00345,0.0241 -0.010335,0.0413 -0.00689,0.0155 -0.017225,0.0241 -0.00861,0.007 -0.022393,0.007 -0.024116,0 -0.067179,-0.0327 -0.043064,-0.0344 -0.1119656,-0.0741 -0.067179,-0.0413 -0.1653646,-0.0741 -0.096463,-0.0344 -0.2325439,-0.0344 -0.1481391,0 -0.27044,0.0603 -0.1205783,0.0586 -0.2067057,0.17398 -0.086127,0.11541 -0.1343587,0.28249 -0.046509,0.16537 -0.046509,0.37896 0,0.21188 0.044786,0.37552 0.046509,0.16192 0.1309137,0.27216 0.086127,0.10852 0.2101508,0.16537 0.1240234,0.0551 0.2807752,0.0551 0.1326362,0 0.2308214,-0.0327 0.099908,-0.0327 0.1688097,-0.0724 0.070625,-0.0413 0.1154107,-0.0741 0.044786,-0.0327 0.070625,-0.0327 0.012058,0 0.02067,0.005 0.00861,0.005 0.01378,0.0207 0.00517,0.0138 0.00689,0.0396 0.00345,0.0258 0.00345,0.0655 z"
         style="fill:#d45500;stroke:#000000;stroke-width:0.09298798;stroke-miterlimit:4;stroke-dasharray:none;stroke-opacity:1"
         id="path4675-2"
         inkscape:connector-curvature="0" />
      <path
         d="m 6.6800414,291.49941 q 0,0.20326 -0.060289,0.36345 -0.058567,0.15848 -0.1688097,0.26872 -0.110243,0.11024 -0.2687174,0.16709 -0.1584744,0.0568 -0.3600125,0.0568 -0.1843126,0 -0.3358968,-0.0534 -0.1515842,-0.0534 -0.2601047,-0.15675 -0.1085205,-0.10507 -0.1670871,-0.26183 -0.058567,-0.15675 -0.058567,-0.36173 v -1.38321 q 0,-0.0138 0.00689,-0.0241 0.00689,-0.0103 0.024116,-0.0155 0.017226,-0.007 0.044786,-0.0103 0.027561,-0.005 0.072347,-0.005 0.041341,0 0.070624,0.005 0.029283,0.003 0.044786,0.0103 0.017226,0.005 0.024116,0.0155 0.00689,0.0103 0.00689,0.0241 v 1.34704 q 0,0.15503 0.037896,0.27044 0.037896,0.11541 0.1085205,0.19292 0.072347,0.0758 0.1722548,0.11541 0.1016303,0.0379 0.2273763,0.0379 0.129191,0 0.2290988,-0.0379 0.1016303,-0.0379 0.1705322,-0.11369 0.070625,-0.0758 0.106798,-0.18775 0.037896,-0.11197 0.037896,-0.26183 v -1.36254 q 0,-0.0138 0.00689,-0.0241 0.00689,-0.0103 0.024116,-0.0155 0.017226,-0.007 0.044786,-0.0103 0.029283,-0.005 0.072347,-0.005 0.041341,0 0.068902,0.005 0.029283,0.003 0.044786,0.0103 0.017226,0.005 0.024116,0.0155 0.00861,0.0103 0.00861,0.0241 z"
         style="fill:#d45500;stroke:#000000;stroke-width:0.09298798;stroke-miterlimit:4;stroke-dasharray:none;stroke-opacity:1"
         id="path4677-5"
         inkscape:connector-curvature="0" />
      <path
         d="m 8.468046,291.6975 q 0,0.15675 -0.058567,0.27905 -0.056844,0.1223 -0.160197,0.20843 -0.1016303,0.0844 -0.2411566,0.12747 -0.1378038,0.0431 -0.2980008,0.0431 -0.1119656,0 -0.2084283,-0.0189 -0.09474,-0.0189 -0.1705322,-0.0465 -0.07407,-0.0276 -0.125746,-0.0568 -0.049954,-0.0293 -0.070624,-0.0499 -0.018948,-0.0207 -0.029283,-0.0517 -0.00861,-0.0327 -0.00861,-0.0861 0,-0.0379 0.00345,-0.062 0.00345,-0.0258 0.010335,-0.0413 0.00689,-0.0155 0.017225,-0.0207 0.010335,-0.007 0.024116,-0.007 0.024116,0 0.067179,0.0293 0.044786,0.0293 0.1136882,0.0637 0.068902,0.0344 0.1653646,0.0655 0.098185,0.0293 0.2256537,0.0293 0.096463,0 0.1756999,-0.0258 0.08096,-0.0258 0.1378038,-0.0723 0.058567,-0.0482 0.089573,-0.11713 0.031006,-0.0689 0.031006,-0.15675 0,-0.0947 -0.043064,-0.16192 -0.043064,-0.0672 -0.1136881,-0.11713 -0.070624,-0.0517 -0.1619195,-0.093 -0.089572,-0.0431 -0.1843126,-0.0861 -0.09474,-0.0448 -0.1843126,-0.0982 -0.089573,-0.0534 -0.1601969,-0.12575 -0.070625,-0.0723 -0.1154107,-0.16881 -0.043064,-0.0982 -0.043064,-0.23427 0,-0.13952 0.049954,-0.24804 0.051676,-0.11025 0.1412489,-0.18432 0.091295,-0.0741 0.2153184,-0.11196 0.125746,-0.0396 0.27044,-0.0396 0.07407,0 0.1481391,0.0138 0.075792,0.0121 0.1412489,0.0344 0.067179,0.0207 0.1188558,0.0482 0.051676,0.0258 0.067179,0.0431 0.017226,0.0155 0.022393,0.0258 0.00517,0.009 0.00861,0.0241 0.00345,0.0138 0.00517,0.0344 0.00172,0.0207 0.00172,0.0534 0,0.031 -0.00345,0.0551 -0.00172,0.0241 -0.00689,0.0413 -0.00517,0.0155 -0.015503,0.0241 -0.00861,0.007 -0.020671,0.007 -0.018948,0 -0.060289,-0.0241 -0.039619,-0.0241 -0.098185,-0.0534 -0.058567,-0.031 -0.1395263,-0.0551 -0.079237,-0.0258 -0.179145,-0.0258 -0.093018,0 -0.1619195,0.0258 -0.068902,0.0241 -0.1136881,0.0655 -0.044786,0.0413 -0.067179,0.0982 -0.022393,0.0568 -0.022393,0.12058 0,0.093 0.043064,0.1602 0.043064,0.0672 0.1136882,0.11885 0.072347,0.0517 0.163642,0.0948 0.091295,0.0431 0.1860351,0.0878 0.09474,0.0431 0.1860352,0.0965 0.091295,0.0517 0.1619195,0.12402 0.072347,0.0706 0.1154107,0.16881 0.044786,0.0965 0.044786,0.2291 z"
         style="fill:#d45500;stroke:#000000;stroke-width:0.09298798;stroke-miterlimit:4;stroke-dasharray:none;stroke-opacity:1"
         id="path4679-3"
         inkscape:connector-curvature="0" />
      <path
         d="m 10.266385,290.22128 q 0,0.0327 -0.0034,0.0568 -0.0034,0.0241 -0.01206,0.0396 -0.0069,0.0138 -0.01895,0.0207 -0.01034,0.007 -0.02412,0.007 H 9.5808112 v 1.9327 q 0,0.0138 -0.00689,0.0241 -0.00689,0.0103 -0.024116,0.0172 -0.017225,0.005 -0.046509,0.009 -0.027561,0.005 -0.070624,0.005 -0.041341,0 -0.070624,-0.005 -0.029283,-0.003 -0.046509,-0.009 -0.017225,-0.007 -0.024116,-0.0172 -0.00689,-0.0103 -0.00689,-0.0241 v -1.9327 H 8.6575256 q -0.01378,0 -0.025838,-0.007 -0.010335,-0.007 -0.017226,-0.0207 -0.00689,-0.0155 -0.012058,-0.0396 -0.00345,-0.0241 -0.00345,-0.0568 0,-0.0327 0.00345,-0.0568 0.00517,-0.0258 0.012058,-0.0413 0.00689,-0.0155 0.017226,-0.0224 0.012058,-0.007 0.025838,-0.007 h 1.5502934 q 0.01378,0 0.02412,0.007 0.01206,0.007 0.01895,0.0224 0.0086,0.0155 0.01206,0.0413 0.0034,0.0241 0.0034,0.0568 z"
         style="fill:#d45500;stroke:#000000;stroke-width:0.09298798;stroke-miterlimit:4;stroke-dasharray:none;stroke-opacity:1"
         id="path4681-5"
         inkscape:connector-curvature="0" />
      <path
         d="m 12.362726,291.18246 q 0,0.27044 -0.06373,0.48748 -0.06373,0.21704 -0.191203,0.37035 -0.125746,0.15158 -0.316949,0.23426 -0.191203,0.081 -0.44614,0.081 -0.251492,0 -0.435804,-0.0741 -0.18259,-0.0758 -0.303169,-0.21876 -0.118855,-0.14297 -0.177422,-0.35485 -0.05857,-0.21187 -0.05857,-0.48748 0,-0.26355 0.06373,-0.47886 0.06373,-0.21532 0.191202,-0.36518 0.127469,-0.15159 0.318672,-0.23255 0.191202,-0.0827 0.44614,-0.0827 0.246324,0 0.428914,0.0741 0.18259,0.0741 0.303168,0.21704 0.122301,0.14125 0.180868,0.3514 0.06029,0.20843 0.06029,0.47887 z m -0.311781,0.0207 q 0,-0.18948 -0.03445,-0.3514 -0.03273,-0.16364 -0.111966,-0.2825 -0.07751,-0.12058 -0.208428,-0.18776 -0.130914,-0.0672 -0.323839,-0.0672 -0.192925,0 -0.323839,0.0723 -0.130914,0.0723 -0.213596,0.19293 -0.08096,0.12057 -0.117133,0.28249 -0.03445,0.1602 -0.03445,0.33762 0,0.19637 0.03273,0.36174 0.03273,0.16536 0.110243,0.28594 0.07752,0.11886 0.206706,0.18604 0.130914,0.0655 0.327284,0.0655 0.194648,0 0.327284,-0.0723 0.132636,-0.0723 0.213596,-0.19465 0.08096,-0.12403 0.115411,-0.28594 0.03445,-0.16192 0.03445,-0.34279 z"
         style="fill:#d45500;stroke:#000000;stroke-width:0.09298798;stroke-miterlimit:4;stroke-dasharray:none;stroke-opacity:1"
         id="path4683-0"
         inkscape:connector-curvature="0" />
      <path
         d="m 15.254884,292.278 q 0,0.0138 -0.0069,0.0241 -0.0069,0.0103 -0.02412,0.0172 -0.01722,0.005 -0.04479,0.009 -0.02584,0.005 -0.0689,0.005 -0.03962,0 -0.0689,-0.005 -0.02756,-0.003 -0.04479,-0.009 -0.0155,-0.007 -0.02239,-0.0172 -0.0069,-0.0103 -0.0069,-0.0241 v -1.94131 h -0.0034 l -0.794095,1.94992 q -0.0052,0.0121 -0.0155,0.0207 -0.0086,0.009 -0.02756,0.0155 -0.01722,0.005 -0.04306,0.007 -0.02412,0.003 -0.05857,0.003 -0.03617,0 -0.06201,-0.003 -0.02584,-0.003 -0.04306,-0.009 -0.01723,-0.007 -0.02756,-0.0155 -0.0086,-0.009 -0.01206,-0.019 l -0.759643,-1.94992 h -0.0017 v 1.94131 q 0,0.0138 -0.0069,0.0241 -0.0069,0.0103 -0.02412,0.0172 -0.01722,0.005 -0.04479,0.009 -0.02756,0.005 -0.07062,0.005 -0.04134,0 -0.0689,-0.005 -0.02756,-0.003 -0.04479,-0.009 -0.0155,-0.007 -0.02239,-0.0172 -0.0052,-0.0103 -0.0052,-0.0241 v -2.04983 q 0,-0.0723 0.0379,-0.10336 0.0379,-0.031 0.08441,-0.031 h 0.179144 q 0.05512,0 0.09646,0.0103 0.04134,0.0103 0.07235,0.0327 0.03101,0.0224 0.05168,0.0568 0.02067,0.0344 0.03617,0.081 l 0.645955,1.61402 h 0.0086 l 0.671794,-1.60886 q 0.01895,-0.0517 0.04134,-0.0879 0.02239,-0.0362 0.04823,-0.0568 0.02756,-0.0224 0.06029,-0.031 0.03273,-0.0103 0.07579,-0.0103 h 0.187757 q 0.02584,0 0.04823,0.009 0.02412,0.007 0.03962,0.0241 0.01723,0.0155 0.02756,0.0413 0.01034,0.0241 0.01034,0.0603 z"
         style="fill:#d45500;stroke:#000000;stroke-width:0.09298798;stroke-miterlimit:4;stroke-dasharray:none;stroke-opacity:1"
         id="path4685-7"
         inkscape:connector-curvature="0" />
      <path
         d="m 17.046334,291.6975 q 0,0.15675 -0.05857,0.27905 -0.05684,0.1223 -0.160197,0.20843 -0.10163,0.0844 -0.241157,0.12747 -0.137803,0.0431 -0.298,0.0431 -0.111966,0 -0.208429,-0.0189 -0.09474,-0.0189 -0.170532,-0.0465 -0.07407,-0.0276 -0.125746,-0.0568 -0.04995,-0.0293 -0.07062,-0.0499 -0.01895,-0.0207 -0.02928,-0.0517 -0.0086,-0.0327 -0.0086,-0.0861 0,-0.0379 0.0034,-0.062 0.0034,-0.0258 0.01034,-0.0413 0.0069,-0.0155 0.01723,-0.0207 0.01033,-0.007 0.02412,-0.007 0.02412,0 0.06718,0.0293 0.04479,0.0293 0.113688,0.0637 0.0689,0.0344 0.165364,0.0655 0.09819,0.0293 0.225654,0.0293 0.09646,0 0.1757,-0.0258 0.08096,-0.0258 0.137804,-0.0723 0.05857,-0.0482 0.08957,-0.11713 0.03101,-0.0689 0.03101,-0.15675 0,-0.0947 -0.04306,-0.16192 -0.04306,-0.0672 -0.113688,-0.11713 -0.07062,-0.0517 -0.161919,-0.093 -0.08957,-0.0431 -0.184313,-0.0861 -0.09474,-0.0448 -0.184313,-0.0982 -0.08957,-0.0534 -0.160196,-0.12575 -0.07063,-0.0723 -0.115411,-0.16881 -0.04306,-0.0982 -0.04306,-0.23427 0,-0.13952 0.04995,-0.24804 0.05168,-0.11025 0.141249,-0.18432 0.0913,-0.0741 0.215318,-0.11196 0.125746,-0.0396 0.27044,-0.0396 0.07407,0 0.14814,0.0138 0.07579,0.0121 0.141248,0.0344 0.06718,0.0207 0.118856,0.0482 0.05168,0.0258 0.06718,0.0431 0.01722,0.0155 0.02239,0.0258 0.0052,0.009 0.0086,0.0241 0.0034,0.0138 0.0052,0.0344 0.0017,0.0207 0.0017,0.0534 0,0.031 -0.0034,0.0551 -0.0017,0.0241 -0.0069,0.0413 -0.0052,0.0155 -0.0155,0.0241 -0.0086,0.007 -0.02067,0.007 -0.01895,0 -0.06029,-0.0241 -0.03962,-0.0241 -0.09819,-0.0534 -0.05857,-0.031 -0.139526,-0.0551 -0.07924,-0.0258 -0.179145,-0.0258 -0.09302,0 -0.161919,0.0258 -0.0689,0.0241 -0.113689,0.0655 -0.04479,0.0413 -0.06718,0.0982 -0.02239,0.0568 -0.02239,0.12058 0,0.093 0.04306,0.1602 0.04306,0.0672 0.113688,0.11885 0.07235,0.0517 0.163642,0.0948 0.0913,0.0431 0.186035,0.0878 0.09474,0.0431 0.186035,0.0965 0.09129,0.0517 0.16192,0.12402 0.07235,0.0706 0.11541,0.16881 0.04479,0.0965 0.04479,0.2291 z"
         style="fill:#d45500;stroke:#000000;stroke-width:0.09298798;stroke-miterlimit:4;stroke-dasharray:none;stroke-opacity:1"
         id="path4687-2"
         inkscape:connector-curvature="0" />
      <path
         d="m 19.3356,291.18246 q 0,0.27044 -0.06374,0.48748 -0.06373,0.21704 -0.191202,0.37035 -0.125746,0.15158 -0.316949,0.23426 -0.191203,0.081 -0.44614,0.081 -0.251492,0 -0.435805,-0.0741 -0.18259,-0.0758 -0.303168,-0.21876 -0.118856,-0.14297 -0.177422,-0.35485 -0.05857,-0.21187 -0.05857,-0.48748 0,-0.26355 0.06373,-0.47886 0.06373,-0.21532 0.191203,-0.36518 0.127469,-0.15159 0.318671,-0.23255 0.191203,-0.0827 0.44614,-0.0827 0.246325,0 0.428915,0.0741 0.18259,0.0741 0.303168,0.21704 0.122301,0.14125 0.180867,0.3514 0.06029,0.20843 0.06029,0.47887 z m -0.311781,0.0207 q 0,-0.18948 -0.03445,-0.3514 -0.03273,-0.16364 -0.111966,-0.2825 -0.07752,-0.12058 -0.208428,-0.18776 -0.130914,-0.0672 -0.323839,-0.0672 -0.192926,0 -0.323839,0.0723 -0.130914,0.0723 -0.213596,0.19293 -0.08096,0.12057 -0.117133,0.28249 -0.03445,0.1602 -0.03445,0.33762 0,0.19637 0.03273,0.36174 0.03273,0.16536 0.110243,0.28594 0.07751,0.11886 0.206706,0.18604 0.130913,0.0655 0.327284,0.0655 0.194648,0 0.327284,-0.0723 0.132636,-0.0723 0.213596,-0.19465 0.08096,-0.12403 0.115411,-0.28594 0.03445,-0.16192 0.03445,-0.34279 z"
         style="fill:#d45500;stroke:#000000;stroke-width:0.09298798;stroke-miterlimit:4;stroke-dasharray:none;stroke-opacity:1"
         id="path4689-3"
         inkscape:connector-curvature="0" />
      <path
         d="m 20.975464,290.22128 q 0,0.0327 -0.0034,0.0568 -0.0034,0.0241 -0.01206,0.0396 -0.0086,0.0138 -0.02067,0.0207 -0.01034,0.007 -0.02239,0.007 H 20.10041 v 0.75792 h 0.771701 q 0.01206,0 0.02239,0.007 0.01206,0.005 0.02067,0.0189 0.0086,0.0138 0.01206,0.0379 0.0034,0.0224 0.0034,0.0586 0,0.0327 -0.0034,0.0568 -0.0034,0.0224 -0.01206,0.0379 -0.0086,0.0138 -0.02067,0.0224 -0.01034,0.007 -0.02239,0.007 H 20.10041 v 0.92846 q 0,0.0121 -0.0069,0.0241 -0.0069,0.0103 -0.02412,0.0172 -0.01723,0.005 -0.04479,0.009 -0.02756,0.005 -0.07235,0.005 -0.04134,0 -0.07062,-0.005 -0.02928,-0.003 -0.04651,-0.009 -0.01722,-0.007 -0.02411,-0.0172 -0.0069,-0.0121 -0.0069,-0.0241 v -2.06361 q 0,-0.0672 0.03445,-0.093 0.03617,-0.0276 0.07579,-0.0276 h 1.002523 q 0.01206,0 0.02239,0.007 0.01206,0.007 0.02067,0.0224 0.0086,0.0155 0.01206,0.0413 0.0034,0.0241 0.0034,0.0568 z"
         style="fill:#d45500;stroke:#000000;stroke-width:0.09298798;stroke-miterlimit:4;stroke-dasharray:none;stroke-opacity:1"
         id="path4691-2"
         inkscape:connector-curvature="0" />
      <path
         d="m 22.820314,290.22128 q 0,0.0327 -0.0034,0.0568 -0.0034,0.0241 -0.01206,0.0396 -0.0069,0.0138 -0.01895,0.0207 -0.01034,0.007 -0.02412,0.007 H 22.13474 v 1.9327 q 0,0.0138 -0.0069,0.0241 -0.0069,0.0103 -0.02412,0.0172 -0.01723,0.005 -0.04651,0.009 -0.02756,0.005 -0.07062,0.005 -0.04134,0 -0.07062,-0.005 -0.02928,-0.003 -0.04651,-0.009 -0.01722,-0.007 -0.02412,-0.0172 -0.0069,-0.0103 -0.0069,-0.0241 v -1.9327 h -0.627007 q -0.01378,0 -0.02584,-0.007 -0.01034,-0.007 -0.01723,-0.0207 -0.0069,-0.0155 -0.01206,-0.0396 -0.0034,-0.0241 -0.0034,-0.0568 0,-0.0327 0.0034,-0.0568 0.0052,-0.0258 0.01206,-0.0413 0.0069,-0.0155 0.01723,-0.0224 0.01206,-0.007 0.02584,-0.007 h 1.550293 q 0.01378,0 0.02412,0.007 0.01206,0.007 0.01895,0.0224 0.0086,0.0155 0.01206,0.0413 0.0034,0.0241 0.0034,0.0568 z"
         style="fill:#d45500;stroke:#000000;stroke-width:0.09298798;stroke-miterlimit:4;stroke-dasharray:none;stroke-opacity:1"
         id="path4693-8"
         inkscape:connector-curvature="0" />
      <path
         d="m 25.280111,292.25733 q -0.0069,0.0241 -0.02067,0.0396 -0.01378,0.0138 -0.0379,0.0224 -0.02412,0.007 -0.06029,0.0103 -0.03445,0.003 -0.08613,0.003 -0.0534,0 -0.09129,-0.003 -0.03617,-0.003 -0.06029,-0.0103 -0.02412,-0.009 -0.03617,-0.0224 -0.01206,-0.0155 -0.01895,-0.0396 L 24.40161,290.5744 h -0.0034 l -0.430637,1.68293 q -0.0052,0.0241 -0.01722,0.0396 -0.01206,0.0138 -0.03445,0.0224 -0.02239,0.007 -0.05857,0.0103 -0.03445,0.003 -0.08957,0.003 -0.05684,0 -0.09474,-0.003 -0.0379,-0.003 -0.06201,-0.0103 -0.02412,-0.009 -0.0379,-0.0224 -0.01206,-0.0155 -0.01723,-0.0396 l -0.589111,-2.05845 q -0.01033,-0.0396 -0.01206,-0.062 0,-0.0224 0.01378,-0.0344 0.0155,-0.0121 0.04823,-0.0155 0.03273,-0.003 0.08785,-0.003 0.0534,0 0.08441,0.003 0.03101,0.002 0.04651,0.009 0.01723,0.007 0.02239,0.019 0.0069,0.0121 0.01034,0.031 l 0.501261,1.86725 h 0.0017 l 0.475423,-1.8638 q 0.0052,-0.019 0.01206,-0.031 0.0086,-0.0138 0.02584,-0.0207 0.01722,-0.007 0.04823,-0.0103 0.03273,-0.003 0.08441,-0.003 0.04823,0 0.07579,0.003 0.02928,0.003 0.04651,0.0103 0.01722,0.007 0.02412,0.0207 0.0086,0.0121 0.01378,0.031 l 0.511597,1.8638 h 0.0034 l 0.490926,-1.86552 q 0.0052,-0.0172 0.01034,-0.0293 0.0052,-0.0138 0.02067,-0.0207 0.01722,-0.007 0.04651,-0.0103 0.03101,-0.003 0.08096,-0.003 0.05168,0 0.08096,0.005 0.03101,0.003 0.04479,0.0155 0.01378,0.0121 0.01206,0.0345 0,0.0224 -0.0086,0.062 z"
         style="fill:#d45500;stroke:#000000;stroke-width:0.09298798;stroke-miterlimit:4;stroke-dasharray:none;stroke-opacity:1"
         id="path4695-4"
         inkscape:connector-curvature="0" />
      <path
         d="m 27.798475,292.21771 q 0.01378,0.0379 0.01378,0.062 0.0017,0.0224 -0.01206,0.0344 -0.01378,0.0121 -0.04651,0.0155 -0.03101,0.003 -0.08441,0.003 -0.0534,0 -0.08613,-0.003 -0.03101,-0.002 -0.04823,-0.007 -0.0155,-0.007 -0.02412,-0.0172 -0.0069,-0.0103 -0.01378,-0.0258 l -0.191203,-0.5426 h -0.926731 l -0.18259,0.53571 q -0.0052,0.0155 -0.01378,0.0276 -0.0086,0.0103 -0.02584,0.019 -0.0155,0.007 -0.04651,0.0103 -0.02928,0.003 -0.07751,0.003 -0.04995,0 -0.08268,-0.005 -0.03101,-0.003 -0.04479,-0.0155 -0.01206,-0.0121 -0.01206,-0.0344 0.0017,-0.0241 0.0155,-0.062 l 0.747585,-2.07051 q 0.0069,-0.0189 0.01723,-0.031 0.01206,-0.0121 0.03273,-0.019 0.02239,-0.007 0.05512,-0.009 0.03445,-0.003 0.08613,-0.003 0.05512,0 0.09129,0.003 0.03617,0.002 0.05857,0.009 0.02239,0.007 0.03445,0.0207 0.01206,0.0121 0.01895,0.031 z m -0.959459,-1.82762 h -0.0017 l -0.384128,1.11104 h 0.775146 z"
         style="fill:#d45500;stroke:#000000;stroke-width:0.09298798;stroke-miterlimit:4;stroke-dasharray:none;stroke-opacity:1"
         id="path4697-4"
         inkscape:connector-curvature="0" />
      <path
         d="m 29.655383,292.278 q 0,0.0138 -0.0052,0.0241 -0.0052,0.0103 -0.02239,0.0172 -0.01722,0.007 -0.04823,0.0103 -0.03101,0.003 -0.08268,0.003 -0.04479,0 -0.07407,-0.003 -0.02756,-0.003 -0.04479,-0.0103 -0.01723,-0.009 -0.02756,-0.0224 -0.0086,-0.0138 -0.0155,-0.0344 l -0.204983,-0.52538 q -0.03617,-0.0896 -0.07579,-0.16364 -0.0379,-0.0758 -0.0913,-0.12919 -0.0534,-0.0551 -0.125746,-0.0844 -0.07235,-0.031 -0.173978,-0.031 h -0.198093 v 0.94913 q 0,0.0138 -0.0086,0.0241 -0.0069,0.0103 -0.02412,0.0172 -0.0155,0.005 -0.04479,0.009 -0.02756,0.005 -0.07062,0.005 -0.04306,0 -0.07235,-0.005 -0.02756,-0.003 -0.04479,-0.009 -0.01723,-0.007 -0.02412,-0.0172 -0.0069,-0.0103 -0.0069,-0.0241 v -2.06361 q 0,-0.0672 0.03445,-0.093 0.03617,-0.0276 0.07579,-0.0276 h 0.473701 q 0.08441,0 0.139526,0.005 0.05684,0.003 0.10163,0.009 0.129192,0.0224 0.227377,0.0706 0.09991,0.0482 0.167087,0.1223 0.06718,0.0741 0.09991,0.17054 0.03445,0.0947 0.03445,0.21015 0,0.11196 -0.03101,0.20153 -0.02928,0.0879 -0.08613,0.15676 -0.05684,0.0672 -0.136081,0.11713 -0.07924,0.05 -0.177422,0.0844 0.05512,0.0241 0.09991,0.062 0.04479,0.0362 0.08268,0.0879 0.03962,0.0517 0.07407,0.11885 0.03445,0.0672 0.0689,0.15159 l 0.199816,0.49092 q 0.02411,0.062 0.03101,0.0879 0.0069,0.0241 0.0069,0.0379 z m -0.44614,-1.5658 q 0,-0.13091 -0.05857,-0.22048 -0.05857,-0.0913 -0.19637,-0.13092 -0.04306,-0.0121 -0.09818,-0.0172 -0.0534,-0.005 -0.141249,-0.005 h -0.24977 v 0.75103 h 0.289388 q 0.117134,0 0.201538,-0.0276 0.08613,-0.0293 0.142972,-0.0792 0.05684,-0.0517 0.08268,-0.12058 0.02756,-0.0689 0.02756,-0.14986 z"
         style="fill:#d45500;stroke:#000000;stroke-width:0.09298798;stroke-miterlimit:4;stroke-dasharray:none;stroke-opacity:1"
         id="path4699-4"
         inkscape:connector-curvature="0" />
      <path
         d="m 31.32453,292.20048 q 0,0.031 -0.0034,0.0551 -0.0034,0.0224 -0.01206,0.0379 -0.0086,0.0155 -0.02067,0.0224 -0.01034,0.007 -0.02412,0.007 h -1.069702 q -0.03962,0 -0.07579,-0.0258 -0.03445,-0.0276 -0.03445,-0.0947 v -1.98782 q 0,-0.0672 0.03445,-0.093 0.03617,-0.0276 0.07579,-0.0276 h 1.057644 q 0.01378,0 0.02412,0.007 0.01206,0.007 0.01895,0.0224 0.0069,0.0155 0.01034,0.0396 0.0052,0.0224 0.0052,0.0568 0,0.031 -0.0052,0.0551 -0.0034,0.0224 -0.01034,0.0379 -0.0069,0.0138 -0.01895,0.0207 -0.01034,0.007 -0.02412,0.007 h -0.871609 v 0.69936 h 0.747586 q 0.01378,0 0.02412,0.009 0.01206,0.007 0.01895,0.0207 0.0086,0.0138 0.01206,0.0379 0.0034,0.0241 0.0034,0.0568 0,0.031 -0.0034,0.0534 -0.0034,0.0224 -0.01206,0.0362 -0.0069,0.0138 -0.01895,0.0207 -0.01034,0.005 -0.02412,0.005 h -0.747586 v 0.79754 h 0.883667 q 0.01378,0 0.02412,0.007 0.01206,0.007 0.02067,0.0224 0.0086,0.0138 0.01206,0.0379 0.0034,0.0224 0.0034,0.0568 z"
         style="fill:#d45500;stroke:#000000;stroke-width:0.09298798;stroke-miterlimit:4;stroke-dasharray:none;stroke-opacity:1"
         id="path4701-9"
         inkscape:connector-curvature="0" />
      <path
         d="m 32.141018,292.13503 q 0,0.1223 -0.04134,0.16364 -0.03962,0.0396 -0.146417,0.0396 -0.103353,0 -0.142971,-0.0396 -0.03962,-0.0396 -0.03962,-0.15848 0,-0.1223 0.03962,-0.16192 0.04134,-0.0413 0.148139,-0.0413 0.103353,0 0.142971,0.0396 0.03962,0.0396 0.03962,0.15848 z"
         style="fill:#d45500;stroke:#000000;stroke-width:0.09298798;stroke-miterlimit:4;stroke-dasharray:none;stroke-opacity:1"
         id="path4703-6"
         inkscape:connector-curvature="0" />
      <path
         d="m 34.380329,292.20048 q 0,0.0344 -0.01206,0.0586 -0.01033,0.0241 -0.02928,0.0396 -0.01723,0.0155 -0.03962,0.0224 -0.02239,0.007 -0.04479,0.007 h -0.09474 q -0.04479,0 -0.07924,-0.009 -0.03273,-0.0103 -0.06373,-0.0344 -0.02928,-0.0258 -0.06029,-0.0689 -0.02928,-0.0431 -0.06546,-0.11025 l -0.7028,-1.26779 q -0.05512,-0.0982 -0.111965,-0.20498 -0.05512,-0.10853 -0.103353,-0.21016 h -0.0034 q 0.0034,0.12403 0.0052,0.25322 0.0017,0.12919 0.0017,0.25666 v 1.34531 q 0,0.0121 -0.0069,0.0241 -0.0069,0.0103 -0.02412,0.0172 -0.0155,0.005 -0.04306,0.009 -0.02584,0.005 -0.06718,0.005 -0.04134,0 -0.0689,-0.005 -0.02584,-0.003 -0.04134,-0.009 -0.0155,-0.007 -0.02239,-0.0172 -0.0069,-0.0121 -0.0069,-0.0241 v -2.05672 q 0,-0.0689 0.0379,-0.0982 0.0379,-0.0293 0.08268,-0.0293 h 0.141249 q 0.04995,0 0.08268,0.009 0.03445,0.009 0.06029,0.0293 0.02756,0.0189 0.05168,0.0551 0.02584,0.0344 0.05512,0.0879 l 0.54088,0.9784 q 0.04995,0.0896 0.09646,0.1757 0.04651,0.0844 0.08957,0.16709 0.04306,0.0827 0.0844,0.16364 0.04306,0.0792 0.0844,0.1602 h 0.0017 q -0.0034,-0.13608 -0.0052,-0.2825 0,-0.14814 0,-0.28422 v -1.20923 q 0,-0.0121 0.0069,-0.0224 0.0069,-0.0103 0.02239,-0.0172 0.01723,-0.009 0.04306,-0.012 0.02756,-0.003 0.07062,-0.003 0.0379,0 0.06546,0.003 0.02756,0.003 0.04306,0.012 0.0155,0.007 0.02239,0.0172 0.0069,0.0103 0.0069,0.0224 z"
         style="fill:#d45500;stroke:#000000;stroke-width:0.09298798;stroke-miterlimit:4;stroke-dasharray:none;stroke-opacity:1"
         id="path4705-6"
         inkscape:connector-curvature="0" />
      <path
         d="m 36.216567,292.20048 q 0,0.031 -0.0034,0.0551 -0.0034,0.0224 -0.01206,0.0379 -0.0086,0.0155 -0.02067,0.0224 -0.01034,0.007 -0.02412,0.007 h -1.069702 q -0.03962,0 -0.07579,-0.0258 -0.03445,-0.0276 -0.03445,-0.0947 v -1.98782 q 0,-0.0672 0.03445,-0.093 0.03617,-0.0276 0.07579,-0.0276 h 1.057644 q 0.01378,0 0.02412,0.007 0.01206,0.007 0.01895,0.0224 0.0069,0.0155 0.01034,0.0396 0.0052,0.0224 0.0052,0.0568 0,0.031 -0.0052,0.0551 -0.0034,0.0224 -0.01034,0.0379 -0.0069,0.0138 -0.01895,0.0207 -0.01034,0.007 -0.02412,0.007 H 35.27265 v 0.69936 h 0.747585 q 0.01378,0 0.02412,0.009 0.01206,0.007 0.01895,0.0207 0.0086,0.0138 0.01206,0.0379 0.0034,0.0241 0.0034,0.0568 0,0.031 -0.0034,0.0534 -0.0034,0.0224 -0.01206,0.0362 -0.0069,0.0138 -0.01895,0.0207 -0.01033,0.005 -0.02412,0.005 H 35.27265 v 0.79754 h 0.883667 q 0.01378,0 0.02412,0.007 0.01206,0.007 0.02067,0.0224 0.0086,0.0138 0.01206,0.0379 0.0034,0.0224 0.0034,0.0568 z"
         style="fill:#d45500;stroke:#000000;stroke-width:0.09298798;stroke-miterlimit:4;stroke-dasharray:none;stroke-opacity:1"
         id="path4707-9"
         inkscape:connector-curvature="0" />
      <path
         d="m 38.095864,290.22128 q 0,0.0327 -0.0034,0.0568 -0.0034,0.0241 -0.01206,0.0396 -0.0069,0.0138 -0.01895,0.0207 -0.01034,0.007 -0.02412,0.007 H 37.41029 v 1.9327 q 0,0.0138 -0.0069,0.0241 -0.0069,0.0103 -0.02411,0.0172 -0.01723,0.005 -0.04651,0.009 -0.02756,0.005 -0.07062,0.005 -0.04134,0 -0.07062,-0.005 -0.02928,-0.003 -0.04651,-0.009 -0.01723,-0.007 -0.02412,-0.0172 -0.0069,-0.0103 -0.0069,-0.0241 v -1.9327 h -0.627007 q -0.01378,0 -0.02584,-0.007 -0.01034,-0.007 -0.01723,-0.0207 -0.0069,-0.0155 -0.01206,-0.0396 -0.0034,-0.0241 -0.0034,-0.0568 0,-0.0327 0.0034,-0.0568 0.0052,-0.0258 0.01206,-0.0413 0.0069,-0.0155 0.01723,-0.0224 0.01206,-0.007 0.02584,-0.007 h 1.550293 q 0.01378,0 0.02412,0.007 0.01206,0.007 0.01895,0.0224 0.0086,0.0155 0.01206,0.0413 0.0034,0.0241 0.0034,0.0568 z"
         style="fill:#d45500;stroke:#000000;stroke-width:0.09298798;stroke-miterlimit:4;stroke-dasharray:none;stroke-opacity:1"
         id="path4709-0"
         inkscape:connector-curvature="0" />
    </g>
  </g>
</svg>
