<?xml version="1.0" encoding="UTF-8" standalone="no"?>
<!-- Created with Inkscape (http://www.inkscape.org/) -->

<svg
   xmlns:dc="http://purl.org/dc/elements/1.1/"
   xmlns:cc="http://creativecommons.org/ns#"
   xmlns:rdf="http://www.w3.org/1999/02/22-rdf-syntax-ns#"
   xmlns:svg="http://www.w3.org/2000/svg"
   xmlns="http://www.w3.org/2000/svg"
   xmlns:sodipodi="http://sodipodi.sourceforge.net/DTD/sodipodi-0.dtd"
   xmlns:inkscape="http://www.inkscape.org/namespaces/inkscape"
   version="1.1"
   id="svg92"
   width="64"
   height="64"
   viewBox="0 0 64 64"
   sodipodi:docname="database.svg"
   inkscape:version="0.92.2 (5c3e80d, 2017-08-06)">
  <metadata
     id="metadata98">
    <rdf:RDF>
      <cc:Work
         rdf:about="">
        <dc:format>image/svg+xml</dc:format>
        <dc:type
           rdf:resource="http://purl.org/dc/dcmitype/StillImage" />
        <dc:title></dc:title>
      </cc:Work>
    </rdf:RDF>
  </metadata>
  <defs
     id="defs96" />
  <sodipodi:namedview
     pagecolor="#ffffff"
     bordercolor="#666666"
     borderopacity="1"
     objecttolerance="10"
     gridtolerance="10"
     guidetolerance="10"
     inkscape:pageopacity="0"
     inkscape:pageshadow="2"
     inkscape:window-width="1920"
     inkscape:window-height="1017"
     id="namedview94"
     showgrid="false"
     inkscape:zoom="3.5757576"
     inkscape:cx="78.292376"
     inkscape:cy="32.954273"
     inkscape:window-x="-8"
     inkscape:window-y="-8"
     inkscape:window-maximized="1"
     inkscape:current-layer="svg92" />
  <path
     style="fill:#d59541;fill-opacity:1;stroke-width:1.18053436"
     d="M 14.933333,63.72752 C 13.368889,63.46575 9.3688889,62.573315 6.0444444,61.74433 L 0,60.237087 V 54.333785 C 0,49.097796 0.281344,48.509732 2.4888889,49.131555 10.327381,51.339508 16.665557,51.94342 32,51.94342 c 15.334457,0 21.672633,-0.603912 29.511111,-2.811865 C 63.717959,48.50993 64,49.096595 64,54.308432 v 5.877951 l -6.044444,1.729991 c -4.368,1.250175 -10.777913,1.807248 -23.111112,2.008542 -9.386666,0.153202 -18.346666,0.06437 -19.911111,-0.197396 z m 0,-14.698772 C 13.368889,48.766977 9.3688889,47.874542 6.0444444,47.045558 L 0,45.538315 V 39.635012 C 0,34.399023 0.281344,33.81096 2.4888889,34.432783 10.327381,36.640736 16.665557,37.244648 32,37.244648 c 15.334457,0 21.672633,-0.603912 29.511111,-2.811865 C 63.717959,33.811158 64,34.397823 64,39.60966 v 5.877951 l -6.044444,1.72999 c -4.368,1.250176 -10.777913,1.807249 -23.111112,2.008542 -9.386666,0.153203 -18.346666,0.06437 -19.911111,-0.197395 z m 0,-14.698773 C 13.368889,34.068205 9.3688889,33.17577 6.0444444,32.346786 L 0,30.839542 V 24.93624 C 0,19.700251 0.281344,19.112188 2.4888889,19.73401 10.327381,21.941964 16.665557,22.545876 32,22.545876 c 15.334457,0 21.672633,-0.603912 29.511111,-2.811866 C 63.717959,19.112386 64,19.69905 64,24.910888 v 5.87795 l -6.044444,1.729991 c -4.368,1.250176 -10.777913,1.807248 -23.111112,2.008542 -9.386666,0.153203 -18.346666,0.06437 -19.911111,-0.197396 z m 0,-14.698772 C 13.368889,19.369433 9.3688889,18.476998 6.0444444,17.648013 L 0,16.14077 V 9.9333962 3.7260223 L 6.7555556,1.9301187 c 9.6805684,-2.57349122 40.8083344,-2.57349122 50.4888884,0 L 64,3.7260223 v 6.1820219 6.1820218 l -6.044444,1.729991 c -4.368,1.250175 -10.777913,1.807248 -23.111112,2.008542 -9.386666,0.153202 -18.346666,0.06437 -19.911111,-0.197396 z M 43.852587,4.6652103 C 45.36586,4.004274 45.2704,3.7099653 43.380708,3.2103384 c -3.071104,-0.811989 -19.690297,-0.811989 -22.761401,0 C 16.142948,4.3938693 21.624846,5.4937545 32,5.4937545 c 5.475556,0 10.809216,-0.3728449 11.852587,-0.8285442 z"
     id="path102"
     inkscape:connector-curvature="0" />
</svg>
