<?xml version="1.0" encoding="UTF-8" standalone="no"?>
<!-- Created with Inkscape (http://www.inkscape.org/) -->

<svg
   xmlns:dc="http://purl.org/dc/elements/1.1/"
   xmlns:cc="http://creativecommons.org/ns#"
   xmlns:rdf="http://www.w3.org/1999/02/22-rdf-syntax-ns#"
   xmlns:svg="http://www.w3.org/2000/svg"
   xmlns="http://www.w3.org/2000/svg"
   xmlns:sodipodi="http://sodipodi.sourceforge.net/DTD/sodipodi-0.dtd"
   xmlns:inkscape="http://www.inkscape.org/namespaces/inkscape"
   version="1.1"
   id="svg5153"
   width="64"
   height="64"
   viewBox="0 0 64 64"
   sodipodi:docname="laptop.svg"
   inkscape:version="0.92.2 (5c3e80d, 2017-08-06)">
  <metadata
     id="metadata5159">
    <rdf:RDF>
      <cc:Work
         rdf:about="">
        <dc:format>image/svg+xml</dc:format>
        <dc:type
           rdf:resource="http://purl.org/dc/dcmitype/StillImage" />
        <dc:title></dc:title>
      </cc:Work>
    </rdf:RDF>
  </metadata>
  <defs
     id="defs5157" />
  <sodipodi:namedview
     pagecolor="#ffffff"
     bordercolor="#666666"
     borderopacity="1"
     objecttolerance="10"
     gridtolerance="10"
     guidetolerance="10"
     inkscape:pageopacity="0"
     inkscape:pageshadow="2"
     inkscape:window-width="1920"
     inkscape:window-height="1017"
     id="namedview5155"
     showgrid="false"
     inkscape:zoom="3.4202899"
     inkscape:cx="36"
     inkscape:cy="34.5"
     inkscape:window-x="-8"
     inkscape:window-y="-8"
     inkscape:window-maximized="1"
     inkscape:current-layer="svg5153" />
  <path
     style="fill:#d59541;fill-opacity:1;stroke-width:0.91380966"
     d="M 0.65233251,63.082928 C -0.75036112,61.608493 0.27938549,56.867371 3.8960972,48.148023 L 7.7452869,38.868219 H 32.133738 56.522189 l 3.887712,9.368869 c 2.421753,5.836116 3.78916,10.428694 3.626364,12.179529 l -0.261347,2.81066 -31.25858,0.24602 C 15.324125,63.608608 0.98532253,63.432945 0.65233251,63.082928 Z M 41.640602,54.636882 c -0.291883,-1.890635 -1.046262,-3.781374 -1.676403,-4.201644 -1.489569,-0.993466 -14.171354,-0.993466 -15.660922,0 -0.630141,0.42027 -1.38452,2.311009 -1.676395,4.201644 l -0.530689,3.437517 H 32.133738 42.171292 Z M 8.2721972,17.554044 8.5142656,-0.48102712 H 32.133738 55.75321 L 55.995288,17.554044 56.237356,35.589116 H 32.133738 8.0301288 Z M 50.851056,17.319822 V 4.6718504 H 32.133738 13.41642 V 17.319822 29.967795 h 18.717318 18.717318 z"
     id="path5163"
     inkscape:connector-curvature="0" />
</svg>
