<?xml version="1.0" encoding="UTF-8" standalone="no"?>
<!-- Created with Inkscape (http://www.inkscape.org/) -->

<svg
   xmlns:dc="http://purl.org/dc/elements/1.1/"
   xmlns:cc="http://creativecommons.org/ns#"
   xmlns:rdf="http://www.w3.org/1999/02/22-rdf-syntax-ns#"
   xmlns:svg="http://www.w3.org/2000/svg"
   xmlns="http://www.w3.org/2000/svg"
   xmlns:sodipodi="http://sodipodi.sourceforge.net/DTD/sodipodi-0.dtd"
   xmlns:inkscape="http://www.inkscape.org/namespaces/inkscape"
   version="1.1"
   id="svg5708"
   width="40"
   height="64"
   viewBox="0 0 40 64"
   sodipodi:docname="mobile.svg"
   inkscape:version="0.92.2 (5c3e80d, 2017-08-06)">
  <metadata
     id="metadata5714">
    <rdf:RDF>
      <cc:Work
         rdf:about="">
        <dc:format>image/svg+xml</dc:format>
        <dc:type
           rdf:resource="http://purl.org/dc/dcmitype/StillImage" />
        <dc:title></dc:title>
      </cc:Work>
    </rdf:RDF>
  </metadata>
  <defs
     id="defs5712" />
  <sodipodi:namedview
     pagecolor="#ffffff"
     bordercolor="#666666"
     borderopacity="1"
     objecttolerance="10"
     gridtolerance="10"
     guidetolerance="10"
     inkscape:pageopacity="0"
     inkscape:pageshadow="2"
     inkscape:window-width="1920"
     inkscape:window-height="1017"
     id="namedview5710"
     showgrid="false"
     inkscape:zoom="3.2777778"
     inkscape:cx="21"
     inkscape:cy="36"
     inkscape:window-x="-8"
     inkscape:window-y="-8"
     inkscape:window-maximized="1"
     inkscape:current-layer="svg5708" />
  <path
     style="fill:#d59541;fill-opacity:1;stroke-width:0.91899174"
     d="M 2.0683222,61.945173 C 0.03506487,59.925182 0,59.416052 0,31.913892 V 3.9374372 L 2.2016282,2.0070273 C 4.2785734,0.18594085 5.2927419,0.07661749 20.109614,0.07661749 c 21.834225,0 19.843003,-3.21980209 19.843003,32.08610851 V 60.13918 l -2.201628,1.93041 C 35.674044,63.890677 34.659876,64 19.843003,64 4.6552726,64 4.068348,63.932149 2.0683222,61.945173 Z M 22.618407,60.84227 c 2.861559,-1.870669 2.734662,-5.300127 -0.263966,-7.133896 -2.202979,-1.347201 -2.553285,-1.347201 -4.756264,0 -2.998629,1.833769 -3.125525,5.263227 -0.263967,7.133896 1.162791,0.760144 2.351736,1.38208 2.642099,1.38208 0.290363,0 1.479307,-0.621936 2.642098,-1.38208 z M 34.245101,30.706572 V 10.730515 H 19.976309 5.7075168 V 30.706572 50.682629 H 19.976309 34.245101 Z"
     id="path5718"
     inkscape:connector-curvature="0" />
</svg>
