<?xml version="1.0" encoding="UTF-8" standalone="no"?>
<!-- Created with Inkscape (http://www.inkscape.org/) -->

<svg
   xmlns:dc="http://purl.org/dc/elements/1.1/"
   xmlns:cc="http://creativecommons.org/ns#"
   xmlns:rdf="http://www.w3.org/1999/02/22-rdf-syntax-ns#"
   xmlns:svg="http://www.w3.org/2000/svg"
   xmlns="http://www.w3.org/2000/svg"
   xmlns:sodipodi="http://sodipodi.sourceforge.net/DTD/sodipodi-0.dtd"
   xmlns:inkscape="http://www.inkscape.org/namespaces/inkscape"
   version="1.1"
   id="svg6263"
   width="64"
   height="64"
   viewBox="0 0 64 64"
   sodipodi:docname="projects.svg"
   inkscape:version="0.92.2 (5c3e80d, 2017-08-06)">
  <metadata
     id="metadata6269">
    <rdf:RDF>
      <cc:Work
         rdf:about="">
        <dc:format>image/svg+xml</dc:format>
        <dc:type
           rdf:resource="http://purl.org/dc/dcmitype/StillImage" />
        <dc:title></dc:title>
      </cc:Work>
    </rdf:RDF>
  </metadata>
  <defs
     id="defs6267" />
  <sodipodi:namedview
     pagecolor="#ffffff"
     bordercolor="#666666"
     borderopacity="1"
     objecttolerance="10"
     gridtolerance="10"
     guidetolerance="10"
     inkscape:pageopacity="0"
     inkscape:pageshadow="2"
     inkscape:window-width="1920"
     inkscape:window-height="1017"
     id="namedview6265"
     showgrid="false"
     inkscape:zoom="3.4202899"
     inkscape:cx="36"
     inkscape:cy="34.5"
     inkscape:window-x="-8"
     inkscape:window-y="-8"
     inkscape:window-maximized="1"
     inkscape:current-layer="svg6263" />
  <path
     style="fill:#d59541;fill-opacity:1;stroke-width:0.91117632"
     d="m 5.6630023,62.608696 c 0,-0.927537 -0.8951049,-1.391305 -2.6853147,-1.391305 H 0.29237288 v -5.565217 c 0,-4.328503 0.29836531,-5.565217 1.34265732,-5.565217 0.99456,0 1.3426574,1.082125 1.3426574,4.173913 0,3.091787 0.3480973,4.173913 1.3426573,4.173913 0.99456,0 1.3426574,-1.082126 1.3426574,-4.173913 0,-3.091788 0.3480973,-4.173913 1.3426573,-4.173913 1.0741259,0 1.3426573,1.391304 1.3426573,6.956521 C 8.3483169,62.608696 8.0797855,64 7.0056596,64 6.2671981,64 5.6630023,63.373913 5.6630023,62.608696 Z M 16.762688,59.919884 C 16.492125,59.189265 16.401495,57.408402 16.561289,55.96241 l 0.290525,-2.629077 h 23.720279 23.72028 v 3.710145 3.710145 l -23.518881,0.24733 C 21.032195,61.208557 17.175609,61.034923 16.762688,59.919884 Z M 0.29237288,45.913043 c 0,-0.927536 0.89510492,-1.391304 2.68531472,-1.391304 1.7902098,0 2.6853147,-0.463768 2.6853147,-1.391304 0,-0.927536 -0.8951049,-1.391305 -2.6853147,-1.391305 -1.7902098,0 -2.68531472,-0.463768 -2.68531472,-1.391304 0,-0.927536 0.89510492,-1.391304 2.68531472,-1.391304 1.7902098,0 2.6853147,-0.463768 2.6853147,-1.391305 0,-0.927536 -0.8951049,-1.391304 -2.6853147,-1.391304 -1.7902098,0 -2.68531472,-0.463768 -2.68531472,-1.391304 0,-1.030596 1.04429202,-1.391305 4.02797202,-1.391305 h 4.027972 v 6.956522 6.956522 h -4.027972 c -2.98368,0 -4.02797202,-0.360709 -4.02797202,-1.391305 z M 16.762688,43.224232 c -0.270563,-0.73062 -0.361193,-2.511483 -0.201399,-3.957474 l 0.290525,-2.629077 h 23.720279 23.72028 v 3.710145 3.710145 L 40.773492,44.3053 C 21.032195,44.512904 17.175609,44.33927 16.762688,43.224232 Z M 0.29237288,26.434783 c 0,-4.019324 0.0994551,-4.173913 2.68531472,-4.173913 1.7902098,0 2.6853147,-0.463769 2.6853147,-1.391305 0,-0.927536 -0.8951049,-1.391304 -2.6853147,-1.391304 -1.7902098,0 -2.68531472,-0.463768 -2.68531472,-1.391305 0,-1.030595 1.04429202,-1.391304 4.02797202,-1.391304 h 4.027972 v 4.173913 c 0,4.019324 -0.099455,4.173913 -2.6853146,4.173913 -1.7902098,0 -2.6853147,0.463768 -2.6853147,1.391305 0,0.927536 0.8951049,1.391304 2.6853147,1.391304 1.7902097,0 2.6853146,0.463768 2.6853146,1.391304 0,1.030596 -1.044292,1.391305 -4.027972,1.391305 H 0.29237288 Z m 16.47031512,0.0938 C 16.492125,25.797963 16.401495,24.0171 16.561289,22.571108 l 0.290525,-2.629076 h 23.720279 23.72028 v 3.710145 3.710145 L 40.773492,27.609651 C 21.032195,27.817255 17.175609,27.643621 16.762688,26.528583 Z M 2.9776876,8.3478261 c 0,-4.3285027 -0.2983653,-5.5652174 -1.3426574,-5.5652174 -0.73846152,0 -1.34265732,-0.626087 -1.34265732,-1.3913044 C 0.29237288,0.46376812 1.1874778,0 2.9776876,0 h 2.6853147 v 6.9565217 c 0,5.5652173 -0.2685315,6.9565213 -1.3426574,6.9565213 -1.044292,0 -1.3426573,-1.236714 -1.3426573,-5.5652169 z M 16.762688,9.8329275 C 16.492125,9.1023082 16.401495,7.3214451 16.561289,5.8754532 l 0.290525,-2.6290764 h 23.720279 23.72028 V 6.9565217 10.666667 L 40.773492,10.913996 C 21.032195,11.1216 17.175609,10.947966 16.762688,9.8329275 Z"
     id="path6273"
     inkscape:connector-curvature="0" />
</svg>
