<?xml version="1.0" encoding="UTF-8" standalone="no"?>
<!-- Created with Inkscape (http://www.inkscape.org/) -->

<svg
   xmlns:dc="http://purl.org/dc/elements/1.1/"
   xmlns:cc="http://creativecommons.org/ns#"
   xmlns:rdf="http://www.w3.org/1999/02/22-rdf-syntax-ns#"
   xmlns:svg="http://www.w3.org/2000/svg"
   xmlns="http://www.w3.org/2000/svg"
   xmlns:sodipodi="http://sodipodi.sourceforge.net/DTD/sodipodi-0.dtd"
   xmlns:inkscape="http://www.inkscape.org/namespaces/inkscape"
   version="1.1"
   id="svg6263"
   width="72"
   height="69"
   viewBox="0 0 72 69"
   sodipodi:docname="projects.svg"
   inkscape:version="0.92.2 (5c3e80d, 2017-08-06)">
  <metadata
     id="metadata6269">
    <rdf:RDF>
      <cc:Work
         rdf:about="">
        <dc:format>image/svg+xml</dc:format>
        <dc:type
           rdf:resource="http://purl.org/dc/dcmitype/StillImage" />
        <dc:title></dc:title>
      </cc:Work>
    </rdf:RDF>
  </metadata>
  <defs
     id="defs6267" />
  <sodipodi:namedview
     pagecolor="#ffffff"
     bordercolor="#666666"
     borderopacity="1"
     objecttolerance="10"
     gridtolerance="10"
     guidetolerance="10"
     inkscape:pageopacity="0"
     inkscape:pageshadow="2"
     inkscape:window-width="1920"
     inkscape:window-height="1017"
     id="namedview6265"
     showgrid="false"
     inkscape:zoom="3.4202899"
     inkscape:cx="36"
     inkscape:cy="34.5"
     inkscape:window-x="-8"
     inkscape:window-y="-8"
     inkscape:window-maximized="1"
     inkscape:current-layer="svg6263" />
  <path
     style="fill:#d59541;fill-opacity:1"
     d="m 6.2923729,67.5 c 0,-1 -1,-1.5 -3,-1.5 H 0.29237288 v -6 c 0,-4.666667 0.33333,-6 1.50000002,-6 1.11111,0 1.5,1.166667 1.5,4.5 0,3.333333 0.38889,4.5 1.5,4.5 1.11111,0 1.5,-1.166667 1.5,-4.5 0,-3.333333 0.38889,-4.5 1.5,-4.5 1.2,0 1.5,1.5 1.5,7.5 0,6 -0.3,7.5 -1.5,7.5 -0.825,0 -1.5,-0.675 -1.5,-1.5 z M 18.692803,64.601125 c -0.30227,-0.787699 -0.40352,-2.707692 -0.225,-4.266652 L 18.792373,57.5 h 26.5 26.5 v 4 4 l -26.275,0.266652 c -22.05473,0.223823 -26.36326,0.03662 -26.82457,-1.165527 z M 0.29237288,49.5 c 0,-1 1.00000002,-1.5 3.00000002,-1.5 2,0 3,-0.5 3,-1.5 0,-1 -1,-1.5 -3,-1.5 -2,0 -3.00000002,-0.5 -3.00000002,-1.5 0,-1 1.00000002,-1.5 3.00000002,-1.5 2,0 3,-0.5 3,-1.5 0,-1 -1,-1.5 -3,-1.5 -2,0 -3.00000002,-0.5 -3.00000002,-1.5 0,-1.111111 1.16667002,-1.5 4.50000002,-1.5 h 4.5 v 7.5 7.5 h -4.5 C 1.4590429,51 0.29237288,50.611111 0.29237288,49.5 Z M 18.692803,46.601125 c -0.30227,-0.787699 -0.40352,-2.707692 -0.225,-4.266652 L 18.792373,39.5 h 26.5 26.5 v 4 4 l -26.275,0.266652 c -22.05473,0.223823 -26.36326,0.03662 -26.82457,-1.165527 z M 0.29237288,28.5 c 0,-4.333333 0.11111,-4.5 3.00000002,-4.5 2,0 3,-0.5 3,-1.5 0,-1 -1,-1.5 -3,-1.5 -2,0 -3.00000002,-0.5 -3.00000002,-1.5 0,-1.111111 1.16667002,-1.5 4.50000002,-1.5 h 4.5 v 4.5 c 0,4.333333 -0.11111,4.5 -3,4.5 -2,0 -3,0.5 -3,1.5 0,1 1,1.5 3,1.5 2,0 3,0.5 3,1.5 0,1.111111 -1.16667,1.5 -4.5,1.5 H 0.29237288 Z M 18.692803,28.601125 c -0.30227,-0.787699 -0.40352,-2.707692 -0.225,-4.266652 L 18.792373,21.5 h 26.5 26.5 v 4 4 l -26.275,0.266652 c -22.05473,0.223823 -26.36326,0.03662 -26.82457,-1.165527 z M 3.2923729,9.0000001 c 0,-4.666667 -0.33333,-6 -1.5,-6 -0.82500002,0 -1.50000002,-0.675 -1.50000002,-1.5 C 0.29237288,0.50000014 1.2923729,1.3559322e-7 3.2923729,1.3559322e-7 h 3 V 7.5000001 c 0,5.9999999 -0.3,7.4999999 -1.5,7.4999999 -1.16667,0 -1.5,-1.333333 -1.5,-5.9999999 z M 18.692803,10.601125 c -0.30227,-0.7876989 -0.40352,-2.7076919 -0.225,-4.2666519 l 0.32457,-2.834473 h 26.5 26.5 v 4 V 11.5 l -26.275,0.266652 c -22.05473,0.223823 -26.36326,0.03662 -26.82457,-1.165527 z"
     id="path6273"
     inkscape:connector-curvature="0" />
</svg>
