<?xml version="1.0" encoding="UTF-8" standalone="no"?>
<!-- Created with Inkscape (http://www.inkscape.org/) -->

<svg
   xmlns:dc="http://purl.org/dc/elements/1.1/"
   xmlns:cc="http://creativecommons.org/ns#"
   xmlns:rdf="http://www.w3.org/1999/02/22-rdf-syntax-ns#"
   xmlns:svg="http://www.w3.org/2000/svg"
   xmlns="http://www.w3.org/2000/svg"
   xmlns:sodipodi="http://sodipodi.sourceforge.net/DTD/sodipodi-0.dtd"
   xmlns:inkscape="http://www.inkscape.org/namespaces/inkscape"
   version="1.1"
   id="svg6818"
   width="64"
   height="48"
   viewBox="0 0 64 48"
   sodipodi:docname="training.svg"
   inkscape:version="0.92.2 (5c3e80d, 2017-08-06)">
  <metadata
     id="metadata6824">
    <rdf:RDF>
      <cc:Work
         rdf:about="">
        <dc:format>image/svg+xml</dc:format>
        <dc:type
           rdf:resource="http://purl.org/dc/dcmitype/StillImage" />
        <dc:title></dc:title>
      </cc:Work>
    </rdf:RDF>
  </metadata>
  <defs
     id="defs6822" />
  <sodipodi:namedview
     pagecolor="#ffffff"
     bordercolor="#666666"
     borderopacity="1"
     objecttolerance="10"
     gridtolerance="10"
     guidetolerance="10"
     inkscape:pageopacity="0"
     inkscape:pageshadow="2"
     inkscape:window-width="1920"
     inkscape:window-height="1017"
     id="namedview6820"
     showgrid="false"
     inkscape:zoom="3.6883117"
     inkscape:cx="38.5"
     inkscape:cy="27.5"
     inkscape:window-x="-8"
     inkscape:window-y="-8"
     inkscape:window-maximized="1"
     inkscape:current-layer="svg6818" />
  <path
     style="fill:#d59541;fill-opacity:1;stroke-width:0.86498493"
     d="M 3.3223953,47.038782 C -0.27163299,44.883687 -0.20394372,43.486479 4.4583967,23.587747 8.2805597,7.274836 9.2514694,4.217982 11.270595,2.139852 14.160344,-0.834338 15.23581,-0.85516 23.13529,1.91014 c 7.893683,2.763269 12.13304,2.763269 19.265932,0 6.995757,-2.710144 9.008999,-2.7418 11.894767,-0.18703 1.94881,1.725285 2.849958,4.464279 6.423873,19.525091 4.840734,20.399322 5.094319,23.451947 2.115113,25.461041 -1.926028,1.29886 -2.355287,1.275726 -5.849883,-0.315273 -2.876031,-1.30938 -4.757936,-3.168656 -7.927224,-7.831906 -4.11132,-6.049352 -4.192583,-6.111115 -7.578828,-5.76054 -2.349966,0.243289 -4.222902,-0.161688 -5.974885,-1.291928 -2.501843,-1.613983 -2.607218,-1.612735 -5.367591,0.06351 -2.004674,1.217349 -3.761704,1.579217 -6.100305,1.256378 -3.248957,-0.44851 -3.327935,-0.388246 -7.266386,5.544315 -2.875946,4.33209 -4.987555,6.498892 -7.6035203,7.802265 -4.152817,2.069089 -3.8954545,2.031096 -5.8439574,0.862714 z M 28.397012,27.222567 c 2.917715,-2.71766 0.92393,-8.200549 -2.982037,-8.200549 -2.281782,0 -4.837536,2.469326 -4.837536,4.673953 0,4.205975 4.77712,6.360437 7.819573,3.526596 z m 15.347107,0 c 2.917716,-2.71766 0.92393,-8.200549 -2.982036,-8.200549 -2.281783,0 -4.837537,2.469326 -4.837537,4.673953 0,4.205975 4.77712,6.360437 7.819573,3.526596 z m 6.514984,-11.065261 c 0.339333,-1.81349 -2.122002,-3.035471 -3.421058,-1.698456 -1.299056,1.337016 -0.111769,3.870278 1.650232,3.521031 0.816679,-0.161874 1.613552,-0.982031 1.770826,-1.822575 z M 18.872205,13.318059 c 0,-0.723965 0.575516,-1.316299 1.278925,-1.316299 0.703409,0 1.278926,-0.592334 1.278926,-1.316299 0,-0.723964 -0.575517,-1.316297 -1.278926,-1.316297 -0.703409,0 -1.278925,-0.592335 -1.278925,-1.3163 0,-0.723963 -0.575517,-1.316298 -1.278926,-1.316298 -0.703409,0 -1.278926,0.592335 -1.278926,1.316298 0,0.723965 -0.575516,1.3163 -1.278925,1.3163 -0.703409,0 -1.278926,0.592333 -1.278926,1.316297 0,0.723965 0.575517,1.316299 1.278926,1.316299 0.703409,0 1.278925,0.592334 1.278925,1.316299 0,0.723963 0.575517,1.316297 1.278926,1.316297 0.703409,0 1.278926,-0.592334 1.278926,-1.316297 z M 45.1434,10.892114 c 0.339334,-1.81349 -2.122001,-3.035474 -3.421057,-1.698457 -1.299056,1.337016 -0.11177,3.870276 1.650231,3.52103 0.81668,-0.161873 1.613553,-0.982031 1.770826,-1.822573 z m 10.231406,0 c 0.339333,-1.81349 -2.122002,-3.035474 -3.421058,-1.698457 -1.299056,1.337016 -0.11177,3.870276 1.650232,3.52103 0.816679,-0.161873 1.613552,-0.982031 1.770826,-1.822573 z M 50.259103,5.62692 C 50.598436,3.813429 48.137101,2.591447 46.838045,3.928463 45.538989,5.265479 46.726276,7.798741 48.488277,7.449494 49.304956,7.28762 50.101829,6.467463 50.259103,5.62692 Z"
     id="path6828"
     inkscape:connector-curvature="0" />
</svg>
