<?xml version="1.0" encoding="UTF-8" standalone="no"?>
<!-- Created with Inkscape (http://www.inkscape.org/) -->

<svg
   xmlns:dc="http://purl.org/dc/elements/1.1/"
   xmlns:cc="http://creativecommons.org/ns#"
   xmlns:rdf="http://www.w3.org/1999/02/22-rdf-syntax-ns#"
   xmlns:svg="http://www.w3.org/2000/svg"
   xmlns="http://www.w3.org/2000/svg"
   xmlns:sodipodi="http://sodipodi.sourceforge.net/DTD/sodipodi-0.dtd"
   xmlns:inkscape="http://www.inkscape.org/namespaces/inkscape"
   version="1.1"
   id="svg6818"
   width="77"
   height="55"
   viewBox="0 0 77 55"
   sodipodi:docname="training.svg"
   inkscape:version="0.92.2 (5c3e80d, 2017-08-06)">
  <metadata
     id="metadata6824">
    <rdf:RDF>
      <cc:Work
         rdf:about="">
        <dc:format>image/svg+xml</dc:format>
        <dc:type
           rdf:resource="http://purl.org/dc/dcmitype/StillImage" />
        <dc:title></dc:title>
      </cc:Work>
    </rdf:RDF>
  </metadata>
  <defs
     id="defs6822" />
  <sodipodi:namedview
     pagecolor="#ffffff"
     bordercolor="#666666"
     borderopacity="1"
     objecttolerance="10"
     gridtolerance="10"
     guidetolerance="10"
     inkscape:pageopacity="0"
     inkscape:pageshadow="2"
     inkscape:window-width="1920"
     inkscape:window-height="1017"
     id="namedview6820"
     showgrid="false"
     inkscape:zoom="3.6883117"
     inkscape:cx="38.5"
     inkscape:cy="27.5"
     inkscape:window-x="-8"
     inkscape:window-y="-8"
     inkscape:window-maximized="1"
     inkscape:current-layer="svg6818" />
  <path
     style="fill:#d59541;fill-opacity:1"
     d="M 3.7622594,53.926764 C -0.45303056,51.470905 -0.37364056,49.878705 5.0946294,27.20292 9.5774894,8.6133901 10.71623,5.1299226 13.08438,2.7617717 16.47365,-0.62749459 17.73502,-0.65122269 27,2.5 c 9.25818,3.1489087 14.23035,3.1489087 22.59623,0 8.20504,-3.08836929 10.56629,-3.12444269 13.95089,-0.2131315 2.28568,1.9660648 3.3426,5.0873118 7.5343,22.2499995 5.6775,23.246237 5.97492,26.724883 2.48073,29.014366 -2.25896,1.480129 -2.76242,1.453766 -6.86109,-0.359272 -3.37318,-1.492116 -5.58039,-3.610872 -9.29752,-8.924921 -4.822,-6.893596 -4.91731,-6.963979 -8.8889,-6.564478 -2.75618,0.277243 -4.95287,-0.184252 -7.0077,-1.472229 -2.93431,-1.839228 -3.0579,-1.837807 -6.29543,0.07238 -2.3512,1.387242 -4.41195,1.799611 -7.1548,1.431718 -3.81057,-0.511104 -3.9032,-0.442429 -8.52245,6.318075 -3.37308,4.936674 -5.8497,7.405873 -8.91786,8.891144 -4.8706706,2.35785 -4.5688206,2.314555 -6.8541406,0.983113 z M 33.17126,31.345012 C 36.59333,28.248077 34.2549,22 29.67375,22 26.99754,22 24,24.813943 24,27.326247 c 0,4.792958 5.60289,7.248096 9.17126,4.018765 z m 18,0 C 54.59333,28.248077 52.2549,22 47.67375,22 44.99754,22 42,24.813943 42,27.326247 c 0,4.792958 5.60289,7.248096 9.17126,4.018765 z m 7.64116,-12.60952 C 59.21041,16.668912 56.32361,15.276391 54.8,16.8 c -1.52361,1.523609 -0.13109,4.41041 1.93549,4.012423 0.95785,-0.184464 1.89247,-1.119083 2.07693,-2.076931 z M 22,15.5 C 22,14.675 22.675,14 23.5,14 24.325,14 25,13.325 25,12.5 25,11.675 24.325,11 23.5,11 22.675,11 22,10.325 22,9.5 22,8.675 21.325,8 20.5,8 19.675,8 19,8.675 19,9.5 19,10.325 18.325,11 17.5,11 16.675,11 16,11.675 16,12.5 c 0,0.825 0.675,1.5 1.5,1.5 0.825,0 1.5,0.675 1.5,1.5 0,0.825 0.675,1.5 1.5,1.5 0.825,0 1.5,-0.675 1.5,-1.5 z M 52.81242,12.735492 C 53.21041,10.668912 50.32361,9.2763911 48.8,10.8 c -1.52361,1.523609 -0.13109,4.41041 1.93549,4.012423 0.95785,-0.184464 1.89247,-1.119083 2.07693,-2.076931 z m 12,0 C 65.21041,10.668912 62.32361,9.2763911 60.8,10.8 c -1.52361,1.523609 -0.13109,4.41041 1.93549,4.012423 0.95785,-0.184464 1.89247,-1.119083 2.07693,-2.076931 z m -6,-5.9999997 C 59.21041,4.6689116 56.32361,3.2763911 54.8,4.8 53.27639,6.3236089 54.66891,9.2104101 56.73549,8.812423 57.69334,8.6279585 58.62796,7.6933397 58.81242,6.7354923 Z"
     id="path6828"
     inkscape:connector-curvature="0" />
</svg>
